<?xml version="1.0" encoding="UTF-8" standalone="no"?><!DOCTYPE svg PUBLIC "-//W3C//DTD SVG 1.1//EN" "http://www.w3.org/Graphics/SVG/1.1/DTD/svg11.dtd"><svg width="100%" height="100%" viewBox="0 0 430 444" version="1.1" xmlns="http://www.w3.org/2000/svg" xmlns:xlink="http://www.w3.org/1999/xlink" xml:space="preserve" xmlns:serif="http://www.serif.com/" style="fill-rule:evenodd;clip-rule:evenodd;stroke-linejoin:round;stroke-miterlimit:2;"><path d="M181.554,242.92l-133.512,0l-0,38.334l102.162,-0c6.704,0.023 12.205,5.55 12.196,12.254l0,50.717c-0.054,6.462 -5.386,11.75 -11.85,11.75c-0.033,0 -0.067,-0 -0.1,-0l-54.95,-0c-6.51,0.23 -12.056,-4.937 -12.287,-11.446l-0,-0.275l0.091,-25.354l-35.262,-0l-0,56.42c-0,10.467 8.612,19.08 19.079,19.08l114.654,-0c10.34,-0.179 18.749,-8.734 18.75,-19.075l0.067,-113.905c-0.387,-10.201 -8.826,-18.411 -19.034,-18.516" style="fill:#7fae13;fill-rule:nonzero;"/><path d="M326.792,317.529l-25.221,-0c-6.696,0.251 -12.02,5.923 -11.85,12.621l-0,25.833l-26.717,-0c-6.529,-0.205 -11.812,-5.581 -11.904,-12.113l-0.037,-101.012l-38.305,-0l0,132.421c0.055,10.476 8.69,19.067 19.167,19.067c0.035,-0 0.069,-0 0.104,-0.001l113.854,0c10.091,-0.008 18.528,-8 19.084,-18.075l-0,-133.412l-38.175,-0l-0,74.671Z" style="fill:#7fae13;fill-rule:nonzero;"/><path d="M66.875,228.15l114.5,0.187c10.519,-0.014 19.167,-8.673 19.167,-19.192c-0,-0.011 -0,-0.022 -0,-0.033l-0,-56.721l-63.054,0.038l-0,23.221l24.941,-0l0,4.425c-0.075,5.484 -4.649,9.936 -10.133,9.862l-54.079,0c-6.714,-0.043 -12.219,-5.566 -12.242,-12.279l-0,-50.621c0.021,-6.737 5.579,-12.266 12.317,-12.25l102.245,0l0,-38.508l-133.65,-0c-10.336,0.009 -18.837,8.517 -18.837,18.854c-0,0.005 -0,0.011 0,0.017l0,113.954c-0.143,10.313 8.225,18.917 18.537,19.062l0.288,0" style="fill:#7fae13;fill-rule:nonzero;"/><path d="M389.483,380.295c0.001,0.052 0.001,0.103 0.001,0.155c-0,21.361 -17.531,38.959 -38.892,39.041l-287.625,0c-21.422,-0.082 -38.984,-17.773 -38.909,-39.196l0,-289.791c-0.078,-21.424 17.485,-39.118 38.909,-39.2l215.075,-0c-15.219,40.498 5.579,86.346 46.075,101.571c8.709,3.272 17.929,4.977 27.233,5.037c13.367,0.016 26.513,-3.429 38.154,-10l-0.021,232.383Zm-52.354,-357.5l0,28.417l-23.75,0.058l-0.241,0l-0,24.342l23.995,0l0,59.475c-25.571,-6.535 -43.601,-29.753 -43.601,-56.146c-0,-4.841 0.606,-9.663 1.806,-14.354c4.173,-16.338 15.278,-30.066 30.383,-37.562c3.641,-1.806 7.466,-3.215 11.408,-4.205m71.421,56.134c0.013,16.375 -6.919,32.01 -19.063,42.996c-6.914,6.294 -15.271,10.793 -24.333,13.1l0,-59.4l24.167,-0l-0,-24.342l-24.196,-0l0,-28.438c4.549,1.137 8.939,2.833 13.071,5.05c18.692,10.137 30.361,29.779 30.325,51.042m21.129,0c0.437,-42.877 -34.485,-78.519 -77.362,-78.958c-22.943,-0.225 -44.86,9.659 -59.88,27.004l-233.283,-0c-32.471,0.435 -58.983,27.189 -59.125,59.662l0,299.042c0,29.667 27.696,58.063 59.125,58.063l294.363,-0c32.9,-0.76 59.699,-27.713 60.27,-60.617l-0.158,-256.413c10.44,-13.731 16.089,-30.517 16.075,-47.766" style="fill:#7fae13;fill-rule:nonzero;"/></svg>