<?xml version="1.0" encoding="utf-8"?>
<!-- Generator: Adobe Illustrator 26.1.0, SVG Export Plug-In . SVG Version: 6.00 Build 0)  -->
<svg version="1.1" baseProfile="tiny" xmlns="http://www.w3.org/2000/svg" xmlns:xlink="http://www.w3.org/1999/xlink" x="0px"
	 y="0px" viewBox="0 0 134.11 137.76" overflow="visible" xml:space="preserve">
<g id="Hintergrund">
	<polyline points="67.04,109.73 18.47,107.08 38.76,62.77 67.47,20.66 94.97,62.51 117.88,107.61 67.04,109.73 	"/>
</g>
<g id="Hauptfarben">
	<path fill="#D29441" d="M30.45,73.66c-4.82,3.05-7.83,7.01-9.03,12.48c-0.67,3.13-1.54,6.68-2.03,9.83
		c-0.17,1.1-0.16,4.07,0.27,5.1c0.54,1.28,1.33,2.6,2.3,3.83l0,0.01c1.91,2.46,4.53,4.55,7.34,5.37c1.02,0.3,2.02,0.59,3.03,0.87
		l0.03,0.01c2.64,0.7,5.27,1.29,8.06,1.54c7.23,0.69,15.54-4.26,18.72-13.03c1.44-3.98,2.09-8.09,2.27-12.3
		c-0.06,0.02-0.12,0.07-0.17,0.12c-0.04,0.03-0.07,0.08-0.12,0.11l0,0.01c-0.52,8.08-2.17,15.29-7.31,19.68
		c-2.32,1.98-5.36,3.4-9.33,4.06c-4.63,0.78-9.77-0.93-14.57-2c-5.05-1.12-8.14-4.71-9.94-10.33c0.52-3.33,0.92-7.48,1.82-11.52
		c1.91-8.52,7.77-14.03,14.91-15.35c4.32-0.82,9.1-0.09,13.76,2.42c1.34,0.72,2.66,1.47,4.28,2.39c0.09-0.05,0.17-0.13,0.25-0.23
		c-1.89-1.02-3.73-2.17-5.69-3.05c-3.68-1.64-7.46-2.66-11.15-2.46l-0.02,0c-1.88,0.1-3.75,0.52-5.57,1.33l-0.01,0
		C31.84,72.84,31.13,73.22,30.45,73.66z M25.44,101.32c0,0,1.24,1.87,2.29,3.05c0.95,1.06,2.16,1.88,2.32,1.97
		c4.08,2.42,8.56,2.77,13.11,2.28c2.78-0.29,5.35-1.43,7.85-2.67c0.53-0.26,0.75-0.33,1.46-0.86c0.24-0.2,0.51-0.53,0.68-0.78
		c0.78-1.08,1.09-1.58,1.66-3.11c0.59-1.56,1.19-3.1,1.68-4.69c0.64-2.16,0.78-4.44,1.58-6.56c0.18-0.47,0.1-1.33-0.01-1.34
		c-1.19-0.17-0.44-1.2-0.82-1.69c-0.1-0.13-0.05-0.39-0.4-0.57c0.08,2.58-0.15,5.03-1.95,7.04c-1.42-1.6-3.83-3.29-4.98-3.35
		c-3.69-0.21-7.29,0.06-10.65,1.9c-2.42,1.34-4.46,3.2-6.86,4.57c-1.78,1.01-3.69,1.7-5.74,1.03c-1.33-0.2-1.75-0.07-2.14,0.3
		C23.61,98.91,25.17,100.92,25.44,101.32z M61.1,87.62c-0.06,0.06-0.11,0.12-0.17,0.19c-0.01,0-0.02,0.02-0.04,0.03
		c-0.05,0.05-0.11,0.1-0.16,0.12c-0.07,0.04-0.14,0.06-0.22,0.04c-0.01,0-0.04,0-0.06-0.01c-0.02,0-0.04-0.01-0.06-0.02
		c-0.05-0.02-0.1-0.05-0.14-0.09c-0.11-0.09-0.18-0.19-0.22-0.29c-0.06,0.89-0.05,1.86-0.05,1.86S60.92,87.88,61.1,87.62z"/>
	<path fill="#9E3E34" d="M66.29,25.61c0.33,0,0.38,0.31,0.36,0.52c-0.33,2.4,1.35,4.43,1.27,6.79c-0.02,0.62,0.43,1.38-0.51,1.73
		c0.17,0.32,0.34,0.64,0.5,0.95c-0.65,1.01-1.03,2.23-2.16,2.89c-0.28,0.34-0.55,0.67-0.83,1.01c0.28-0.34,0.7-0.58,1.02-0.85
		c1.3-0.87,1.5-1.87,2.16-2.89c0.42-0.72,0.63-1.77,1.51-2.22c0.31,0.59-0.1,0.91-0.34,1.22c-1.09,1.39-1.25,3.07-1.62,4.69
		C67.4,40.5,68,41,68.82,41.49c1.99,1.2,3.41,2.91,3.55,5.3c0.08,1.53-0.08,3.12-0.73,4.57c-0.62,1.38-1.29,2.73-1.99,4.08
		c-0.9,1.76-1.37,3.72-1.51,5.73c-0.05,0.64-0.11,1.14-0.95,0.93c-0.76,0.28-0.98-0.32-1.22-0.81c-0.94-1.88-1.7-2.81-2.67-2.28
		c-0.48,0.26-0.28-1.53-0.98-1.88c-0.52-0.25-0.58,0.86-0.9,0.57c-0.85-0.77-1.21-0.36-1.8,0.13c-0.01,0.03-0.01,0.06-0.01,0.09
		c0.14,0.3,0.24,0.54,0.28,0.7c0.06,0.23-0.29,0.32-0.35,0.09c-0.01-0.03-0.02-0.05-0.03-0.07c-0.05,0.15-0.16,0.28-0.39,0.34
		c0.03,0.24,0.08,0.47,0.11,0.71c0.03,0.17-0.01,0.33-0.18,0.4c-0.16,0.08-0.27-0.02-0.39-0.15c-2.67-2.83-5.23-5.72-6.32-9.61
		c-0.17-0.6-0.77-2.96-0.59-5.4c0.19-2.45,1.15-4.98,1.67-6.11c1.43-3.15,4.03-5.22,6.89-7c0.21-0.12,0.33-0.2,0.53-0.35
		c0.16-0.11,0.47-0.3,0.51-0.37c1.26-0.8,3.18-2.2,3.39-2.56c0.6-0.85,1.01-1.44,1.17-2.4C65.95,25.91,65.98,25.63,66.29,25.61z"/>
	<path fill="#9E3E34" d="M60.41,25.26c3.09-1.66,6.39-2.44,9.89-2.7c0.46-0.03,1.21,0.72,1.65,1.07c3.52,2.87,7.23,5.5,10.44,8.72
		c7.91,7.95,7.26,21.59-1.41,28.73c-1.12,0.94-2.26,2.2-3.68,2.69c-1.04,0.35-1.9,0.81-2.85,1.32c0.82-0.59,1.54-1.09,2.34-1.44
		c11.47-5,15.07-22.02,5.01-31.58c-3.46-3.29-7.37-6.11-10.52-8.68c-5.61,0.09-11.62,2.66-16.09,6.41c-2.87,2.41-5.09,5.3-6.16,8.34
		c-4.6,13.16,1.9,21.58,13.62,27.7c-0.73,0-1.87-0.38-2.44-0.71c-3.89-2.3-7.82-5.13-10.4-8.94c-0.47-0.68-0.89-1.39-1.26-2.14
		c-0.7-1.39-1.16-2.9-1.45-4.47l-0.01-0.03c-0.55-2.96-0.43-6.1,0.16-8.91c1.06-5.08,4.28-9.13,8.26-12.21l0.54-0.41
		C57.44,26.99,58.92,26.07,60.41,25.26z"/>
	<path fill="#4A7189" d="M81.79,87.26c-0.06-0.07-0.13-0.15-0.19-0.23C81.61,87.03,81.59,86.99,81.79,87.26z"/>
	<path fill="#4A7189" d="M89.49,76.28l1.3-0.43c0.51-0.37,0.56-0.5,1.01-0.57c0.05-0.01,0.12-0.02,0.18-0.02
		c0.86-0.11,4.01-0.4,4.96-0.26c1.97,0.3,7.1,3.17,8.47,4.39c0.4,0.37,1.18,0.92,1.54,1.3c3.59,3.74,6.68,9.03,5.7,13.93
		c-0.93,4.64-3.73,7.85-7.41,10.48c-0.87,0.62-4.15,1.3-5.05,1.41c-1.32,0.16-6.12-0.85-9.07-2.62c-2.16-1.3-4.53-5.64-4.07-8.12
		c0.47-2.57,1.53-3.56,4.12-4.06c1.05-0.2,2.06-0.57,3.15-0.26c1.19,0.34,2.57,1.9,2.62,3.09c0.01,0.34,0.11,0.68-0.44,0.81
		c-0.99,0.22-0.66,0.99-0.42,1.51c0.32,0.68,0.97,0.66,1.53,0.27c0.87-0.6,1.28-1.55,1.44-2.52c0.34-1.98-1.15-4-3.09-4.52
		c-2.47-0.67-4.89-0.76-7.34,0.17c-0.91,0.34-3.89,1.41-4.68,2.18c-0.23,0.22-0.48,0.59-0.92,0.31c-1.04-0.68-0.08-1.12,0.19-1.67
		c0.74-1.52,1.48-3.06,1.05-4.85c-0.42-0.09-0.53-0.32-0.26-0.66c0.45-0.57,1.85-0.84,1.9-0.81c-0.04-0.03-0.09-0.08-0.13-0.12
		c-0.29-0.5-0.5-1.04,0.1-1.43c0.65-0.44,0.62-1,0.43-1.63c-0.35-0.19-0.05-0.28,0.07-0.38c0.08-0.08,0.19-0.14,0.22-0.25
		c0.02-0.03,0.02-0.07,0.01-0.12c-0.01,0-0.03-0.02-0.05-0.03c-0.04-0.03-0.1-0.07-0.14-0.07c-0.36-0.03-0.8,0.64-1.03,0.13
		c-0.27-0.63,0.46-0.64,0.82-0.68c1.55-0.21,1.98-1.74,3.07-2.48c-0.01-0.21-0.02-0.42-0.04-0.63c-0.24-0.14-0.54,0.17-0.85-0.18
		C88.76,76.6,89.1,76.33,89.49,76.28z"/>
	<path fill="#4A7189" d="M84.33,76.84c3.24-1.81,6.6-3.27,10.41-3.46c9.67-0.49,18.52,6.13,20.07,15.68
		c0.64,3.93,0.94,7.79,1.35,11.72l0,0.02c0.02,0.29,0.05,0.58,0.09,0.86c0.06,0.57,0.67,1.52,0.4,1.97
		c-0.27,0.46-0.57,0.91-0.91,1.34c-1.58,2.1-3.84,3.89-6.22,5.23l-0.05,0.03c-1.29,0.72-2.62,1.3-3.9,1.74
		c-0.86,0.29-1.81,0.59-2.79,0.86l-0.07,0.02c-3.08,0.84-6.57,1.49-9.4,1.45c-6.83-0.1-11.93-4.32-15.69-9.91
		c-2.35-3.52-3.31-7.52-3.23-11.73c0.02-1.38,0.63-3.69,0.66-5.08c0.01,2.53,0.01,4.34,0.03,6.13
		c0.11,11.28,10.01,20.84,21.24,19.53c7.45-0.87,15.12-2.53,19.27-10.49c-0.44-4.35-0.66-8.85-1.41-13.27
		c-2.2-13.11-16.25-19.87-27.94-13.59C85.61,76.21,84.98,76.53,84.33,76.84z"/>
</g>
<g id="Zentrum">
	<path fill="#272625" d="M79.89,78.73c0.08-0.09,0.14-0.17,0.21-0.27l-6.74-11.88c-0.11,0.04-0.21,0.07-0.31,0.1L79.89,78.73z"/>
	<path fill="#323031" d="M82.27,77.81c0,0.01,0,0.01-0.01,0.03c-0.25,0.12-0.51,0.24-0.77,0.37C81.74,78.03,81.98,77.85,82.27,77.81
		z"/>
	<path fill="#323031" d="M80.1,78.46c0.21,0.12,0.39,0.16,0.55,0.15c-0.22,0.1-0.43,0.21-0.66,0.32l-0.11-0.19
		C79.96,78.64,80.03,78.56,80.1,78.46z"/>
	<path fill="#323031" d="M73.08,66.04c0.09,0.18,0.19,0.35,0.28,0.53c-0.11,0.04-0.21,0.07-0.31,0.1l-0.25-0.44l0.03-0.02
		C72.92,66.15,73,66.09,73.08,66.04z"/>
	<path fill="#323031" d="M61.16,86.94c0.13,0.01,0.26,0.01,0.39,0.02c-0.07,0.11-0.1,0.25-0.14,0.4c-0.06,0.02-0.12,0.07-0.17,0.12
		c-0.04,0.03-0.08,0.08-0.11,0.12l0-0.01C61.13,87.37,61.15,87.16,61.16,86.94z"/>
	<path fill="#323031" d="M55.39,77.32c0.09-0.05,0.18-0.1,0.27-0.14c0.07-0.03,0.15-0.06,0.21-0.1c-0.08,0.13-0.15,0.26-0.23,0.38
		C55.56,77.41,55.48,77.36,55.39,77.32z"/>
	<path fill="#4E4D4C" d="M83.7,77.16c0.02,0,0.06,0,0.08,0c0.43,0.26,1.01,0.01,1.68,0.54c-2.24,0.58-2.96,2.2-3.3,4.15
		c-0.1,0.57-0.7,1.04-1.25,1.38c0.24,0.4,0.15,0.85-0.07,1.14c-0.8,1.08-0.06,1.74,0.57,2.45c0.02,0.02,0.04,0.05,0.06,0.07
		c0.06,0.07,0.1,0.11,0.12,0.13c0.02,0.02,0.02,0.02,0.02,0.02c0.01,0-0.01-0.04,0.19,0.23c0.18,0.23,0.92,1.74,0.92,1.74
		s-1.88-1.3-2.15-1.58c-0.01,0-0.01,0-0.02-0.01c-0.06-0.07-0.12-0.13-0.17-0.18c-0.09-0.1-0.17-0.18-0.23-0.25
		c-0.01-0.02-0.02-0.03-0.03-0.04c-0.06-0.06-0.1-0.12-0.15-0.16c-0.09-0.09-0.14-0.15-0.2-0.21c-0.04-0.05-0.07-0.09-0.12-0.13
		c-0.12-0.14-0.3-0.32-0.66-0.71c0.29-1.06,0.36-2.19,1.04-3.12c-0.04-0.06-0.1-0.12-0.15-0.18c-0.34-0.11-0.73-0.21-0.72-0.64
		c0-0.46,0.41-0.46,0.76-0.59c0.47-0.17,0.9-0.45,1.35-0.7c0.55-0.81,0.91-1.7,1-2.67c0-0.01,0-0.01,0.01-0.03
		C82.74,77.57,83.12,77.16,83.7,77.16z"/>
	<path fill="#4E4D4C" d="M53.28,77.12c0.47-0.1,1.02,0.12,1.46-0.17c0.09-0.05,0.17-0.13,0.25-0.23c0.32,0.01,0.53,0.2,0.69,0.46
		c-0.09,0.04-0.19,0.09-0.27,0.14c-0.15,0.08-0.31,0.16-0.45,0.26c-0.46,0.28-0.43,0.56,0.09,0.7c1.45,0.43,2.29,1.21,1.78,2.85
		c-0.1,0.35,0.14,0.51,0.43,0.58c0.36,0.08,0.66,0.25,0.85,0.59c-0.84,0.35-1.61-0.1-2.4-0.22c-0.41-0.05-0.38-0.35-0.09-0.68
		c1.31-1.49,1.18-1.84-0.75-2.46c-0.63-0.2-1.35-0.23-1.86-0.73c-0.22-0.2-0.62-0.34-0.5-0.73C52.59,77.12,52.98,77.17,53.28,77.12z
		"/>
	<path fill="#4E4D4C" d="M58.31,82.67c0.38,1.08-0.14,1.69-1.06,2.13c-0.2,0.1-0.46,0.19-0.36,0.49c0.02,0.04,0.27,0.02,0.42,0.03
		c-0.79,1.14-2.08,0.87-3.33,1.34C55.27,84.92,57.36,84.42,58.31,82.67z"/>
	<path fill="#4E4D4C" d="M63.73,63.56c0.31,0.11,0.47,0,0.55-0.23c0.1-0.03,0.12-0.14,0.21-0.44c0.36-1.23,0.22-1.36,0.21-2.02
		c0.24,0.87,0.44,0.28,0.8,1.34c-0.63,2.77-1.34,5.36-3.27,1.08c-0.03-0.07-0.05-0.15-0.07-0.22c-0.02-0.1-0.05-0.18-0.06-0.24
		c-0.07-0.33,0-0.3,0.06-0.42c0.1-0.25-0.08-0.83-0.23-1.25c0.25,0.54,0.61,1.36,0.63,1.42c0.01,0.04,0.26,0.4,0.3,0.46l0.21,0.35
		C63.58,63.87,63.47,63.47,63.73,63.56z"/>
	<path fill="#4E4D4C" d="M71.11,60.67c-0.11-0.24-0.22-0.41-0.33-0.52C71.06,59.81,71.21,59.86,71.11,60.67z"/>
	<path fill="#4E4D4C" d="M70.06,63.22c0.21,0.16,0.41,0.31,0.61,0.47l-2.01,1.14C68.94,63.99,69.45,63.57,70.06,63.22z"/>
</g>
<g id="Symbole">
	<g>
		<path fill="#CE5113" d="M65.86,41.88c0.01,0,0.01,0,0.01,0c0.15,0.22,0.09,1.07,0.3,1.63c0.31,0.77,0.98,1.04,1.23,1.28
			c0.09,0.08,0.15,0.06,0.18-0.05c0,0,0.01,0,0-0.01c0.02-0.08,0.03-0.2,0.04-0.35c0-0.02,0-0.04,0.01-0.07
			c0.05-0.3,0.09-0.6,0.1-0.83c0.03-0.01,0.06-0.01,0.1,0.02c0.23,0.19,1.27,1.28,1.49,2.4c0.06,0.33,0.06,0.68,0.03,1
			c-0.11,1.06-0.55,1.89,0.08,1.52c0.24-0.15,0.46-0.57,0.64-0.92c0.17-0.34,0.3-0.62,0.39-0.53c0.17,0.16,0.17,1.27,0.1,2.12
			c-0.02,0.27-0.06,0.5-0.09,0.69c0,0.01-0.01,0.04-0.02,0.05c0,0.01-0.01,0.03-0.02,0.05c-0.15,0.26-0.92,0.93-1.2,1.57
			c-0.12,0.28,0.41-0.23,0.73-0.43c0.14-0.1,0.24-0.12,0.22,0c-0.09,0.53-1.25,2.55-1.54,3.25c-0.02,0.05-0.03,0.09-0.05,0.12
			c-0.01,0,0,0.01,0,0.01c-0.14,0.42-0.24,0.8-0.26,1.09c0,0.09,0,0.17,0,0.25c-0.05,0.8-0.3,1.56-0.61,2.29
			c-0.21-0.35-0.42-0.7-0.63-1.06c0.07-0.11,0.12-0.22,0.16-0.32c0.24-0.75-0.21-1.43-0.19-2.25c0.07-2.18,0.64-4.56,1.16-6.75
			c0.07-0.25,0.69-0.57,0.43-0.83c-0.02-0.01-0.05-0.04-0.08-0.06c-0.31-0.19-0.71-0.08-0.97,0.22c-0.19,0.21-0.15,0.9-0.31,1.14
			c-0.53,1.11-1.21,0.61-1.39,0.2c-0.15-0.34-0.31-1.27-0.35-1.63c-0.04-0.35,0.35-0.86,0.47-1.22c0.1-0.25,0.16-0.46-0.07-0.63
			c-0.02-0.01-0.04-0.02-0.05-0.03c-0.24-0.07-0.62,0.51-0.74,0.7c-0.6,0.88-0.29,1.34-0.1,1.78c0.33,0.74,0.28,1.6,0.11,2.4
			c-0.18,0.86-0.47,1.59-0.66,2.44c-0.11,0.53-0.5,1.08,0.04,1.09c0.06,0,0.12,0,0.19-0.01c-0.13,1.01,0.19,1.97,0.22,2.97
			c0-0.01,0-0.01-0.01-0.02c-0.21-0.37-0.44-0.14-0.67-0.74c-0.1-0.26-0.62-0.95-0.57-1.56c0-0.06,0.01-0.11,0.02-0.16
			c0.07-0.28-0.12-0.2-0.23,0.16c-0.06,0.2-0.1,0.48-0.04,0.85C63.54,55.1,63,54.31,62.91,54c-0.02-0.06-0.04-0.11-0.06-0.17
			c-0.18-0.5-0.46-1.2-0.69-1.83c-0.04-0.11-0.07-0.21-0.11-0.3c-0.03-0.1-0.06-0.19-0.1-0.29c-0.05-0.12-0.07-0.23-0.11-0.34
			c0-0.01,0.02-0.03,0.03-0.05c0.2-0.33,1.02-1.52,1.45-2.78c0.12-0.33,0.18-0.7,0.21-1.03l0-0.01c0.08-0.62,0.08-1.12,0.21-1.19
			c0.07-0.04,0.11,0.12,0.14,0.35c0.1,0.74,0.05,2.33,0.29,1.77c0.21-0.49,0.03-1.77,0.11-2.72c0.03-0.28,0.07-0.52,0.16-0.71
			C65.45,42.46,65.77,41.89,65.86,41.88z"/>
		<path fill="#D96828" d="M63.53,53.88c0.11-0.36,0.3-0.45,0.23-0.16c-0.02,0.05-0.02,0.1-0.02,0.16
			C63.67,53.87,63.61,53.88,63.53,53.88z"/>
		<path fill="#D96828" d="M61.94,51.41c0.24,0.74,0.66,1.75,0.9,2.42c-0.12-0.13-0.21-0.32-0.26-0.48
			C62.36,52.7,62.14,52.05,61.94,51.41z"/>
		<path fill="#D96828" d="M67.75,43.49c-0.02,0.23-0.06,0.53-0.1,0.83C67.66,43.98,67.66,43.56,67.75,43.49z"/>
		<path fill="#891A25" d="M66.98,38.94c-0.17,1.45,0.16,2.53,1.33,3.28c0.3,0.18,0.6,0.23,0.87,0.39c1.55,0.96,2.95,4.47,2.39,6.27
			c-0.17,0.56-0.51,1.53-0.72,2.19c-0.13,0.35-0.22,0.62-0.23,0.63c-0.03,0.23-0.45,0.78-0.48,0.93c-0.02,0.07-0.04,0.15-0.07,0.21
			c-0.03,0.07-0.06,0.14-0.11,0.2c0,0.01-0.02,0.03-0.04,0.05c-0.07,0.13-0.24,0.43-0.27,0.53c-0.03,0.11-0.07,0.22-0.12,0.33
			c-0.07,0.16-0.15,0.32-0.25,0.47c-0.09,0.15-0.19,0.3-0.29,0.44c-0.2,0.29-0.42,0.57-0.62,0.87c-0.01-0.08-0.01-0.16,0-0.25
			c0.02-0.29,0.12-0.66,0.26-1.09c0,0,0-0.01,0-0.01c0.02-0.03,0.03-0.07,0.05-0.12c0.29-0.7,1.45-2.72,1.54-3.25
			c0.02-0.13-0.08-0.1-0.22,0c-0.33,0.2-0.85,0.71-0.73,0.43c0.28-0.64,1.05-1.31,1.2-1.57c0.01-0.02,0.02-0.03,0.02-0.05
			c0-0.01,0.01-0.04,0.02-0.05c0.04-0.18,0.07-0.42,0.09-0.69c0.07-0.85,0.07-1.96-0.1-2.12c-0.09-0.09-0.22,0.2-0.39,0.53
			c-0.18,0.35-0.4,0.77-0.64,0.92c-0.63,0.37-0.19-0.46-0.08-1.52c0.04-0.32,0.04-0.66-0.03-1c-0.22-1.12-1.25-2.21-1.49-2.4
			c-0.04-0.03-0.08-0.04-0.1-0.02c-0.09,0.08-0.09,0.49-0.1,0.83c-0.01,0.03-0.01,0.05-0.01,0.07c-0.02,0.13-0.04,0.24-0.04,0.35
			c0,0.01,0,0.01,0,0.01c-0.04,0.1-0.09,0.13-0.18,0.05c-0.25-0.24-0.92-0.51-1.23-1.28c-0.21-0.56-0.16-1.42-0.3-1.63
			c0-0.01,0-0.01-0.01,0c-0.1,0.01-0.42,0.58-1.43,2.81c-0.09,0.19-0.13,0.43-0.16,0.71c-0.08,0.94,0.09,2.23-0.11,2.72
			c-0.24,0.56-0.19-1.03-0.29-1.77c-0.03-0.23-0.07-0.39-0.14-0.35c-0.14,0.07-0.14,0.57-0.21,1.19l0,0.01
			c-0.03,0.33-0.09,0.69-0.21,1.03c-0.43,1.25-1.25,2.44-1.45,2.78c-0.01,0.02-0.02,0.04-0.03,0.05c-0.02-0.08-0.05-0.17-0.07-0.25
			c-0.02-0.07-0.04-0.14-0.06-0.21c-0.22-0.75-0.15-1.44,0.34-2.14c0.44-0.65,0.73-1.43,0.95-2.18c0.48-1.7,1.26-3.23,2.37-4.6
			c-0.68-0.27-0.89,0.31-1.19,0.7c-0.05,0.06-0.11,0.15-0.17,0.28c-0.03,0.06-0.07,0.13-0.13,0.22c-0.14,0.3-0.33,0.71-0.52,1.11
			c-0.25,0.52-0.48,1.03-0.64,1.31c-0.01,0.03-0.45,0.98-0.84,0.97c-0.35-0.43-0.23-0.4-0.07-0.82c0.06-0.17,0.67-1.44,0.94-1.98
			c0.06-0.13,0.11-0.23,0.13-0.26c0.04-0.15,0.43-0.72,1.01-1.41c0.73-0.85,1.73-1.9,2.72-2.61C66.73,39.1,66.85,39.02,66.98,38.94z
			"/>
		<path fill="#A42B33" d="M61.76,50.82c0.02,0.08,0.05,0.17,0.07,0.25c-0.07,0.14-0.12,0.22-0.14,0.22
			C61.66,51.29,61.67,51.13,61.76,50.82z"/>
		<path fill="#A42B33" d="M71.57,48.88c-0.22,0.73-0.31,1.53-0.72,2.19C71.06,50.41,71.4,49.43,71.57,48.88z"/>
		<path fill="#A42B33" d="M67.64,44.39c-0.01,0.14-0.02,0.27-0.04,0.35C67.61,44.63,67.62,44.52,67.64,44.39z"/>
		<path fill="#A42B33" d="M63.99,42.67c-0.11,0.23-0.14,0.46-0.32,0.71c-0.03,0.23-0.15,0.44-0.33,0.62
			c0.18-0.4,0.38-0.81,0.52-1.11C63.91,42.8,63.96,42.73,63.99,42.67z"/>
		<path fill="#A42B33" d="M66.6,39.19c-1,0.71-2,1.77-2.72,2.61C64.5,40.78,65.44,39.95,66.6,39.19z"/>
		<polygon fill="#D96828" points="56.82,49 56.83,48.99 56.82,49.01 		"/>
		<path fill="#CE5113" d="M64.75,31.9c0.28,0.15-0.23,1.05-0.21,1.38c0.03,0.32,0.1,0.64,0.05,0.95c-0.25,1.6,0.2,2.99,1.16,4.25
			c-0.28,0.34-0.55,0.67-0.83,1.01c-0.02-0.05-0.04-0.08-0.06-0.13c-0.02-0.04-0.06-0.08-0.09-0.11c-0.03-0.04-0.07-0.06-0.11-0.09
			c-0.07-0.05-0.16-0.08-0.25-0.1c-0.1-0.02-0.21-0.02-0.31-0.03c-0.05-0.01-0.1,0-0.15-0.01c-0.05-0.01-0.1-0.01-0.15-0.02
			c-0.05-0.01-0.1-0.01-0.14-0.02c-0.05-0.02-0.09-0.03-0.13-0.05c-0.06-0.02-0.11-0.07-0.15-0.11c-0.02-0.02-0.03-0.04-0.05-0.06
			c-0.02-0.02-0.04-0.05-0.05-0.07c-0.04,0.19-0.03,0.44-0.14,0.54c-0.06,0.04-0.1,0.06-0.16,0.07c-0.02,0-0.05-0.01-0.07-0.02
			c-0.13-0.02-0.24-0.18-0.36-0.27c-0.31-0.22-0.1-0.72-0.52-0.91c-0.86,0.51-1.07,1.48-1.52,2.27c0.05,0.26,0.04,0.5-0.02,0.71
			c-0.12,0.45-0.4,0.84-0.55,1.28c-0.03,0.11-0.07,0.21-0.1,0.32c-0.33,0.67-0.56,1.41-0.65,1.96l0,0.01
			c-0.13,0.4-0.26,0.8-0.38,1.21c0.07,0.13,0.25,0.57,0.41,0.68c0.16-0.25,0.13-0.58,0.36-0.84c0.03-0.03,0.06-0.06,0.09-0.09
			c0.03-0.01,0.06-0.04,0.09-0.06c0.05,0.15,0.09,0.3,0.09,0.44c0,0.01,0.01,0.03,0.01,0.04c0,0.01,0,0.02,0.01,0.03
			c0.02,0.47-0.1,0.91-0.18,1.34c-0.02,0.09-0.03,0.19-0.05,0.29c-0.01,0.1-0.03,0.2-0.05,0.3c-0.01,0.07-0.02,0.16-0.03,0.25
			c-0.04,0.3-0.06,0.6-0.08,0.92c-0.01,0.1-0.02,0.19-0.01,0.28c0.01,0.46,0.1,0.98,0.21,1.46c-0.05,0.65-0.17,1.24-0.43,1.51
			c-0.25-0.27-0.49-0.55-0.57-0.37c-0.03,0.05-0.04,0.11-0.04,0.15c-0.61-0.83-1.26-2.69-1.73-2.78c-0.03-0.16-0.06-0.3-0.09-0.43
			l-0.01,0c-0.32,0.17-0.32,0.43-0.3,0.7c-0.25,0.44-0.09,1.29,0.27,2.31c0.01,0.02,0.01,0.04,0.02,0.06c0.32,1,0.82,1.96,1.19,2.95
			c0.17,0.47,0.32,0.95,0.52,1.4c0,0.01,0,0.01,0.01,0.02c0.11,0.25,0.23,0.48,0.37,0.7c0.17,0.24,0.37,0.46,0.62,0.65
			c0.03,0.03,0.06,0.05,0.1,0.07c-0.01,0.03-0.01,0.06-0.01,0.09c-0.04,0.24,0,0.52-0.1,0.72c-0.05,0.15-0.16,0.28-0.39,0.34
			c-1.11-0.62-1.83-1.64-2.6-2.61c-0.93-1.58-1.6-3.27-2.17-5.01c-1.1-3.34-0.19-6.42,1.03-9.51c0.02-0.03,0.03-0.06,0.05-0.1
			c0.39-0.61,0.35,4.59,0.94,3.66c0.45-0.71,0.19-4.04,0.93-6.45c0.38-1.23,1.11-2.14,1.77-2.76c0.09-0.09,0.18-0.17,0.27-0.25
			c0.07-0.05,0.13-0.11,0.2-0.16c0.1-0.08,0.21-0.16,0.31-0.24c0.12-0.09,0.23-0.16,0.31-0.22l0.03-0.02
			c0.47-0.27-0.79,1.81-0.26,1.4c0.54-0.41,2.93-3.39,3.44-3.83C63.59,32.7,64.36,31.69,64.75,31.9z"/>
		<path fill="#D96828" d="M59.25,52.42c-0.02,0.03-0.04,0.05-0.06,0.07c-0.06,0.06-0.15,0.08-0.22,0.03
			c-0.1-0.07-0.21-0.18-0.32-0.32c0-0.04,0.01-0.1,0.04-0.15C58.77,51.87,59.01,52.15,59.25,52.42z"/>
		<path fill="#D96828" d="M63.96,39.03c0.05,0.01,0.1,0,0.15,0.01c-0.01,0-0.02,0.01-0.03,0.01C64.03,39.03,63.99,39.03,63.96,39.03
			z"/>
		<path fill="#D96828" d="M63.67,38.99c0.04,0.01,0.09,0.02,0.14,0.02c-0.02,0-0.05-0.01-0.07-0.01L63.67,38.99z"/>
		<path fill="#891A25" d="M65.8,28.47l0.03,0.01c0.54,0.46,0.69,1.1,0.85,1.77c0.36,1.45,0.6,2.91,0.74,4.4
			c0.17,0.32,0.34,0.64,0.5,0.95c-0.65,1.01-1.03,2.23-2.16,2.89c-0.96-1.26-1.41-2.65-1.16-4.25c0.06-0.31-0.02-0.64-0.05-0.95
			c-0.03-0.33,0.49-1.23,0.21-1.38c-0.4-0.21-1.17,0.8-1.37,0.99c-0.51,0.45-2.9,3.43-3.44,3.83c-0.53,0.4,0.73-1.67,0.26-1.4
			l-0.03,0.02c-0.08,0.06-0.19,0.13-0.31,0.22c-0.11,0.07-0.21,0.15-0.31,0.24c-0.06,0.05-0.12,0.11-0.2,0.16
			c-0.09,0.08-0.18,0.16-0.27,0.25c-0.66,0.63-1.38,1.53-1.77,2.76c-0.74,2.41-0.48,5.74-0.93,6.45c-0.59,0.93-0.55-4.27-0.94-3.66
			c-0.02,0.03-0.03,0.06-0.05,0.1c-1.23,3.09-2.14,6.17-1.03,9.51c0.57,1.75,1.24,3.44,2.17,5.01c-2.87-3.42-4.17-7.29-3.56-11.79
			c0.01-0.12,0.09-0.49,0.21-1.01c0.4-1.69,1.33-4.96,2.49-6.53c2.53-3.41,5.82-4.83,7.54-6.18C64.47,29.88,64.93,29.26,65.8,28.47z
			"/>
		<path fill="#C62B33" d="M65.8,28.47c-0.86,0.79-1.33,1.41-2.58,2.4C63.98,29.98,64.93,29.26,65.8,28.47z"/>
		<path fill="#D1A730" d="M64.92,39.49c-0.36,0.62-0.8,0.98-1.22,1.44C64.12,40.48,64.34,40.01,64.92,39.49z"/>
		<path fill="#D1A730" d="M63.96,39.03c0.05,0.01,0.1,0,0.15,0.01c-0.01,0-0.02,0.01-0.03,0.01C64.03,39.03,63.99,39.03,63.96,39.03
			z"/>
		<path fill="#D1A730" d="M63.67,38.99c0.04,0.01,0.09,0.02,0.14,0.02c-0.02,0-0.05-0.01-0.07-0.01L63.67,38.99z"/>
		<path d="M65.91,26.14c-0.16,0.96-0.57,1.55-1.17,2.4c-0.21,0.36-2.12,1.77-3.39,2.56c-0.04,0.07-0.36,0.26-0.51,0.37
			c-0.19,0.14-0.32,0.23-0.53,0.35c-2.86,1.78-5.46,3.85-6.89,7c-0.52,1.13-1.49,3.66-1.67,6.11c-0.18,2.44,0.42,4.8,0.59,5.4
			c1.09,3.89,3.65,6.78,6.32,9.61c0.12,0.13,0.23,0.23,0.39,0.15c0.17-0.07,0.2-0.23,0.18-0.4c-0.03-0.24-0.08-0.47-0.11-0.71
			c-1.11-0.62-1.83-1.64-2.6-2.61c-2.87-3.42-4.17-7.29-3.56-11.79c0.01-0.12,0.09-0.49,0.21-1.01c0.4-1.69,1.33-4.96,2.49-6.53
			c2.53-3.41,5.82-4.83,7.54-6.18c1.26-0.99,1.72-1.61,2.58-2.4c0.02-0.05,0.04-0.08,0.06-0.12c-0.01,0.04-0.02,0.08-0.03,0.13
			c0.54,0.46,0.69,1.1,0.85,1.77c0.36,1.45,0.6,2.91,0.74,4.4c0.94-0.35,0.5-1.11,0.51-1.73c0.08-2.36-1.6-4.38-1.27-6.79
			c0.02-0.21-0.03-0.52-0.36-0.52C65.98,25.63,65.95,25.91,65.91,26.14z"/>
		<path fill="#D1A730" d="M62.04,38.1c0.42,0.2,0.21,0.7,0.52,0.91c0.12,0.09,0.23,0.25,0.36,0.27c0.02,0.01,0.05,0.02,0.07,0.02
			c0.05-0.01,0.1-0.02,0.16-0.07c0.12-0.1,0.1-0.35,0.14-0.54c0.01,0.03,0.03,0.05,0.05,0.07c0.01,0.03,0.02,0.04,0.05,0.06
			c0.05,0.04,0.09,0.08,0.15,0.11c0.05,0.02,0.09,0.03,0.13,0.05l0.07,0.02c0.02,0,0.05,0.01,0.07,0.01
			c0.05,0.01,0.1,0.01,0.15,0.02c0.04,0,0.07,0.01,0.12,0.01c0.01,0,0.02,0,0.03-0.01c0.1,0.01,0.2,0.01,0.31,0.03
			c0.09,0.02,0.18,0.05,0.25,0.1c0.04,0.02,0.07,0.05,0.11,0.09c0.03,0.03,0.06,0.07,0.09,0.11c0.02,0.04,0.04,0.08,0.06,0.13
			c-0.58,0.51-0.8,0.98-1.22,1.44c-1.94,2.11-2.52,4.8-3.16,7.44c-0.39,1.59,0.56,3.02,0.94,4.49c0.34,1.33,1.1,2.45,1.99,3.51
			c0.41,0.49,1.12,0.86,0.77,1.79c-0.14,0.37,0.47,0.68,0.77,0.99c0.13,0.12,0.4,0.27,0.52,0.2c0.24-0.11,0.18-0.38,0.11-0.61
			c-0.23-0.85-0.43-1.7-0.65-2.54c-0.03-0.99-0.35-1.96-0.22-2.97c-0.07-1.72,0.96-3.27,0.72-5.02c0.02,0.05,0.03,0.09,0.06,0.14
			c0.2,0.43,0.69,1.03,1.08,0.96c0.35-0.06,0.62-0.99,0.75-0.66c0.36,0.9-0.39,3.58-0.6,4.63c-0.19,0.91-0.08,1.89-0.1,2.84
			c0,0.36-0.04,0.75,0.44,0.85c0.21,0.35,0.42,0.7,0.63,1.06c-0.21,1.35-0.61,2.68-0.56,4.06c-0.76,0.28-0.98-0.32-1.22-0.81
			c-0.94-1.88-1.7-2.81-2.67-2.28c-0.48,0.26-0.28-1.53-0.98-1.88c-0.52-0.25-0.58,0.86-0.9,0.57c-0.85-0.77-1.21-0.36-1.8,0.13
			c-0.04-0.02-0.07-0.04-0.1-0.07c-0.67-1.38-2.03-3.82-2.71-5.71c-0.01-0.02-0.01-0.04-0.02-0.06c-0.37-1.01-0.53-1.86-0.27-2.31
			c0.06-0.12,0.17-0.21,0.3-0.26c0.03-0.01,0.06-0.01,0.1-0.01c0.47,0.09,1.12,1.95,1.73,2.78c0.11,0.14,0.22,0.25,0.32,0.32
			c0.07,0.04,0.16,0.02,0.22-0.03c0.02-0.02,0.05-0.04,0.06-0.07c0.26-0.27,0.38-0.86,0.43-1.51c0.12-1.13,0.02-2.5,0.06-3
			c0.04-0.54,0.23-1.23,0.14-1.77c-0.01-0.03-0.01-0.05-0.01-0.08c0-0.01,0-0.02-0.01-0.03c0.1-0.25,0.15-0.55,0.16-0.81
			c0-0.12-0.11-0.2-0.22-0.17c-0.01,0-0.02,0-0.03,0.01c-0.06,0.01-0.12,0.07-0.13,0.12c-0.02,0.09-0.03,0.23-0.05,0.41
			c-0.29-0.07-0.63,0.74-0.4-0.93l0-0.01c0.09-0.56,0.31-1.29,0.65-1.96c0.27-0.58,0.61-1.09,0.97-1.43
			c0.17-0.15-0.08-0.4-0.25-0.25c-0.02,0.02-0.05,0.04-0.06,0.07c0.06-0.22,0.07-0.46,0.02-0.71C60.97,39.58,61.18,38.61,62.04,38.1
			z"/>
		<path fill="#D1A730" d="M59.25,52.42c-0.02,0.03-0.04,0.05-0.06,0.07c-0.06,0.06-0.15,0.08-0.22,0.03
			c-0.1-0.07-0.21-0.18-0.32-0.32c0-0.04,0.01-0.1,0.04-0.15C58.77,51.87,59.01,52.15,59.25,52.42z"/>
		<path fill="#D1A730" d="M56.82,52.06c0.68,1.89,2.04,4.33,2.71,5.71c-0.25-0.19-0.45-0.41-0.62-0.65
			c-0.15-0.22-0.27-0.45-0.37-0.7c0-0.01,0-0.01-0.01-0.02c-0.2-0.45-0.34-0.93-0.52-1.4C57.64,54.02,57.13,53.06,56.82,52.06z"/>
		<path fill="#D1A730" d="M56.82,49.01l0-0.01c0.03,0.13,0.06,0.27,0.09,0.43c-0.04,0-0.07-0.01-0.1,0.01
			c-0.13,0.05-0.24,0.15-0.3,0.26C56.5,49.43,56.5,49.17,56.82,49.01L56.82,49.01z"/>
		<path fill="#D1A730" d="M59.88,46.07c0,0.02,0,0.04,0.01,0.08c0.09,0.54-0.11,1.23-0.14,1.77c-0.04,0.5,0.06,1.86-0.06,3
			c-0.1-0.48-0.2-1-0.21-1.46c0-0.09,0-0.18,0.01-0.28c0.01-0.32,0.04-0.62,0.08-0.92c0.01-0.09,0.03-0.18,0.03-0.25
			c0.01-0.1,0.03-0.2,0.05-0.3c0.02-0.1,0.03-0.2,0.05-0.29C59.78,46.97,59.9,46.54,59.88,46.07z"/>
		<path fill="#D1A730" d="M59.65,45.18c0.01-0.05,0.07-0.11,0.13-0.12c0.01,0,0.02-0.01,0.03-0.01c0.11-0.03,0.23,0.06,0.22,0.17
			c-0.01,0.26-0.07,0.55-0.16,0.81c0-0.01-0.01-0.03-0.01-0.04c0-0.15-0.04-0.29-0.09-0.44c-0.03,0.02-0.06,0.05-0.09,0.06
			c-0.03,0.03-0.06,0.06-0.09,0.09c-0.23,0.26-0.21,0.59-0.36,0.84c-0.15-0.11-0.33-0.55-0.41-0.68c0.13-0.41,0.25-0.81,0.38-1.21
			c-0.23,1.67,0.11,0.87,0.4,0.93C59.62,45.41,59.64,45.27,59.65,45.18z"/>
		<path fill="#D1A730" d="M60.57,41.01c0.18-0.16,0.42,0.09,0.25,0.25c-0.36,0.33-0.7,0.85-0.97,1.43c0.03-0.11,0.07-0.21,0.1-0.32
			c0.15-0.44,0.43-0.83,0.55-1.28C60.52,41.05,60.54,41.04,60.57,41.01z"/>
		<polygon fill="#D1A730" points="56.82,49 56.83,48.99 56.82,49.01 		"/>
		<path d="M98.26,76.98c0.01,0,0-0.01,0.01-0.02l0-0.01l-0.01,0C98.26,76.95,98.26,76.97,98.26,76.98z"/>
		<path fill="#2B4F74" d="M85.67,84.93c0.06,0.06,0.11,0.12,0.16,0.18c0.03,0.07,0.04,0.14,0.06,0.2c0.02,0.07,0.03,0.13,0.06,0.2
			c0,0.01,0.02,0.02,0.04,0.02c0.04,0.01,0.07,0.01,0.07,0.01c1.82-0.6,3.68-0.77,5.61-0.72c1.91,0.04,3.67,0.6,5.44,1.09
			c1.72,0.48,3.53,1,4.58,2.73c0.18,0.29,0.46,0.67,0.95,0.44l0.02-0.01c0.39,0.64,0.02,1.27-0.1,1.92c0.23-0.05,0.42-0.1,0.61-0.14
			c0.01,0.9,0.11,1.82,0.01,2.71c-0.43,3.54-2.31,5.22-6.02,5.25c2.42-0.87,2.94-2.9,3.15-5.12c0.07-0.71-0.06-1.38-0.53-1.91
			c-1.77-1.97-3.59-3.84-6.66-3.29c-2.68,0.47-5.27,1.19-7.71,2.37c-0.93,0.46-1.79,1.02-2.38,1.91c-1.04-0.68-0.08-1.12,0.19-1.67
			c0.74-1.52,1.48-3.06,1.05-4.85C84.45,85.5,85.11,85.26,85.67,84.93z"/>
		<path fill="#5492A3" d="M94.18,80.32c0.22,0.06,0.41,0.12,0.6,0.17c0.15,0.05,0.31,0.1,0.46,0.14c1.24,0.38,2.42,0.82,3.54,1.44
			c1.24,0.67,2.33,1.63,3.09,2.91c0.36,0.6,0.65,1.26,0.84,2.01c-0.43-0.52-0.79-0.93-1.13-1.35c-0.18-0.22-0.37-0.48-0.63-0.1
			c-0.18,0.26-0.15,0.61,0.15,0.7c1.17,0.35,1.2,1.4,1.51,2.29c0.05,0.31,0.06,0.46,0.04,0.53l0,0.01l-0.01,0
			c-0.03,0.02-0.11-0.14-0.23-0.42c-0.71-1.4-2.01-2.32-2.91-3.57c-1.53-1.64-3.12-3.17-5.54-3.31c0.22,0.08,0.44,0.17,0.65,0.26
			c0.22,0.08,0.43,0.18,0.63,0.28c0.09,0.04,0.19,0.09,0.27,0.13c0.37,0.19,0.73,0.39,1.06,0.62c0.16,0.09,0.31,0.19,0.45,0.3
			c0.19,0.12,0.37,0.26,0.55,0.41c0.36,0.28,0.71,0.59,1.04,0.9c0.19,0.19,0.38,0.38,0.56,0.58c0.24,0.31,0.49,0.62,0.74,0.94
			c-4.59-1.89-9.23-2.25-14.01-1.43c-0.04-0.03-0.09-0.08-0.13-0.12c-0.29-0.5-0.5-1.04,0.1-1.43c0.65-0.44,0.62-1,0.43-1.63
			C88.72,79.86,91.32,79.52,94.18,80.32z"/>
		<path d="M97.5,76.58L97.5,76.58L97.5,76.58L97.5,76.58z M94.14,76L94.14,76l0-0.01L94.14,76L94.14,76z"/>
		<path d="M95.74,75.92c0.01,0,0.01,0,0.02-0.01l-0.01,0L95.74,75.92L95.74,75.92z"/>
		<path d="M102.44,84.12c0.07,0.11,0.13,0.21,0.19,0.32c-0.01-0.04-0.03-0.07-0.05-0.11c-0.18-0.31-0.41-0.65-0.69-1
			c-0.46-0.58-1.04-1.18-1.65-1.7C101.13,82.42,101.93,83.34,102.44,84.12z M102.76,84.69c-0.01-0.03-0.02-0.05-0.04-0.08l-0.1-0.17
			C102.68,84.52,102.72,84.61,102.76,84.69z"/>
		<path fill="#4A7189" d="M98.26,76.98c0.01,0,0-0.01,0.01-0.02l0-0.01l-0.01,0C98.26,76.95,98.26,76.97,98.26,76.98z M97.5,76.58
			L97.5,76.58L97.5,76.58L97.5,76.58z"/>
		<path fill="#4A7189" d="M108.02,83.65c-0.94-1.07-2.27-2.05-2.98-2.67C105.91,81.78,107.08,82.86,108.02,83.65z"/>
		<path fill="#5492A3" d="M89.25,77.08c0.3-0.15,0.58-0.29,0.87-0.45c0.03,0.02,0.21-0.02,0.23-0.02c0.03,0.01,0.09-0.05,0.11-0.04
			c0.01,0,0.03,0.01,0.04,0c0.04,0,0.08,0,0.12-0.01c0.14-0.03,0.27-0.13,0.41-0.2c0.15-0.03,0.43-0.15,0.76-0.18
			c0.21-0.02,0.43-0.04,0.64-0.04c-0.7,1.21-2.05,1.14-3.16,1.57C89.28,77.49,89.26,77.28,89.25,77.08z"/>
		<path d="M85.91,84.77c4.78-0.82,9.42-0.47,14.01,1.43c-0.25-0.32-0.49-0.63-0.73-0.94l0.31-0.18c0.9,1.25,2.2,2.17,2.91,3.57
			c0.11,0.28,0.19,0.44,0.23,0.42c-0.49,0.23-0.77-0.15-0.95-0.44c-1.05-1.73-2.86-2.24-4.58-2.73c-1.77-0.49-3.53-1.04-5.44-1.09
			c-1.94-0.05-3.79,0.13-5.61,0.72c0,0-0.03,0.01-0.07-0.01c-0.3,0.01-1.55,0.04-1.71,0.7c-0.42-0.09-0.53-0.32-0.26-0.66
			C84.46,85.02,85.87,84.74,85.91,84.77z"/>
		<path d="M88.4,76.9c0.31,0.34,0.61,0.04,0.85,0.18c0.3-0.15,0.58-0.29,0.87-0.45c0.03,0.02,0.21-0.02,0.23-0.02
			c0.03,0.01,0.09-0.05,0.11-0.04c0.01,0,0.03,0.01,0.04,0c0.04,0,0.08,0,0.12-0.01c0.14-0.03,0.27-0.13,0.41-0.2
			c0.15-0.03,0.43-0.15,0.76-0.18c0.21-0.02,0.43-0.04,0.64-0.04c-0.7,1.21-2.05,1.14-3.16,1.57c-1.09,0.73-1.52,2.26-3.07,2.48
			c-0.36,0.04-1.09,0.06-0.82,0.68c0.23,0.5,0.67-0.16,1.03-0.13c0.04,0,0.1,0.04,0.14,0.07c0.02,0.01,0.04,0.02,0.05,0.03
			c0.01,0.05,0,0.09-0.01,0.12c-0.03,0.11-0.14,0.17-0.22,0.25c-0.12,0.1-0.42,0.19-0.07,0.38c2.41-1.73,5.01-2.07,7.86-1.28
			c0.22,0.06,0.41,0.12,0.6,0.17c0.15,0.05,0.31,0.1,0.46,0.14c1.24,0.38,2.42,0.82,3.54,1.44c1.24,0.67,2.33,1.63,3.09,2.91
			c0.67,0.86,1.17,1.74,1.42,2.44c0.17,0.5,0.23,0.8,0.24,1.53c-0.02,0.82-0.76,1.8-0.96,2.03c0.23-0.05,0.42-0.1,0.61-0.14
			c1.12-1.04,0.9-2.41,0.81-3.69c-0.07-1.09-0.35-2.17-0.82-3.18c1.41,1.52,1.91,3.27,1.43,5.33c0.62-0.85,0.75-1.75,0.59-2.68
			c0,0,0,0,0-0.01c-0.02-0.14-0.05-0.27-0.09-0.4c-0.53-1.99-1.74-3.45-3.54-4.43c-0.59-0.33-1.19-0.67-1.69-1.11
			c-1.46-1.28-3.06-1.83-5.06-1.51c-1.41,0.23-2.91-0.04-4.41-0.19c1.01-0.61,1.94-1.39,3.24-1.36c1.02,0.02,2.09,0.2,3.09,0.09
			c0.04,0.01,0.08,0.02,0.12,0.03c0.25,0.04,0.37-0.03,0.84,0.05c0.58,0.09,0.61,0.11,0.9,0.18c0.01,0,0.02,0,0.03,0.01
			c0.1,0.02,0.24,0.05,0.44,0.1c0.62,0.05,3.34,1.28,4.41,2.24c0.96,0.86,1.47,0.99,2.08,1.57c1.15,1.31,2.77,1.93,2.81,3.73
			c0.01,0.16,0,0.32-0.02,0.51c-0.02,0.17,0.02,0.42,0.17,0.38c1.31-0.41,0.91,0.87,1,1.23c0.04,0.17,0.08,0.34,0.11,0.51
			c0.02,0.12,0.04,0.24,0.06,0.37c0.38,2.05,0.35,4.15,0.37,6.24c0.01,0.95-1.06,3.02-2.18,4.43c-0.72,0.89-1.58,1.35-1.85,1.62
			c-1.51,1.45-2.96,1.73-4.85,1.66c-0.53-0.02-1.03-0.31-1.47-0.68c-0.13-0.1-0.26-0.22-0.39-0.34c0.18,1.22,1.27,1.58,3.82,1.42
			c1.64-0.11,2.53-1.48,3.82-2.18c-1.3,2.63-3.16,4.48-6.28,4.69c-1.42,0.09-2.85,0.41-3.8-1.03c-0.08-0.1-0.15-0.21-0.22-0.35
			c-0.13,0.5,0.02,0.86-0.73,0.68c-3.13-0.78-5.18-2.72-6.55-5.53c-0.08-0.16-0.26-0.29-0.39-0.43c-0.07-0.11-0.14-0.21-0.2-0.32
			c-0.6-0.96-0.96-2.09-1.03-3.14c-0.09-1.04,1.75-2.93,1.65-2.19c-0.03,0.17-0.43,0.74-0.61,1.12c-0.06,0.13-0.1,0.23-0.1,0.3
			c0.08,0.7,0.49-0.2,1.32-1.07c0.37-0.4,0.42-0.43,0.9-0.89c0.92-0.85,3.28-1.04,2.54-0.52c-0.31,0.22-1,0.26-1.29,0.36
			c-0.03,0.01-0.05,0.02-0.07,0.03c-0.39,0.21-0.43,0.86-0.22,0.67c0.12-0.09,0.24-0.18,0.36-0.26l0.03-0.01
			c1.07-0.64,2.29-0.6,3.65,0.93c-1.03,0.95-1.28,2.22-0.69,3.5c0.18,0.4,0.34,0.81,0.51,1.2c0.5,0.11,0.99,0.22,1.48,0.32
			c2.42-0.87,2.94-2.9,3.15-5.12c0.07-0.71-0.06-1.38-0.53-1.91c-1.77-1.97-3.59-3.84-6.66-3.29c-2.68,0.47-5.27,1.19-7.71,2.37
			c-0.93,0.46-1.79,1.02-2.38,1.91c0.43,0.27,0.68-0.09,0.92-0.31c0.79-0.77,3.77-1.84,4.68-2.18c2.45-0.93,4.87-0.84,7.34-0.17
			c1.94,0.52,3.43,2.54,3.09,4.52c-0.16,0.97-0.58,1.92-1.44,2.52c-0.56,0.39-1.21,0.41-1.53-0.27c-0.24-0.52-0.57-1.3,0.42-1.51
			c0.55-0.13,0.45-0.47,0.44-0.81c-0.04-1.19-1.42-2.76-2.62-3.09c-1.1-0.31-2.11,0.06-3.15,0.26c-2.59,0.5-3.65,1.49-4.12,4.06
			c-0.46,2.48,1.91,6.81,4.07,8.12c2.95,1.76,7.75,2.78,9.07,2.62c0.9-0.11,4.19-0.79,5.05-1.41c3.67-2.62,6.48-5.83,7.41-10.48
			c0.98-4.9-2.11-10.19-5.7-13.93c-0.36-0.38-1.14-0.93-1.54-1.3c-1.37-1.22-6.5-4.1-8.47-4.39c-0.95-0.14-4.1,0.15-4.96,0.26
			c-0.07,0-0.13,0.02-0.18,0.02c-0.45,0.07-0.5,0.2-1.01,0.57l-1.3,0.43C89.1,76.33,88.76,76.6,88.4,76.9z M96.16,79.69
			c0.25,0.01,0.94,0.14,1.16,0.18c0.79,0.14,1.82,0.8,2.78,1.64c0.04,0.03,0.09,0.08,0.14,0.12c0.61,0.51,1.2,1.12,1.65,1.7
			c0.29,0.34,0.51,0.69,0.69,1c0.02,0.03,0.04,0.07,0.05,0.11l0.1,0.17c0.02,0.03,0.03,0.05,0.04,0.08
			c0.01,0.03,0.02,0.06,0.04,0.08c0.05,0.11,0.09,0.21,0.11,0.32c0,0.01,0,0.01,0,0.02c0.02,0.07,0.03,0.13,0.03,0.19
			c-1.27-0.86-2.89-2.87-4.33-3.73c-0.12-0.06-0.23-0.12-0.34-0.17c0-0.01-0.02-0.01-0.04-0.02c-0.05-0.02-0.13-0.06-0.26-0.12
			c-0.05-0.02-0.11-0.04-0.18-0.07c-0.97-0.4-3.19-1.24-3.22-1.3L96.16,79.69z M87.89,98.53c0.86,1.71,2.06,3.14,3.35,4.51
			C89.32,102.12,88.69,100.27,87.89,98.53z M110.89,88.96c0.04,0.08-0.01,0.34,0,0.43c0.02,0.09,0.02,0.17,0.04,0.23
			c0.02,0.04,0.06,0.07,0.1,0.08c0.01,0,0.04,0,0.07,0c0.47-0.09,0.22-0.71,0.18-1.12c-0.03-0.17-0.02-0.34,0.04-0.5
			c1.35,2.44,1.21,4.74,0.54,7.02c-0.07,0.26-0.16,0.51-0.24,0.77c-0.26,0.77-0.56,1.54-0.89,2.31l-0.01,0.02
			c-0.02,0.05-0.06,0.17-0.14,0.31c-0.01,0.02-0.02,0.05-0.05,0.07c-0.09,0.19-0.25,0.58-0.4,0.81c-0.07,0.1-0.46,0.61-0.53,0.74
			c-0.97,1.59-3.03,3.49-4.9,4.36c0.03-0.05,0.29-0.28,0.32-0.32c0.09-0.14,0.29-0.37,0.48-0.58c0.07-0.08,0.14-0.16,0.2-0.24
			c0.08-0.08,0.15-0.16,0.19-0.23c0.57-0.78,0.45-0.62,0.96-1.44c0.08-0.13,0.32-0.85,0.67-1.41c0.25-0.38,0.65-0.63,0.73-0.7
			c0.12-0.11,0.47-0.52,0.77-0.89c0.04-0.05,0.08-0.1,0.12-0.15c0.05-0.06,0.09-0.12,0.15-0.18c0.01,0,0.64-1.11,0.64-1.12
			c0.02-0.06,0.03-0.12,0.06-0.18c0.04-0.15,0.09-0.3,0.13-0.45c0.26-0.94,0.43-1.97,0.38-2.98c-0.08-1.42-0.12-2.9-0.01-4.34
			c0-0.1,0.02-0.22,0.02-0.32c-0.18-0.42-0.32-0.84-0.26-1.33c0.07,0.05,0.13,0.11,0.18,0.17
			C110.78,88.13,110.92,88.51,110.89,88.96z M93.86,76.14c0.05-0.02,0.1-0.03,0.14-0.07c0.06-0.02,0.1-0.05,0.14-0.07l0-0.01l0.01,0
			l0.14,0c0.04-0.01,0.08-0.02,0.12-0.03c0.12-0.03,0.24-0.07,0.36-0.09c0.16-0.03,0.31-0.07,0.45-0.1
			c0.13-0.03,0.25-0.05,0.33-0.07c0.03-0.01,0.05-0.02,0.07-0.02c0.39-0.07,0.9-0.05,1.46,0.07c1.24,0.23,2.76,0.86,3.94,1.55
			c0.01,0,0.03,0.02,0.04,0.02c1.48,0.72,2.75,1.46,3.09,1.68c0.09,0.06,0.19,0.13,0.29,0.2c0.13,0.1,0.28,0.21,0.43,0.33
			c0.01,0,0.01,0,0,0.01c0.1,0.07,0.19,0.16,0.29,0.24c0.36,0.28,0.73,0.61,1.1,0.96c0.38,0.34,0.75,0.7,1.1,1.07l0,0.01
			c0.33,0.33,0.64,0.66,0.9,0.98c0.16,0.18,0.37,0.45,0.6,0.75c0.05,0.06,0.1,0.14,0.15,0.21l0.02,0.04
			c0.7,0.95,1.47,2.11,1.45,2.37c0.76,1.91-0.17,1.63-1.65-1.35c-0.19-0.4-0.48-0.79-0.82-1.18c-0.93-0.79-2.11-1.87-2.98-2.67
			c-0.07-0.05-0.13-0.1-0.18-0.15c-0.13-0.1-0.25-0.2-0.36-0.31c-0.26-0.22-0.46-0.39-0.6-0.49c-0.64-0.5-0.98-0.56-1.64-1.04
			c-0.62-0.34-1.05-0.56-1.5-0.77c-0.38-0.16-0.77-0.32-1.15-0.49c0,0,0,0-0.01,0c-0.96-0.4-1.91-0.75-2.69-0.81
			c-0.02-0.04-4.74,0.32-4.76,0.28c0,0,1.34-0.82,1.69-1.05C93.85,76.15,93.85,76.15,93.86,76.14z M89.72,78.96
			c-0.24,0.3-0.66,0.36-0.84,0.16c-0.32-0.36,0.04-0.69,0.34-0.84c0.41-0.22,0.88-0.33,1.53-0.55
			C90.32,78.25,90.01,78.61,89.72,78.96z"/>
		<path fill="#2B4F74" d="M94.57,79.89l1.59-0.2c0.25,0.01,0.94,0.14,1.16,0.18c0.79,0.14,1.82,0.8,2.78,1.64
			c0.04,0.03,0.09,0.08,0.14,0.12c0.9,0.79,1.7,1.72,2.2,2.49c0.07,0.11,0.13,0.21,0.19,0.32c0.05,0.09,0.09,0.18,0.13,0.26
			c0.01,0.03,0.02,0.06,0.04,0.08c0.05,0.11,0.09,0.21,0.11,0.32c0,0.01,0,0.01,0,0.02c0.02,0.07,0.03,0.13,0.03,0.19
			c-1.27-0.86-2.89-2.87-4.33-3.73c-0.12-0.06-0.23-0.12-0.34-0.17c0-0.01-0.02-0.01-0.04-0.02c-0.05-0.02-0.13-0.06-0.26-0.12
			c-0.05-0.02-0.11-0.04-0.18-0.07C96.81,80.79,94.6,79.95,94.57,79.89z"/>
		<polygon points="95.74,75.91 95.75,75.91 95.74,75.92 		"/>
		<path d="M95.75,75.91l0.01,0c-0.01,0-0.01,0-0.02,0.01L95.75,75.91z"/>
		<path d="M65.92,44.82c0.01,0,0.03,0.02,0.05,0.03c0.22,0.17,0.17,0.38,0.07,0.63c-0.12,0.36-0.51,0.87-0.47,1.22
			c0.04,0.36,0.2,1.29,0.35,1.63c0.18,0.4,0.86,0.9,1.39-0.2c0.15-0.24,0.12-0.93,0.31-1.14c0.26-0.3,0.65-0.41,0.97-0.22
			c0.03,0.02,0.06,0.05,0.08,0.06c0.26,0.26-0.36,0.58-0.43,0.83c-0.53,2.19-1.09,4.57-1.16,6.75c-0.02,0.82,0.44,1.5,0.19,2.25
			c-0.04,0.11-0.1,0.22-0.16,0.32c-0.48-0.11-0.44-0.5-0.44-0.85c0.03-0.95-0.09-1.93,0.1-2.84c0.22-1.05,0.96-3.73,0.6-4.63
			c-0.13-0.33-0.4,0.59-0.75,0.66c-0.39,0.07-0.89-0.53-1.08-0.96c-0.03-0.05-0.04-0.09-0.06-0.14c0.24,1.75-0.79,3.3-0.72,5.02
			c-0.08,0.01-0.13,0.01-0.19,0.01c-0.55-0.01-0.15-0.56-0.04-1.09c0.19-0.86,0.48-1.58,0.66-2.44c0.17-0.8,0.22-1.66-0.11-2.4
			c-0.19-0.44-0.51-0.9,0.1-1.78C65.31,45.34,65.69,44.75,65.92,44.82z"/>
		<path fill="#C62B33" d="M65.85,28.34c-0.01,0.04-0.02,0.08-0.03,0.13l-0.03-0.01C65.82,28.42,65.84,28.38,65.85,28.34z"/>
		<path fill="#5492A3" d="M93.62,77.61c1.02,0.02,2.09,0.2,3.09,0.09c0.04,0.01,0.08,0.02,0.12,0.03c0.25,0.04,0.37-0.03,0.84,0.05
			c0.58,0.09,0.61,0.11,0.9,0.18c0.01,0,0.02,0,0.03,0.01c0.1,0.02,0.24,0.05,0.44,0.1c0.62,0.05,3.34,1.28,4.41,2.24
			c0.96,0.86,1.47,0.99,2.08,1.57c1.15,1.31,2.77,1.93,2.81,3.73c0.01,0.16,0,0.32-0.02,0.51c-0.02,0.17,0.02,0.42,0.17,0.38
			c1.31-0.41,0.91,0.87,1,1.23c0.04,0.17,0.08,0.34,0.11,0.51c0.02,0.12,0.04,0.24,0.06,0.37c0.03,0.18,0.05,0.35,0.06,0.53
			c0.02,0.13,0.02,0.25,0.02,0.38c0,0.01,0,0.02,0,0.04c0.07,1.74-0.35,3.51-0.3,5.29c0.03,1.04-2.58,4.86-3.49,5.73
			c-1.54,1.45-3.05,1.84-4.94,1.78c-0.51-0.02-0.93-0.18-1.34-0.47c-0.13-0.1-0.26-0.22-0.39-0.34c0.18,1.22,1.27,1.58,3.82,1.42
			c1.64-0.11,2.53-1.48,3.82-2.18c-1.52,2.31-3.5,3.84-6.47,4.14c-1.47,0.14-2.78,0.66-3.61-0.48c-0.08-0.1-0.15-0.21-0.22-0.35
			c-0.13,0.5,0.02,0.86-0.73,0.68c-3.13-0.78-5.18-2.72-6.55-5.53c-0.08-0.16-0.26-0.29-0.39-0.43c0.4-0.39-0.18-0.93,0.35-1.5
			c0.22,2.34,1.8,3.64,3.26,5.02c1.25,1.19,4.6,1.64,5.99,0.87c0.19-0.11,0.36-0.22,0.27-0.45c-0.06-0.16-0.22-0.17-0.4-0.18
			c-1.53-0.03-3.04-0.24-4.51-0.69c-1.52-0.47-2.86-1.79-2.96-3.09c1.27,2.18,3.43,1.97,5.45,2.25c-1.42-0.52-1.95-1.85-2.82-2.85
			c-0.17-0.19-0.41-0.49-0.13-0.74c0.31-0.28,0.46,0.1,0.66,0.27c0.46,0.42,0.82,1.03,1.6,0.79c0.5,0.11,0.99,0.22,1.48,0.32
			c3.71-0.04,5.59-1.71,6.02-5.25c0.11-0.89,0-1.8-0.01-2.71c1.12-1.04,0.9-2.41,0.81-3.69c-0.07-1.09-0.35-2.17-0.82-3.18
			c1.41,1.52,1.91,3.27,1.43,5.33c0.76-0.35,0.79-1.64,0.59-2.68c0,0,0,0,0-0.01c-0.02-0.14-0.05-0.27-0.09-0.4
			c-0.53-1.99-1.74-3.45-3.54-4.43c-0.59-0.33-1.19-0.67-1.69-1.11c-1.46-1.28-3.06-1.83-5.06-1.51c-1.41,0.23-2.91-0.04-4.41-0.19
			C91.39,78.36,92.32,77.59,93.62,77.61z"/>
		<path fill="#5492A3" d="M109.71,89.53c0.13,1.74-0.07,3.5-0.01,5.27c0.03,1.04-2.87,4.88-3.78,5.74c0.91-0.86,3.52-4.68,3.49-5.73
			C109.35,93.05,109.78,91.28,109.71,89.53z"/>
		<path fill="#5492A3" d="M105.17,86.62c0.21,1.03,0.17,2.33-0.59,2.68C105.21,88.45,105.34,87.55,105.17,86.62z"/>
		<path fill="#B2BCC8" d="M89.34,93.13c-0.03,0.17-0.43,0.74-0.61,1.12c-0.06,0.13-0.1,0.23-0.1,0.3c0.08,0.7,0.49-0.2,1.32-1.07
			c0.37-0.4,0.42-0.43,0.9-0.89c0.92-0.85,3.28-1.04,2.54-0.52c-0.31,0.22-1,0.26-1.29,0.36c-0.03,0.01-0.05,0.02-0.07,0.03
			c-0.39,0.21-0.43,0.86-0.22,0.67c0.12-0.09,0.24-0.18,0.36-0.26l0.03-0.01c1.07-0.64,2.29-0.6,3.65,0.93
			c-1.03,0.95-1.28,2.22-0.69,3.5c0.18,0.4,0.34,0.81,0.51,1.2c-0.78,0.23-1.14-0.37-1.6-0.79c-0.2-0.17-0.35-0.55-0.66-0.27
			c-0.27,0.25-0.03,0.55,0.13,0.74c0.88,1,1.4,2.33,2.82,2.85c-2.02-0.27-4.18-0.07-5.45-2.25c0.1,1.3,1.44,2.62,2.96,3.09
			c1.47,0.44,2.97,0.66,4.51,0.69c0.17,0,0.34,0.01,0.4,0.18c0.09,0.24-0.08,0.34-0.27,0.45c-1.39,0.78-4.74,0.32-5.99-0.87
			c-1.46-1.38-3.04-2.68-3.26-5.02c-0.53,0.57,0.05,1.11-0.35,1.5c-0.07-0.11-0.14-0.21-0.2-0.32c-0.6-0.96-0.96-2.09-1.03-3.14
			C87.6,94.28,89.44,92.39,89.34,93.13z"/>
		<path fill="#B8B8B7" d="M87.89,98.53c0.86,1.71,2.06,3.14,3.35,4.51C89.32,102.12,88.69,100.27,87.89,98.53z"/>
		<path fill="#4A7189" d="M98.26,76.94l0.01,0l0,0.01c-0.01,0,0,0.01-0.01,0.02C98.26,76.97,98.26,76.95,98.26,76.94z"/>
		<polygon points="102.65,89.07 102.65,89.07 102.66,89.06 		"/>
		<path d="M102.41,88.65l0.24,0.42l-0.01,0C102.6,89.09,102.52,88.93,102.41,88.65z"/>
		<path d="M93.96,81.77c2.42,0.13,4.01,1.67,5.54,3.31l-0.31,0.18c-0.18-0.2-0.37-0.39-0.57-0.57c-0.33-0.32-0.68-0.63-1.04-0.9
			c-0.17-0.14-0.36-0.28-0.55-0.41c-0.14-0.1-0.29-0.2-0.45-0.3c-0.33-0.22-0.69-0.43-1.06-0.62c-0.08-0.04-0.18-0.09-0.27-0.13
			c-0.21-0.1-0.41-0.2-0.63-0.28C94.4,81.94,94.18,81.86,93.96,81.77z"/>
		<path fill="#2B4F74" d="M102.63,84.43l0.1,0.17c0.02,0.03,0.03,0.05,0.04,0.08C102.72,84.61,102.68,84.52,102.63,84.43z"/>
		<path fill="#2B4F74" d="M100.23,81.63c0.61,0.51,1.2,1.12,1.65,1.7c0.29,0.34,0.51,0.69,0.69,1c0.02,0.03,0.04,0.07,0.05,0.11
			c-0.06-0.1-0.12-0.21-0.19-0.32C101.93,83.34,101.13,82.42,100.23,81.63z"/>
		<path d="M96.06,80.92c0.69,0.26,1.33,0.54,2.16,0.93c1.4,0.66,2.7,1.88,3.65,3.14c-0.76-1.27-1.84-2.23-3.09-2.91
			c-1.12-0.62-2.3-1.06-3.54-1.44C95.52,80.72,95.79,80.83,96.06,80.92z M102.44,84.12c-0.15-0.25-0.34-0.52-0.55-0.79
			c-0.46-0.58-1.04-1.18-1.65-1.7C101.13,82.42,101.93,83.34,102.44,84.12z M102.76,84.69c-0.01-0.03-0.02-0.05-0.04-0.08l-0.1-0.17
			C102.68,84.52,102.72,84.61,102.76,84.69z M108.02,83.65c-0.94-1.07-2.27-2.05-2.98-2.67C105.91,81.78,107.08,82.86,108.02,83.65z
			 M104.59,89.3c0.76-0.35,0.79-1.64,0.59-2.68C105.34,87.55,105.21,88.45,104.59,89.3z M110.73,89c0.04,0.08,0.06,0.16,0.08,0.26
			c0.03,0.11,0.05,0.28,0.13,0.37c-0.02-0.06-0.02-0.14-0.04-0.23c-0.02-0.09,0.04-0.36,0-0.43c0.03-0.45-0.1-0.83-0.44-1.16
			C110.74,88.15,110.77,88.57,110.73,89z M110.73,98.16L110.73,98.16c0.33-0.76,0.64-1.53,0.89-2.3
			C111.35,96.64,111.05,97.4,110.73,98.16z M109.77,99.73c-0.07,0.1-0.14,0.2-0.22,0.28c-0.91,1.83-2.56,2.78-4.07,3.89
			c0.03-0.05,0.07-0.11,0.1-0.15c-0.19,0.14-0.38,0.27-0.56,0.41c-0.03,0.04-0.29,0.27-0.32,0.32c1.86-0.87,3.92-2.78,4.9-4.36
			c0.08-0.13,0.46-0.64,0.53-0.74c0.15-0.24,0.31-0.63,0.4-0.81C110.38,98.81,109.94,99.49,109.77,99.73z"/>
		<path fill="#2B4F74" d="M92.15,77.2c0.02,0.04,4.74-0.32,4.76-0.28c0.78,0.06,1.73,0.41,2.69,0.81c0.01,0,0.01,0,0.01,0
			c0.38,0.16,0.77,0.33,1.15,0.49c0.44,0.21,0.88,0.43,1.5,0.77c0.65,0.48,1,0.54,1.64,1.04c0.13,0.1,0.34,0.27,0.6,0.49
			c0.11,0.11,0.24,0.21,0.36,0.31c0.05,0.05,0.11,0.1,0.18,0.15c0.72,0.62,2.04,1.59,2.98,2.67c0.33,0.39,0.63,0.78,0.82,1.18
			c1.48,2.98,2.41,3.26,1.65,1.35c0.02-0.27-0.75-1.43-1.45-2.37l-0.02-0.04c-0.05-0.07-0.11-0.15-0.15-0.21
			c-0.23-0.31-0.44-0.57-0.6-0.75c-0.26-0.32-0.58-0.65-0.9-0.98l0-0.01c-0.35-0.36-0.73-0.72-1.1-1.07
			c-0.38-0.35-0.75-0.68-1.1-0.96c-0.1-0.08-0.2-0.16-0.29-0.24c0-0.01,0-0.01,0-0.01c-0.15-0.12-0.29-0.24-0.43-0.33
			c-0.1-0.07-0.2-0.14-0.29-0.2c-0.34-0.22-1.61-0.96-3.09-1.68c0-0.01-0.02-0.02-0.04-0.02c-1.17-0.69-2.69-1.32-3.94-1.55
			c-0.56-0.12-1.07-0.14-1.46-0.07c-0.02,0-0.04,0.01-0.07,0.02c-0.08,0.02-0.19,0.04-0.33,0.07c-0.13,0.03-0.29,0.07-0.45,0.1
			c-0.12,0.02-0.24,0.06-0.36,0.09c-0.04,0.01-0.08,0.02-0.12,0.03l-0.14,0l0,0.01l-0.01,0c-0.04,0.02-0.09,0.05-0.14,0.07
			c-0.04,0.03-0.09,0.05-0.14,0.07c-0.01,0-0.01,0-0.02,0.01C93.49,76.38,92.15,77.2,92.15,77.2z M98.27,76.95L98.27,76.95
			c0,0.01,0,0.02-0.01,0.03c0-0.01,0-0.02-0.01-0.03L98.27,76.95z M97.51,76.58L97.51,76.58l-0.01,0L97.51,76.58z M95.75,75.91
			l0.01,0c-0.01,0-0.01,0-0.02,0.01L95.75,75.91L95.75,75.91z"/>
		<path fill="#5492A3" d="M110.27,87.62c0.07,0.05,0.13,0.11,0.18,0.17c0.29,0.35,0.32,0.77,0.28,1.21
			c0.04,0.08,0.06,0.16,0.08,0.26c0.03,0.11,0.05,0.28,0.13,0.37c0.02,0.04,0.06,0.07,0.1,0.08c0.01,0,0.04,0,0.07,0
			c0.47-0.09,0.22-0.71,0.18-1.12c1.21,2.8,0.55,5.43-0.45,8.04c0,0.01-0.02,0.03-0.03,0.06c-0.22,0.5-1.44,2.99-1.53,3.19
			c-0.06,0.1-0.11,0.2-0.18,0.29c-0.12,0.23-0.27,0.43-0.43,0.62l0,0.01c-0.71,0.89-1.62,1.54-2.54,2.2l-0.23,0.13
			c0.57-0.78,0.45-0.62,0.96-1.44c0.08-0.13,0.32-0.85,0.67-1.41c0.25-0.38,0.65-0.63,0.73-0.7c0.12-0.11,0.47-0.52,0.77-0.89
			c0.04-0.05,0.08-0.1,0.12-0.15c0.05-0.06,0.09-0.12,0.15-0.18c0.01,0,0.64-1.11,0.64-1.12c0.02-0.06,0.03-0.12,0.06-0.18
			c0.04-0.15,0.09-0.3,0.13-0.45c0.26-0.94,0.43-1.97,0.38-2.98c-0.08-1.42-0.12-2.9-0.01-4.34c0-0.1,0.02-0.22,0.02-0.32
			C110.35,88.54,110.21,88.11,110.27,87.62z"/>
		<path fill="#5492A3" d="M110.44,87.79c0.34,0.34,0.48,0.72,0.44,1.16c0.04,0.08-0.01,0.34,0,0.43c0.02,0.09,0.02,0.17,0.04,0.23
			c-0.08-0.08-0.1-0.25-0.13-0.37c-0.02-0.09-0.03-0.18-0.08-0.26C110.77,88.57,110.74,88.15,110.44,87.79z"/>
		<path fill="#B2BCC8" d="M111.32,88.08c1.35,2.44,1.21,4.74,0.54,7.02c-0.07,0.26-0.16,0.51-0.24,0.77
			c-0.26,0.77-0.57,1.53-0.89,2.3l0,0.01l-0.01,0.02c-0.02,0.05-0.06,0.17-0.14,0.31c-0.01,0.02-0.02,0.05-0.05,0.07
			c-0.09,0.19-0.25,0.58-0.4,0.81c-0.07,0.1-0.46,0.61-0.53,0.74c-0.97,1.59-3.03,3.49-4.9,4.36c0.03-0.05,0.29-0.28,0.32-0.32
			c0.09-0.14,0.29-0.37,0.48-0.58c0.07-0.08,0.14-0.16,0.2-0.24c0.08-0.08,0.15-0.16,0.19-0.23l0.23-0.13
			c0.92-0.66,1.82-1.31,2.54-2.2l0-0.01c0.16-0.19,0.31-0.39,0.43-0.62c0.07-0.08,0.12-0.19,0.18-0.29c0.08-0.2,1.3-2.69,1.53-3.19
			c0.02-0.03,0.03-0.05,0.03-0.06c1-2.61,1.66-5.24,0.45-8.04C111.26,88.41,111.26,88.24,111.32,88.08z"/>
		<path fill="#B2BCC8" d="M111.62,95.87c-0.26,0.77-0.56,1.54-0.89,2.31l0-0.01C111.05,97.4,111.35,96.64,111.62,95.87z"/>
		<path fill="#2B4F74" d="M89.22,78.28c0.41-0.22,0.88-0.33,1.53-0.55c-0.43,0.52-0.73,0.88-1.03,1.23
			c-0.24,0.3-0.66,0.36-0.84,0.16C88.56,78.75,88.92,78.42,89.22,78.28z"/>
		<g id="XMLID_00000059276531750577524670000008954198242883923133_">
			<path fill="#6F7734" d="M51.85,104.79c-0.31,0.24-0.65,0.45-1.01,0.63c-0.59,0.67-1.25,0.85-1.93,0.82
				c-0.13,0.06-1.5,0.84-1.63,0.9c-0.86,0.38-0.42-0.02,0.07-1.03c1.1-0.67,2.44-0.9,3.39-1.89c0.27-0.29,0.61-0.51,0.73-0.91
				c0.62-0.28,0.93-0.4,1.49-0.87c0.15-0.12,0.32-0.31,0.51-0.23c0.03,0.01,0.06,0.02,0.09,0.05c0.23,0.19,0.09,0.44-0.06,0.63
				c-0.03,0.04-0.07,0.08-0.09,0.12c0,0-0.01,0,0,0.01c-0.01,0-0.01,0.02-0.02,0.02c-0.01,0-0.02,0.02-0.02,0.04
				c-0.01,0.02-0.03,0.04-0.05,0.06c-0.19,0.25-0.38,0.5-0.57,0.75c-0.02,0.03-0.05,0.06-0.07,0.08
				C52.43,104.27,52.16,104.54,51.85,104.79z"/>
			<path fill="#6F7734" d="M54.37,93.64c0.42,0.37-0.19,0.65-0.37,0.96c-0.14-0.09-0.28-0.19-0.41-0.28
				c-0.18-0.45-0.54-0.65-0.98-0.79c-0.96-0.31-2.16-0.04-2.76-1.18c-0.01-0.02-0.03-0.04-0.07-0.04c-0.08-0.02-0.22-0.02-0.32-0.01
				c-0.02,0-0.04,0-0.07,0c-2.94-0.07-9.57,0.35-12.61,2.11c0.34-0.35,1.02-0.79,1.86-1.23c0.07-0.03,0.13-0.06,0.2-0.1
				c1.84-0.93,4.29-1.86,5.31-2.08c2.66-0.56,5.32-0.69,7.88,0.64C52.99,92.14,53.6,92.97,54.37,93.64z"/>
			<path fill="#BEC43F" d="M25.8,98.22l0.02,0c0.09,0.01,0.18,0.02,0.27,0.03c0.02,0.04,0.07,0.05,0.11,0.03
				c0.08,0.04,0.16,0.07,0.24,0.1c2.74,0.68,5.11-0.37,7.52-1.47c2.77-1.26,5.4-2.93,8.47-3.38c3.59-0.53,7.17-0.46,10.61,0.94
				c0.22,0.09,0.38-0.04,0.54-0.16c0.13,0.1,0.27,0.19,0.41,0.28c-3.19,3.78-7.09,6.05-14.31,3.43c1.96,1.33,4.21,1.63,6.72,1.68
				c-2.99,1.6-6.01,2.36-9.21,2.34c-0.69-0.01-1.07,0.19-1.62-0.93c-0.22-0.44-0.72-0.74-1.3-0.87c-0.08,0.61,0.48,0.85,0.7,1.35
				c-1.57-0.03-3.08-0.15-4.52-0.72c1.09,1.17,2.55,1.06,4.05,1.3c-1.07,1.22-2.65,1.22-3.75,2.15c1.58,0.08,2.85-0.95,4.39-1.43
				c-0.15,1.16-1.82,1.1-1.61,2.42c0.66-0.54,1.37-1.29,1.9-1.86c0.39,0,1.79-0.02,2.02-0.03c1.2-0.04,2.38-0.08,3.58-0.12
				c-1.02,1.24-2.43,2.1-3.53,3.57c0.35-0.09,0.49-0.08,0.56-0.15c1.49-1.31,2.95-2.64,4.42-3.97c0.25-0.23,0.18-0.27,0.19-0.67
				c1.28-0.28,1.99-0.87,3.53-1.29c1.24-0.33,1.35-0.13,1.03,1.15c-0.31,1.22-0.91,2.35-2.39,2.7c1.11,0.62,2.51-0.74,2.81-2.64
				c-0.05-2.02,1.18-2.67,2.93-3.12c1.31-0.34,2.53-1.14,3.59-2.06c0.18-0.15,0.37-0.37,0.61-0.26c0.21,0.11,0.18,0.4,0.2,0.64
				c0.19,2.18-1.4,4.61-3.75,5.7c-0.19,0.09-0.58,0.07-0.49,0.36c0.13,0.41,0.46,0.07,0.71,0.05c-0.12,0.4-0.46,0.61-0.73,0.91
				c-0.95,0.99-2.29,1.22-3.39,1.89c-1.14,1.74-2.65,1.45-4.27,0.87c-0.42-0.15-0.91-0.36-1.4-0.14c-0.51,0.21-1.04,0.42-1.57,0.62
				c0.36,0.53,0.91,0.6,1.47,0.59c-0.35,0.03-1.48,0.14-2.91,0.1c0.28-0.09,0.61-0.28,1-0.54c-0.61-0.3-2,0.02-2.09,0
				c0.08,0.41,0.12,0.38,0.32,0.52c-0.58-0.04-1.19-0.09-1.82-0.2c-0.07-0.01-0.14-0.01-0.23-0.03c-0.47-0.08-0.95-0.17-1.42-0.3
				c-3.01-0.79-5.78-2.83-6.64-3.93c-0.13-0.19-0.26-0.38-0.4-0.58c-0.35-0.52-0.46-0.66-1.11-1.57c-0.65-1.13-1.44-1.69-1.12-2.94
				C25.33,98.25,25.55,98.18,25.8,98.22z"/>
			<path d="M36.79,94.4c3.03-1.77,9.67-2.18,12.61-2.11C46.36,92.56,39.7,93.06,36.79,94.4z"/>
			<path fill="#6F7734" d="M35.44,103.44c0.22-0.25,0.41-0.47,0.56-0.62c0.57-0.27,4.09-0.32,5.97-0.81l0.01,0
				c0.09,0.73-0.65,0.84-0.94,1.28c-1.19,0.04-2.38,0.08-3.58,0.12C37.24,103.42,35.83,103.44,35.44,103.44z"/>
			<path fill="#6F7734" d="M56.75,92.31c-0.39,2.25-1.94,3.2-3.33,4.28C54.63,95.37,55.63,93.98,56.75,92.31z"/>
			<path fill="#6F7734" d="M33.79,107.4c0.3-0.12,2.44,0.08,4.5-0.02c1.58-0.08,3.18-0.46,3.4-0.55c0.11,0.11,0.51,0.11,0.62,0.22
				c0.29,0.29,2.11,0.1,1.88,0.79c-0.16,0.49-2.05,0.18-2.5,0.2c-0.03,0.01-0.16,0.12-0.2,0.13
				C40.85,108.71,34.09,108.34,33.79,107.4z"/>
			<path d="M24.52,97.84c-0.91,1.07,0.65,3.08,0.93,3.48c0,0,1.24,1.87,2.29,3.05c0.95,1.06,2.16,1.88,2.32,1.97
				c4.08,2.42,8.56,2.77,13.11,2.28c2.78-0.29,5.35-1.43,7.85-2.67c0.53-0.26,0.75-0.33,1.46-0.86c0.24-0.2,0.51-0.53,0.68-0.78
				c0.78-1.08,1.09-1.58,1.66-3.11c0.59-1.56,1.19-3.1,1.68-4.69c0.64-2.16,0.78-4.44,1.58-6.56c0.18-0.47,0.1-1.33-0.01-1.34
				c-1.19-0.17-0.44-1.2-0.82-1.69c-0.1-0.13-0.05-0.39-0.4-0.57c0.08,2.58-0.15,5.03-1.95,7.04c-1.42-1.6-3.83-3.29-4.98-3.35
				c-3.69-0.21-7.29,0.06-10.65,1.9c-2.42,1.34-4.46,3.2-6.86,4.57c-1.78,1.01-3.69,1.7-5.74,1.03
				C25.33,97.35,24.91,97.47,24.52,97.84z M56.75,92.31c-0.39,2.25-1.94,3.2-3.33,4.28C54.63,95.37,55.63,93.98,56.75,92.31z
				 M25.8,98.22l0.02,0c0.09,0.01,0.18,0.02,0.27,0.03c0.02,0.04,0.07,0.05,0.11,0.03c0.08,0.04,0.16,0.07,0.24,0.1
				c2.74,0.68,5.11-0.37,7.52-1.47c2.77-1.26,5.4-2.93,8.47-3.38c3.59-0.53,7.17-0.46,10.61,0.94c0.22,0.09,0.38-0.04,0.54-0.16
				c-0.18-0.45-0.54-0.65-0.98-0.79c-0.96-0.31-2.16-0.04-2.76-1.18c-0.01-0.02-0.03-0.04-0.07-0.04c-0.04-0.01-0.09-0.02-0.15-0.02
				c-0.05,0.01-0.11,0.01-0.17,0c-0.02,0-0.04,0-0.07,0c-3.03,0.27-9.69,0.77-12.61,2.11c0.34-0.35,1.02-0.79,1.86-1.23
				c0.06-0.03,0.13-0.06,0.2-0.1c1.84-0.93,4.29-1.86,5.31-2.08c2.66-0.56,5.32-0.69,7.88,0.64c0.96,0.5,1.57,1.33,2.34,2
				c0.42,0.37-0.19,0.65-0.37,0.96c-3.19,3.78-7.09,6.05-14.31,3.43c1.96,1.33,4.21,1.63,6.72,1.68c-2.99,1.6-6.01,2.36-9.21,2.34
				c-0.69-0.01-1.07,0.19-1.62-0.93c-0.22-0.44-0.72-0.74-1.3-0.87c-0.08,0.61,0.48,0.85,0.7,1.35c-1.57-0.03-3.08-0.15-4.52-0.72
				c1.09,1.17,2.55,1.06,4.05,1.3c-1.07,1.22-2.65,1.22-3.75,2.15c1.58,0.08,2.85-0.95,4.39-1.43c-0.15,1.16-1.82,1.1-1.61,2.42
				c0.66-0.54,1.37-1.29,1.9-1.86c0.22-0.25,0.41-0.47,0.56-0.62c0.57-0.27,4.09-0.32,5.97-0.81l0.01,0
				c0.09,0.73-0.65,0.84-0.94,1.28c-1.02,1.24-2.43,2.1-3.53,3.57c0.35-0.09,0.49-0.08,0.56-0.15c1.49-1.31,2.95-2.64,4.42-3.97
				c0.25-0.23,0.18-0.27,0.19-0.67c1.28-0.28,1.99-0.87,3.53-1.29c1.24-0.33,1.35-0.13,1.03,1.15c-0.31,1.22-0.91,2.35-2.39,2.7
				c1.11,0.62,2.51-0.74,2.81-2.64c-0.05-2.02,1.18-2.67,2.93-3.12c1.31-0.34,2.53-1.14,3.59-2.06c0.18-0.15,0.37-0.37,0.61-0.26
				c0.21,0.11,0.18,0.4,0.2,0.64c0.19,2.18-1.4,4.61-3.75,5.7c-0.19,0.09-0.58,0.07-0.49,0.36c0.13,0.41,0.46,0.07,0.71,0.05
				c0.62-0.28,0.93-0.4,1.49-0.87c0.15-0.12,0.32-0.31,0.51-0.23c0.03,0.01,0.06,0.02,0.09,0.05c0.23,0.19,0.09,0.44-0.06,0.63
				c-0.03,0.04-0.07,0.08-0.09,0.12c-0.01,0,0,0.01,0,0.01c-0.01,0-0.01,0.02-0.02,0.02c-0.01,0.02-0.02,0.02-0.02,0.04
				c-0.02,0.02-0.03,0.04-0.05,0.06c-0.19,0.26-0.38,0.51-0.57,0.75c-0.02,0.03-0.05,0.06-0.07,0.08c-0.24,0.29-0.51,0.56-0.82,0.81
				c-0.31,0.24-0.65,0.45-1.01,0.63c-0.61,0.31-1.28,0.56-1.93,0.82c-0.13,0.06-0.25,0.11-0.38,0.16c-1.22,0.46-1.65,0.97-1.18-0.3
				c-1.14,1.74-2.65,1.45-4.27,0.87c-0.42-0.15-0.91-0.36-1.4-0.14c0.02,0.01,0.03,0.03,0.06,0.05c0.17,0.11,0.58,0.27,0.8,0.4
				c0.36,0.2,1.9,0.43,1.19,0.62c-0.81,0.21-1.43,0.14-1.86,0.15c-0.07-0.01-0.14,0-0.2,0c-0.03,0.01-0.06,0-0.09,0
				c-0.35,0.03-1.48,0.14-2.91,0.1c-0.26-0.01-0.44,0-0.77-0.02c-0.58-0.04-1.19-0.09-1.82-0.2c-0.07-0.01-0.14-0.01-0.23-0.03
				c-0.47-0.08-0.95-0.17-1.42-0.3c-0.22-0.06-0.44-0.12-0.65-0.19c-2.76-0.89-5.19-2.71-5.99-3.73c-0.13-0.19-0.26-0.38-0.4-0.58
				c-0.35-0.52-0.46-0.66-1.11-1.57c-0.65-1.13-1.44-1.69-1.12-2.94C25.33,98.25,25.55,98.18,25.8,98.22z"/>
		</g>
		<path d="M69.61,33.53c0.31,0.59-0.1,0.91-0.34,1.22c-1.09,1.39-1.25,3.07-1.62,4.69C67.4,40.5,68,41,68.82,41.49
			c1.99,1.2,3.41,2.91,3.55,5.3c0.08,1.53-0.08,3.12-0.73,4.57c-0.62,1.38-1.29,2.73-1.99,4.08c-0.9,1.76-1.37,3.72-1.51,5.73
			c-0.05,0.64-0.11,1.14-0.95,0.93c-0.05-1.39,0.35-2.71,0.56-4.06c0.31-0.73,0.56-1.49,0.61-2.29c0.2-0.3,0.42-0.58,0.62-0.87
			c0.1-0.14,0.2-0.29,0.29-0.44c0.09-0.16,0.18-0.31,0.25-0.47c0.05-0.11,0.09-0.22,0.12-0.33c0.04-0.1,0.2-0.4,0.27-0.53
			c0.03-0.01,0.04-0.03,0.04-0.05c0.05-0.06,0.08-0.13,0.11-0.2c0.03-0.06,0.06-0.15,0.07-0.21c0.03-0.15,0.45-0.7,0.48-0.93
			c0-0.01,0.09-0.28,0.23-0.63c0.21-0.66,0.55-1.64,0.72-2.19c0.56-1.8-0.84-5.31-2.39-6.27c-0.26-0.16-0.57-0.22-0.87-0.39
			c-1.17-0.75-1.5-1.83-1.33-3.28c-0.13,0.08-0.25,0.17-0.38,0.25c-1,0.71-2,1.77-2.72,2.61c-0.58,0.7-0.97,1.26-1.01,1.41
			c-0.02,0.03-0.06,0.13-0.13,0.26c-0.28,0.55-0.88,1.81-0.94,1.98c-0.15,0.42-0.28,0.39,0.07,0.82c0.39,0.01,0.83-0.94,0.84-0.97
			c0.16-0.27,0.39-0.79,0.64-1.31c0.18-0.4,0.38-0.81,0.52-1.11c0.05-0.09,0.09-0.16,0.13-0.22c0.06-0.13,0.13-0.22,0.17-0.28
			c0.3-0.39,0.51-0.97,1.19-0.7c-1.11,1.37-1.89,2.9-2.37,4.6c-0.22,0.75-0.51,1.53-0.95,2.18c-0.49,0.7-0.55,1.39-0.34,2.14
			c0.02,0.07,0.04,0.14,0.06,0.21c0.02,0.08,0.05,0.17,0.07,0.25c0.04,0.11,0.07,0.22,0.11,0.34c0.03,0.1,0.06,0.19,0.1,0.29
			c0.03,0.1,0.08,0.2,0.11,0.3c0.11,0.32,0.24,0.65,0.36,0.97c0.06,0.15,0.12,0.31,0.18,0.45c0,0.01,0,0.01,0,0.01
			c0.01,0.02,0.01,0.04,0.02,0.05c0.01,0.03,0.02,0.06,0.04,0.08c0,0.02,0.02,0.05,0.02,0.07c0.03,0.07,0.05,0.13,0.08,0.2
			c0.02,0.06,0.04,0.11,0.06,0.17c0.1,0.31,0.64,1.1,0.58,0.74c-0.06-0.37-0.02-0.66,0.04-0.85c0.11-0.36,0.3-0.45,0.23-0.16
			c-0.02,0.05-0.02,0.1-0.02,0.16c-0.04,0.61,0.47,1.3,0.57,1.56c0.23,0.59,0.46,0.37,0.67,0.74c0,0.01,0,0.01,0.01,0.02
			c0.21,0.84,0.42,1.69,0.65,2.54c0.07,0.24,0.12,0.5-0.11,0.61c-0.11,0.06-0.39-0.08-0.52-0.2c-0.3-0.31-0.91-0.62-0.77-0.99
			c0.35-0.93-0.37-1.3-0.77-1.79c-0.88-1.05-1.65-2.17-1.99-3.51c-0.38-1.48-1.33-2.9-0.94-4.49c0.64-2.64,1.22-5.33,3.16-7.44
			c0.42-0.46,0.64-0.92,1.22-1.44c0.28-0.34,0.7-0.58,1.02-0.85c1.3-0.87,1.5-1.87,2.16-2.89C68.52,35.03,68.73,33.98,69.61,33.53z"
			/>
	</g>
	<path d="M60.82,31.59"/>
	<g>
		<path d="M60.57,41.01c0.18-0.16,0.42,0.09,0.25,0.25c-0.36,0.33-0.7,0.85-0.97,1.43c-0.33,0.67-0.56,1.41-0.65,1.96l0,0.01
			c-0.23,1.67,0.11,0.87,0.4,0.93c0.01-0.18,0.03-0.31,0.05-0.41c0.01-0.05,0.07-0.11,0.13-0.12c0.01,0,0.02-0.01,0.03-0.01
			c0.11-0.03,0.23,0.06,0.22,0.17c-0.01,0.26-0.07,0.55-0.16,0.81l-0.01,0l0.01,0.03c0,0.02,0,0.04,0.01,0.08
			c0.09,0.54-0.11,1.23-0.14,1.77c-0.04,0.5,0.06,1.86-0.06,3c-0.05,0.65-0.17,1.24-0.43,1.51c-0.02,0.03-0.04,0.05-0.06,0.07
			c-0.06,0.06-0.15,0.08-0.22,0.03c-0.1-0.07-0.21-0.18-0.32-0.32c-0.61-0.83-1.26-2.69-1.73-2.78c-0.04,0-0.07-0.01-0.1,0.01
			c-0.13,0.05-0.24,0.15-0.3,0.26c-0.25,0.44-0.09,1.29,0.27,2.31c0.01,0.02,0.01,0.04,0.02,0.06c0.68,1.89,2.04,4.33,2.71,5.71
			l0.09,0.16c0.14,0.3,0.24,0.54,0.28,0.7c0.06,0.23-0.29,0.32-0.35,0.09c-0.01-0.03-0.02-0.05-0.03-0.07
			c-0.15-0.53-0.36-1.04-0.61-1.53c-0.11-0.24-0.24-0.47-0.37-0.7c0-0.01,0-0.01-0.01-0.02c-0.86-1.51-1.89-2.94-2.14-4.7
			c-0.09-0.67-0.46-2.76,0.13-3.27c0.05-0.05,0.14-0.07,0.21-0.03c0.81,0.54,1.34,3.31,2.14,3.42c0.26,0.04,0.47-3.3,0.64-5.31
			c-0.09,0.05-0.18,0.06-0.29,0.03c-0.14-0.04-0.28-0.15-0.45-0.37c-0.76-0.99,0.89-4.27,1.72-5.09
			C60.52,41.05,60.54,41.04,60.57,41.01z"/>
	</g>
	<path d="M108.7,97.89"/>
	<path d="M104.01,79.71"/>
	<path d="M103.96,79.87"/>
	<path d="M103.96,79.87"/>
	<path d="M102.26,79"/>
	<path fill="#B2BCC8" d="M109.63,88.59c0.38,2.05,0.35,4.15,0.37,6.24c0.01,0.95-1.06,3.02-2.18,4.43
		c-0.72,0.89-1.58,1.35-1.85,1.62c-1.51,1.45-2.96,1.73-4.85,1.66c-0.53-0.02-1.03-0.31-1.47-0.68c0.4,0.29,0.83,0.45,1.34,0.47
		c1.89,0.07,3.4-0.33,4.94-1.78c0.91-0.86,3.52-4.68,3.49-5.73c-0.05-1.78,0.37-3.54,0.3-5.29c0-0.01,0.01-0.03,0-0.04
		c0-0.13,0-0.25-0.02-0.38C109.68,88.94,109.66,88.77,109.63,88.59z"/>
	<path fill="#B2BCC8" d="M100.43,104.89c2.97-0.3,4.95-1.83,6.47-4.14c-1.3,2.63-3.16,4.48-6.28,4.69c-1.42,0.09-2.85,0.41-3.8-1.03
		C97.65,105.55,98.95,105.04,100.43,104.89z"/>
	<path fill="#B2BCC8" d="M102.71,86.98c-0.19-0.74-0.48-1.41-0.84-2.01c0.67,0.86,1.17,1.74,1.42,2.44c0.17,0.5,0.23,0.8,0.24,1.53
		c-0.02,0.82-0.76,1.8-0.96,2.03c0.11-0.65,0.48-1.27,0.1-1.92l-0.01,0l0-0.01c0.02-0.07,0.01-0.22-0.04-0.53
		c-0.31-0.89-0.33-1.95-1.51-2.29c-0.3-0.08-0.34-0.43-0.15-0.7c0.27-0.38,0.45-0.12,0.63,0.1
		C101.92,86.05,102.27,86.46,102.71,86.98z"/>
</g>
<g id="Farben_Mawerk">
	<path fill="#727272" d="M67.47,13.68l1.15,7.43l-0.87-8.58l0.05-1.94L67.47,13.68z M7.71,110.13l0,0.14l4.51-1.28l4.17-4.01
		l-4.19,2.86L7.71,110.13z"/>
	<path fill="#595959" d="M67.47,13.68l1.15,7.43l-0.87-8.58l0.05-1.94L67.47,13.68z M116.65,53.77l-0.29-0.71l-0.27-0.38
		C116.28,53.03,116.46,53.4,116.65,53.77z M123.31,110.91l1.6,1.02l-1.44-1.47l-3.4-1.07L123.31,110.91z"/>
	<path fill="#9B9B9B" d="M123.31,110.91l1.6,1.02l-1.44-1.47l-3.4-1.07L123.31,110.91z M12.21,107.83l-4.49,2.29l0,0.14l4.51-1.28
		l4.17-4.01L12.21,107.83z"/>
	<path fill="#9E3E34" d="M3.18,114.61c32.5,24.26,83.3,29.03,122.21,5.44c0.3-0.17,0.61-0.36,0.91-0.56l0.03-0.01
		c1.54-0.94,3.05-1.94,4.54-2.98c6.58-50.19-25.02-98.22-63.62-113.48c-1.98,0.89-3.89,1.83-5.77,2.82l-0.06,0.03
		c-0.41,0.2-0.8,0.41-1.2,0.62l-0.01,0C17,29.76-1.66,75.78,3.18,114.61z M67.72,5.82c19.29,8.86,37,25.35,48.36,46.84
		c0,0.01,0,0.01,0.01,0.02c0.19,0.35,0.37,0.72,0.56,1.09l0.02,0.04c9,17.49,13.82,38.23,11.93,60.82
		c-6.35,3.87-14.26,8.17-22.36,11.27l-0.74,0.24c-0.86,0.34-10,3.17-11.54,3.52c-30.91,7.07-59.72,1.53-86.58-15.04
		c-0.69-0.43-1.33-0.96-1.89-1.37C1.65,71.93,22.51,27.58,67.72,5.82z"/>
	<path fill="#9B9B9B" d="M51.26,17.97L31.52,35.09l-9.81,13.15l-8.75,20.4L8.95,83.41l-1.24,26.72l4.49-2.29l4.19-2.86l2.37-2.29
		l0.4-6.34l1.12-8.37l1.92-6.09l3.86-5.3l5.69-3.86L38.99,71l7.54,0.99l7,1.04L55,75.64l5.82-9.07l-2.33-1.9l-7.33,1.94l-0.28-0.74
		l7.61-1.2l-6.19-4.1l-3.86-6.8l-2.09-6.55l0.85-8.84l4.89-7.37l7.37-5.58l9.15-4.32l-1.15-7.43l0.34-3.09L67.9,6.9L51.26,17.97z
		 M37.61,58.98l-9.63,2.95l3.09-5.56l3.97-7.18L37.61,58.98z"/>
	<path fill="#515151" d="M57.66,105.06l-4.76,4.97l-8.17,3.48l-8.81-0.76l-8.43-3.8l-8.17-5.98l-2.93,2.01l-4.17,4.01l-4.51,1.28
		l0-0.14L7.2,110.4l17.68,9.32l24.48,9.15l16.24,2.32l22.1-2.07l14.89-3.55l24.18-11.76l-1.84-1.87l-1.6-1.02l-3.24-1.52l-5.25-1.66
		l-5.76,2.68l-7.88,3.02l-6.27,1.23l-6.49-0.85l-6.11-3.16l-4.99-5.53l-2.74-7.09l-2.47-6.75l-4.99,5.84l-0.31-0.55l6.11-7.37
		l-2.85-1.26l-7.62,0.81l-0.66,9.66L57.66,105.06z M75.32,119.81l-8.18-0.24l-8.43,0.24l8.48-10.64L75.32,119.81z"/>
	<path fill="#777777" d="M67.81,10.59l-0.05,1.94l0.87,8.58l7.79,5.03l6.6,5.26l4.24,4.77l1.62,6.23l0.1,5.99l-2.26,6.59l-4.54,6.19
		l-5.86,5.07l9.08,1.37l-11.31-0.79l6,10.58l0.85-1.58l9.12-2.86l7.81,0.19l6.7,1.57l7.15,5.27l3.8,7.98l1,9.2l-1,10.07l4.56,2.15
		l3.4,1.07l1.44,1.47l3.15,2l-0.94-19.98l-4.53-25.72l-5.93-14.42l-0.02-0.04c-0.18-0.37-0.37-0.73-0.56-1.09
		c0-0.01,0-0.01-0.01-0.02l-12.72-17.61l-10.6-11.03L68.04,8.48L67.81,10.59z M106.98,61.65l0.04,3.9l-12.93-4.14l4.87-11.7
		L106.98,61.65z"/>
</g>
<g id="Mawerk">
	<g>
		<g id="XMLID_00000022527924822687112940000011567597222614145159_">
			<path d="M36.59,34.86c-0.04,0.05-0.08,0.09-0.11,0.14c-0.02,0.02-0.05,0.05-0.07,0.08c0.02-0.03,0.02-0.07,0.03-0.1
				C36.49,34.94,36.53,34.9,36.59,34.86z"/>
			<path d="M88.14,126.31c0.04,0,0.08-0.01,0.12-0.02c0.06-0.01,0.13-0.03,0.19-0.04c-0.07,0.03-0.14,0.07-0.22,0.1
				C88.2,126.33,88.17,126.32,88.14,126.31z"/>
			<path d="M0.6,115.74c38.05,28.22,91.52,29.69,132.31,2.25c0.14-0.81,0.26-1.63,0.37-2.45c0.02-0.1,0.04-0.19,0.04-0.3l0-0.01
				c0.21-1.46,0.36-2.93,0.49-4.41c0.07-0.85,0.13-1.71,0.17-2.57c0,0,0,0,0-0.01c0.03-0.43,0.06-0.85,0.07-1.27
				c1.63-40.62-23.01-87.23-63.65-105.78c-0.1-0.06-0.21-0.11-0.32-0.15c-0.79-0.37-1.6-0.7-2.4-1.04
				C18.35,24.04-4.06,68.1,0.6,115.74z M60.22,6.5L60.22,6.5c0.41-0.22,0.8-0.43,1.21-0.63l0.06-0.03c1.87-0.99,3.79-1.93,5.77-2.82
				c38.6,15.25,70.2,63.29,63.62,113.48c-1.49,1.04-3.01,2.04-4.54,2.98l-0.03,0.01c-0.3,0.2-0.61,0.39-0.91,0.56
				c-38.9,23.59-89.71,18.82-122.21-5.44C-1.66,75.78,17,29.76,60.22,6.5z"/>
			<path d="M5.49,113.25c0.57,0.41,1.2,0.94,1.89,1.37c26.86,16.57,55.67,22.1,86.58,15.04c1.54-0.34,10.68-3.18,11.54-3.52
				l0.74-0.24c8.1-3.1,16.01-7.4,22.36-11.27c1.89-22.59-2.93-43.34-11.93-60.82l-0.02-0.04c-0.18-0.37-0.37-0.73-0.56-1.09
				c0-0.01,0-0.01-0.01-0.02C104.72,31.17,87.01,14.68,67.72,5.82C22.51,27.58,1.65,71.93,5.49,113.25z M95.27,37.95
				c2.15,7.03,1.18,13.83-1.69,20.42c-1.28,2.95-3.45,5.13-6.33,6.45c-2.48,1.14-5.49,1.64-8.91,1.43c1.85-1.73,3.46-3.18,5.02-4.7
				c8.76-8.57,9.31-21.66,0.75-30.32c-4.4-4.46-9.64-8.1-15.01-12.52c0.02-2.02,0.03-4.14,0.06-6.99c9.6,4.11,16.4,10.89,23.4,17.04
				C93.51,31.98,94.36,34.97,95.27,37.95z M88.23,126.35c-0.03-0.02-0.06-0.02-0.09-0.04c-14.28,2.79-28.49,2.59-42.77-0.91
				c4.86-2.96,12.95-4.46,17.82-5.03c9.2-1.08,16.99,2.55,24.96,5.94c0.04,0,0.08-0.01,0.12-0.02c0.06-0.01,0.13-0.03,0.19-0.04
				c1.95-0.91,3.9-1.81,5.84-2.71c0-0.31-0.02-0.62-0.03-0.93c-1.86-0.38-3.73-0.75-5.6-1.15c-8.88-1.92-15.24-7.15-19.36-15.09
				c-2.53-4.88-1.37-10.11,2.74-12.8c0.28,1,0.64,1.88,0.79,2.78c2.43,14.96,16.62,22.98,30.53,17.22c2.61-1.08,5.17-2.23,7.74-3.39
				c4.48-2.03,7.41-1.45,11.54,2.79c-10.5,7.13-22.14,10.68-34.19,13.27C88.38,126.28,88.31,126.32,88.23,126.35z M36.43,34.98
				c0.06-0.04,0.1-0.08,0.16-0.12c5.08-6.9,20.81-20.16,29.98-22.77c0.18,1.81,0.34,3.54,0.59,6.15c-3.81,2.93-7.84,6.01-11.84,9.11
				c-0.45,0.35-0.87,0.69-1.29,1.05c-12.2,10.32-12.23,23.96,0.08,34.88c0.37,0.32,0.69,0.7,1.05,1.07
				c-5.58,1.2-11.48-1.84-13.76-7.27c-3.08-7.37-3.28-14.83-0.26-22.31c0.31-0.75,0.56-1.55,0.73-2.34c0.06-0.26-0.22-0.6-0.54-1.42
				c-1.65,1.35-3.19,2.6-4.73,3.86c-0.04,0.05-0.08,0.09-0.11,0.14c-0.02,0.02-0.05,0.05-0.07,0.08c-0.66,2.67-1.69,5.34-1.88,8.06
				c-0.64,9.25-5.44,15.95-12.36,21.57c-2.65,2.16-5.04,4.63-7.51,6.93C19.73,58.3,25.97,45.47,36.4,35.08
				C36.42,35.05,36.42,35.01,36.43,34.98z M98.16,60.26c0.7-2.27,1.29-4.21,2.15-6.99l4.96,8.75
				C102.32,61.29,100.45,60.82,98.16,60.26z M76.69,68.24c2.69,0.19,4.56,0.32,7.36,0.51c-1.59,2.33-2.73,4-4.36,6.37
				C78.44,72.29,77.75,70.68,76.69,68.24z M72.83,66.21l-0.03,0.02l7.2,12.69c0.23-0.11,0.44-0.22,0.66-0.32l0.01,0
				c0.28-0.14,0.56-0.26,0.83-0.39c0.26-0.13,0.52-0.25,0.77-0.37c0.48-0.23,0.96-0.45,1.43-0.68c0.22-0.1,0.44-0.2,0.64-0.32
				c0.65-0.31,1.27-0.63,1.9-0.96c11.7-6.28,25.74,0.49,27.94,13.59c0.75,4.42,0.97,8.92,1.41,13.27
				c-4.15,7.96-11.82,9.62-19.27,10.49c-11.23,1.31-21.13-8.26-21.24-19.53c-0.02-1.79-0.02-3.61-0.03-6.13
				c-4.44-0.21-8.69-0.41-13.5-0.61c-0.13-0.01-0.26-0.01-0.39-0.02c-0.01,0.22-0.03,0.43-0.04,0.66l0,0.01
				c-0.52,8.08-2.17,15.29-7.31,19.68c-2.32,1.98-5.36,3.4-9.33,4.06c-4.63,0.78-9.77-0.93-14.57-2c-5.05-1.12-8.14-4.71-9.94-10.33
				c0.52-3.33,0.92-7.48,1.82-11.52c1.91-8.52,7.77-14.03,14.91-15.35c4.32-0.82,9.1-0.09,13.76,2.42c1.34,0.72,2.66,1.47,4.28,2.39
				c0.22,0.12,0.44,0.25,0.66,0.37c0.08,0.04,0.17,0.09,0.25,0.14c0.08-0.13,0.15-0.26,0.23-0.38c2.23-3.7,4.35-7.21,6.78-11.25
				c-11.71-6.12-18.21-14.54-13.62-27.7c1.07-3.04,3.29-5.94,6.16-8.34c4.47-3.75,10.48-6.33,16.09-6.41
				c3.15,2.57,7.06,5.39,10.52,8.68c10.06,9.56,6.45,26.59-5.01,31.58c-0.8,0.35-1.53,0.85-2.34,1.44l-0.05,0.03
				c-0.41,0.29-0.85,0.61-1.32,0.93C73,66.09,72.92,66.15,72.83,66.21z M70.88,89.39c-1.13,1.82-1.88,3.02-2.96,4.76
				c-1.15-1.5-1.97-2.58-3.6-4.73C67.06,89.4,68.63,89.4,70.88,89.39z M58.71,67.89c-0.99,1.63-1.99,3.26-3.3,5.38l-3.33-5.87
				c2.39-0.21,4.16-0.36,5.94-0.51C58.26,67.22,58.49,67.56,58.71,67.89z M36.45,58.73c-2.14,0.65-3.95,1.2-6.96,2.11
				c1.81-3.06,3.12-5.28,4.43-7.49c0.47,0.06,0.95,0.14,1.42,0.22C35.7,55.22,36.06,56.87,36.45,58.73z M17.57,75.23
				c5.13-6.91,11.95-10.84,20.41-12.09c4.31-0.64,7.88,1.05,10.98,3.68c1.19,1.02,1.7,2.82,2.74,4.64
				c-4.37-0.69-7.77-1.68-11.18-1.69c-1.48,0-2.92,0.14-4.32,0.41c-8.69,1.69-15.42,8.46-17.12,17.53
				c-0.7,3.75-1.06,7.57-1.57,11.35c-0.42,3.1-1.56,5.68-3.96,7.67c-1,0.82-2.22,1.54-3.68,2.16c-0.09-2.06-0.34-3.54-0.21-4.99
				c0.81-8.23,1.71-16.47,2.58-24.7c0.4,0.14,0.8,0.28,1.2,0.42C14.83,78.17,16.37,76.83,17.57,75.23z M14.76,108.18
				c0.53-0.44,1.1-0.91,1.72-1.42c2.39,0.82,5.14,1.74,7.88,2.67c4.37,1.49,8.65,3.69,13.14,4.33c6.64,0.95,12.88-1.07,17.54-5.06
				c4.05-3.46,6.91-8.4,7.84-14.17c0.15-0.9,0.22-1.8,0.37-3.13c6.66,8.29,1.12,19.97-6.81,24.5c-4.82,2.75-9.9,4.65-15.53,4.76
				c-1.23,0.02-2.46,0.31-4.87,0.64c2.35,1.27,3.65,1.97,4.94,2.66c-10.41-2.77-20.37-6.56-30.07-12.57
				C12.3,110.22,13.44,109.27,14.76,108.18z M66.81,112.11c2.02,2.12,3.74,3.94,6.15,6.49c-4.26-0.02-7.49-0.03-12.01-0.05
				C63.32,115.95,64.84,114.29,66.81,112.11z M117.61,102.58c-0.24-3.15-0.34-6.31-0.47-9.47c-0.73-16.79-17.66-27.43-34.1-19.1
				c0.82-1.37,1.64-2.73,2.43-4.07c0.8-1.34,1.59-2.65,2.34-3.9c6.78-2.14,13.14-1.72,18.79,1.47c5.09,2.89,9.52,6.91,15.28,11.21
				c0.98,9.71,2.03,20.06,3.13,31.09C120.04,108.73,117.9,106.49,117.61,102.58z M118.4,69.08c-9.5-2.95-12.42-11.8-17.33-18.94
				c-0.2-3.86-0.41-7.8-0.62-11.81C104.73,40.81,113.63,56.11,118.4,69.08z"/>
			<path fill="#4E4D4C" d="M78.69,89.68L78.69,89.68c0.41,0.36,0.4,0.9,0.55,1.37c0.62,0.63,0.75,0.93,0.67,1.09
				c-0.15,0.33-1.07,0.14-0.33,1.04c0.63,0.77,0.69,2.49,0.66,3.49c-1.09-1.56-0.64-0.65-1.33-1.56c-0.09-0.13-0.22-0.3-0.36-0.52
				c-0.2-0.29-0.43-0.62-0.01-0.94c-0.11-0.76-1.16-1.05-0.97-1.94c-0.05-0.1-0.08-0.2-0.12-0.3c-0.28-0.72-0.57-1.63-1.01-2.41
				l-0.01-0.03c-0.18-0.32-0.39-0.63-0.63-0.87c0,0.01,0.02,0.02,0.04,0.03c0.03,0.02,0.06,0.03,0.09,0.06
				c0.01,0,0.02,0.02,0.04,0.02c0.02,0.01,0.05,0.04,0.07,0.05c0.03,0.03,0.05,0.05,0.03,0.02C74.62,85.54,77.4,88.28,78.69,89.68z"
				/>
			<path fill="#4E4D4C" d="M71.97,56.72c0,0-0.7,1.67-0.82,1.95c-0.38,0.83,0.52,1.1,0.21,1.7c-0.07,0.11-0.14,0.2-0.24,0.29
				c0.1-0.8-0.06-0.85-0.33-0.52c-0.16,0.18-0.36,0.49-0.57,0.84c-0.26,0.43-0.71,0.61-1.18,0.89c0.29-0.65,0.52-1.32,0.76-1.98
				c0.22-0.6,0.47-1.2,0.91-1.93C70.92,57.6,71.97,56.72,71.97,56.72z"/>
			<path fill="#9E3E34" d="M55.2,29.79c-2.87,2.41-5.09,5.3-6.16,8.34c-4.6,13.16,1.9,21.58,13.62,27.7
				c-0.13-0.58-0.25-1.58-0.38-2.27c-0.02-0.09-0.04-0.17-0.06-0.27c-0.03-0.07-0.05-0.15-0.07-0.22c-0.02-0.1-0.05-0.18-0.06-0.24
				c-0.07-0.33,0-0.3,0.06-0.42c0.1-0.25-0.08-0.83-0.23-1.25c0.25,0.54,0.61,1.36,0.63,1.42c0.01,0.04,0.26,0.4,0.3,0.46l0.21,0.35
				c0.51,0.48,0.4,0.08,0.66,0.17c0.31,0.11,0.47,0,0.55-0.23c0.1-0.03,0.12-0.14,0.21-0.44c0.36-1.23,0.22-1.36,0.21-2.02
				c0.24,0.87,0.44,0.28,0.8,1.34c0.01,0.24,0.02,0.47,0.04,0.7c0.02,0.4-0.19,0.96,0.3,1.14c0.43,0.16,0.39-0.5,0.67-0.67
				c0.83-0.53,1.69-1.02,2.53-1.52c0.29-0.65,0.52-1.32,0.76-1.98c0.22-0.6,0.47-1.2,0.91-1.93c0.21-0.35,1.27-1.24,1.27-1.24
				s-0.7,1.67-0.82,1.95c-0.38,0.83,0.52,1.1,0.21,1.7c-0.07,0.11-0.14,0.2-0.24,0.29c0.04,1.01-0.53,1.77-1.06,2.55
				c0.21,0.16,0.41,0.31,0.61,0.47c0.2-0.1,0.41-0.21,0.62-0.33c0.39-0.31,0.83-0.39,1.31-0.38c0.25,0,0.58,0.12,0.47,0.36
				c-0.52,1.25,0.6,1.35,1.21,1.82c0.04-0.02,0.09-0.05,0.13-0.06l0.05-0.03c0.82-0.59,1.54-1.09,2.34-1.44
				c11.47-5,15.07-22.02,5.01-31.58c-3.46-3.29-7.37-6.11-10.52-8.68C65.68,23.46,59.67,26.03,55.2,29.79z M66.29,25.61
				c0.33,0,0.38,0.31,0.36,0.52c-0.33,2.4,1.35,4.43,1.27,6.79c-0.02,0.62,0.43,1.38-0.51,1.73c0.17,0.32,0.34,0.64,0.5,0.95
				c-0.65,1.01-1.03,2.23-2.16,2.89c-0.28,0.34-0.55,0.67-0.83,1.01c0.28-0.34,0.7-0.58,1.02-0.85c1.3-0.87,1.5-1.87,2.16-2.89
				c0.42-0.72,0.63-1.77,1.51-2.22c0.31,0.59-0.1,0.91-0.34,1.22c-1.09,1.39-1.25,3.07-1.62,4.69C67.4,40.5,68,41,68.82,41.49
				c1.99,1.2,3.41,2.91,3.55,5.3c0.08,1.53-0.08,3.12-0.73,4.57c-0.62,1.38-1.29,2.73-1.99,4.08c-0.9,1.76-1.37,3.72-1.51,5.73
				c-0.05,0.64-0.11,1.14-0.95,0.93c-0.76,0.28-0.98-0.32-1.22-0.81c-0.94-1.88-1.7-2.81-2.67-2.28c-0.48,0.26-0.28-1.53-0.98-1.88
				c-0.52-0.25-0.58,0.86-0.9,0.57c-0.85-0.77-1.21-0.36-1.8,0.13c-0.01,0.03-0.01,0.06-0.01,0.09c0.14,0.3,0.24,0.54,0.28,0.7
				c0.06,0.23-0.29,0.32-0.35,0.09c-0.01-0.03-0.02-0.05-0.03-0.07c-0.05,0.15-0.16,0.28-0.39,0.34c0.03,0.24,0.08,0.47,0.11,0.71
				c0.03,0.17-0.01,0.33-0.18,0.4c-0.16,0.08-0.27-0.02-0.39-0.15c-2.67-2.83-5.23-5.72-6.32-9.61c-0.17-0.6-0.77-2.96-0.59-5.4
				c0.19-2.45,1.15-4.98,1.67-6.11c1.43-3.15,4.03-5.22,6.89-7c0.21-0.12,0.33-0.2,0.53-0.35c0.16-0.11,0.47-0.3,0.51-0.37
				c1.26-0.8,3.18-2.2,3.39-2.56c0.6-0.85,1.01-1.44,1.17-2.4C65.95,25.91,65.98,25.63,66.29,25.61z"/>
			<path fill="#D29441" d="M21.79,87.49c-0.9,4.04-1.31,8.19-1.82,11.52c1.8,5.62,4.89,9.21,9.94,10.33c4.8,1.07,9.95,2.78,14.57,2
				c3.97-0.66,7.01-2.08,9.33-4.06c5.14-4.39,6.79-11.6,7.31-19.68c0,0-0.01,0.02-0.02,0.02c-0.18,0.25-1.12,1.83-1.12,1.83
				s-0.01-0.97,0.05-1.86c0.04-0.58,0.12-1.13,0.23-1.35c0.11-0.19,0.31-0.32,0.46-0.54c-1.26,0.78-2.23-0.65-3.41-0.39
				c-0.79,1.14-2.08,0.87-3.33,1.34c1.3-1.75,3.38-2.24,4.34-3.99c0.07-0.12,0.15-0.25,0.21-0.37c-0.15,0-0.29-0.01-0.44,0
				c-0.84,0.35-1.61-0.1-2.4-0.22c-0.41-0.05-0.38-0.35-0.09-0.68c1.31-1.49,1.18-1.84-0.75-2.46c-0.63-0.2-1.35-0.23-1.86-0.73
				c-0.22-0.2-0.62-0.34-0.5-0.73c0.11-0.36,0.49-0.3,0.8-0.36c0.47-0.1,1.02,0.12,1.46-0.17c-1.62-0.92-2.94-1.67-4.28-2.39
				c-4.66-2.51-9.44-3.23-13.76-2.42C29.56,73.46,23.7,78.97,21.79,87.49z M26.66,97.54c2.05,0.67,3.95-0.02,5.74-1.03
				c2.4-1.37,4.43-3.23,6.86-4.57c3.36-1.84,6.96-2.11,10.65-1.9c1.15,0.06,3.56,1.75,4.98,3.35c1.8-2.01,2.03-4.46,1.95-7.04
				c0.35,0.18,0.31,0.44,0.4,0.57c0.38,0.49-0.36,1.53,0.82,1.69c0.11,0.01,0.19,0.87,0.01,1.34c-0.8,2.12-0.94,4.41-1.58,6.56
				c-0.48,1.58-1.09,3.12-1.68,4.69c-0.57,1.52-0.89,2.02-1.66,3.11c-0.18,0.25-0.44,0.58-0.68,0.78c-0.71,0.53-0.94,0.6-1.46,0.86
				c-2.5,1.23-5.07,2.38-7.85,2.67c-4.55,0.49-9.03,0.15-13.11-2.28c-0.16-0.09-1.37-0.91-2.32-1.97c-1.05-1.18-2.29-3.05-2.29-3.05
				c-0.27-0.4-1.84-2.41-0.93-3.48C24.91,97.47,25.33,97.35,26.66,97.54z"/>
			<path fill="#4A7189" d="M85.45,77.7c-2.24,0.58-2.96,2.2-3.3,4.15c-0.1,0.57-0.7,1.04-1.25,1.38c0.24,0.4,0.15,0.85-0.07,1.14
				c-0.8,1.08-0.06,1.74,0.57,2.45c0.02,0.02,0.04,0.05,0.06,0.07c0.06,0.07,0.1,0.11,0.12,0.13c0.02,0.02,0.02,0.02,0.02,0.02
				c0.01,0-0.01-0.03,0.13,0.15c0.01,0.03,0.04,0.05,0.05,0.07c0.18,0.23,0.92,1.74,0.92,1.74s-1.88-1.3-2.15-1.58
				c-0.01,0-0.01,0-0.02-0.01c-0.06-0.07-0.12-0.13-0.17-0.18c-0.09-0.1-0.17-0.18-0.23-0.25c-0.01-0.02-0.02-0.03-0.03-0.04
				c-0.06-0.06-0.1-0.12-0.15-0.16c-0.09-0.09-0.14-0.15-0.2-0.21c-0.04-0.05-0.07-0.09-0.12-0.13c-0.12-0.14-0.3-0.32-0.66-0.71
				c-0.42-0.05-0.51,0.23-0.4,0.5c0.44,1.14,0.24,2.28,0.12,3.44c0.4,0.37,0.39,0.91,0.54,1.37c0.62,0.63,0.75,0.93,0.67,1.09
				c-0.15,0.33-1.07,0.14-0.33,1.04c0.63,0.77,0.69,2.49,0.66,3.49c-1.09-1.56-0.64-0.65-1.33-1.56c-0.09-0.13-0.22-0.3-0.36-0.52
				c-0.2-0.29-0.43-0.62-0.01-0.94c-0.11-0.76-1.16-1.05-0.97-1.94c-0.05-0.1-0.08-0.2-0.12-0.3c-0.28-0.72-0.57-1.63-1.01-2.41
				l-0.01-0.03c-0.18-0.32-0.39-0.63-0.63-0.87c-0.01,0-0.02-0.01-0.02-0.01c-0.11-0.11-0.22-0.21-0.34-0.3
				c-0.12-0.08-0.24-0.16-0.37-0.23c0.01,2.53,0.01,4.34,0.03,6.13c0.11,11.28,10.01,20.84,21.24,19.53
				c7.45-0.87,15.12-2.53,19.27-10.49c-0.44-4.35-0.66-8.85-1.41-13.27c-2.2-13.11-16.25-19.87-27.94-13.59
				c-0.63,0.33-1.25,0.65-1.9,0.96l-0.56,0.32C84.21,77.41,84.78,77.17,85.45,77.7z M89.49,76.28l1.3-0.43
				c0.51-0.37,0.56-0.5,1.01-0.57c0.05-0.01,0.12-0.02,0.18-0.02c0.86-0.11,4.01-0.4,4.96-0.26c1.97,0.3,7.1,3.17,8.47,4.39
				c0.4,0.37,1.18,0.92,1.54,1.3c3.59,3.74,6.68,9.03,5.7,13.93c-0.93,4.64-3.73,7.85-7.41,10.48c-0.87,0.62-4.15,1.3-5.05,1.41
				c-1.32,0.16-6.12-0.85-9.07-2.62c-2.16-1.3-4.53-5.64-4.07-8.12c0.47-2.57,1.53-3.56,4.12-4.06c1.05-0.2,2.06-0.57,3.15-0.26
				c1.19,0.34,2.57,1.9,2.62,3.09c0.01,0.34,0.11,0.68-0.44,0.81c-0.99,0.22-0.66,0.99-0.42,1.51c0.32,0.68,0.97,0.66,1.53,0.27
				c0.87-0.6,1.28-1.55,1.44-2.52c0.34-1.98-1.15-4-3.09-4.52c-2.47-0.67-4.89-0.76-7.34,0.17c-0.91,0.34-3.89,1.41-4.68,2.18
				c-0.23,0.22-0.48,0.59-0.92,0.31c-1.04-0.68-0.08-1.12,0.19-1.67c0.74-1.52,1.48-3.06,1.05-4.85c-0.42-0.09-0.53-0.32-0.26-0.66
				c0.45-0.57,1.85-0.84,1.9-0.81c-0.04-0.03-0.09-0.08-0.13-0.12c-0.29-0.5-0.5-1.04,0.1-1.43c0.65-0.44,0.62-1,0.43-1.63
				c-0.35-0.19-0.05-0.28,0.07-0.38c0.08-0.08,0.19-0.14,0.22-0.25c0.02-0.03,0.02-0.07,0.01-0.12c-0.01,0-0.03-0.02-0.05-0.03
				c-0.04-0.03-0.1-0.07-0.14-0.07c-0.36-0.03-0.8,0.64-1.03,0.13c-0.27-0.63,0.46-0.64,0.82-0.68c1.55-0.21,1.98-1.74,3.07-2.48
				c-0.01-0.21-0.02-0.42-0.04-0.63c-0.24-0.14-0.54,0.17-0.85-0.18C88.76,76.6,89.1,76.33,89.49,76.28z"/>
			<path fill="#272625" d="M62.86,67.3c-1.46,1.37-0.98,3.22-4.2,6.87c-0.55,0.41-0.75,0.83-0.79,1.22
				c0.13,0.28,0.08,0.63,0.12,0.94c0.01,0.05,0.02,0.09,0.03,0.13c0.78,3.69,1.89,7.19,5.21,9.49c0.11,0.07,0.22,0.14,0.3,0.23
				c0,0,0,0,0,0.01c0.3,0.09,0.56,0.19,0.69,0.28c2.31,1.72,3.13-3.99,7.54,0.59c0.63,0.65,1.27-0.98,1.97-1.38l0.03-0.01
				c1.84-0.93,3.2-2.23,4.1-4.13c0.48-1.02,1.3-1.88,2.03-2.79l-6.84-12.06c-0.27,0.06-0.54,0.1-0.81,0.09
				c-0.08,0.01-0.16,0.01-0.24,0c-0.12,0-0.23-0.02-0.34-0.04c-0.11-0.02-0.23-0.03-0.33-0.06c-0.1-0.02-0.21-0.05-0.34-0.09
				c-0.22-0.07-0.43-0.16-0.65-0.25c-2.25-1.02-4.41-0.42-6.58,0.21C63.33,66.67,63.19,67,62.86,67.3z M67.12,68.34
				c1.86-0.2,4.3,0.43,5.39,2.53c0.52,0.78-0.07,1.36,0.41,2.15c0.65,1.07,1.68,2.51,2.53,3.58c0.11,0.15,0.22,0.29,0.33,0.41
				c0.07,0.09,0.14,0.17,0.2,0.27c0.08,0.09,0.13,0.19,0.19,0.29c0.05,0.09,0.1,0.17,0.14,0.27c0.3,0.65,0.43,1.37,0.42,2.1
				c-0.03,2.38-1.6,4.7-3.42,4.14c-3.7-1.14-5.88,0.01-8.12,0.19c-1.19,0.1-2.34-0.92-3.27-2.25l0-0.01
				c-0.97-1.39-1.7-3.13-1.95-4.32c-0.81-3.74,0.77-3.95,2.32-3.93c1.56,0.01,2.11-2.21,2.57-3.78
				C65.15,68.92,66.13,68.45,67.12,68.34z"/>
			<path fill="#1E1C1A" d="M64.84,69.97c-0.46,1.57-1.01,3.79-2.57,3.78c-1.55-0.02-3.13,0.19-2.32,3.93
				c0.26,1.19,0.98,2.93,1.95,4.32l0,0.01c0.94,1.33,2.09,2.34,3.27,2.25c2.24-0.18,4.42-1.33,8.12-0.19
				c1.83,0.56,3.39-1.76,3.42-4.14c0.02-0.72-0.12-1.45-0.42-2.1c-0.05-0.1-0.09-0.19-0.14-0.27c-0.05-0.1-0.11-0.19-0.19-0.29
				c-0.05-0.1-0.13-0.18-0.2-0.27c-0.11-0.12-0.22-0.27-0.33-0.41c-0.86-1.07-1.88-2.51-2.53-3.58c-0.48-0.79,0.11-1.36-0.41-2.15
				c-1.09-2.1-3.53-2.74-5.39-2.53C66.13,68.45,65.15,68.92,64.84,69.97z M68.35,69.46c0.14,0.02,0.28,0.03,0.45,0.06
				c0.51,0.11,1.13,0.3,1.67,0.53c0,0.01,0.02,0.01,0.02,0.01c0.96,0.41,1.64,0.92,0.99,1.21c-4.27,1.9,0.16,4.31,3.44,6.73
				c0.61,1,1.05,2.06,0.4,3.13c-0.8,1.3-5.35-2.07-6.98-2.11c-2.15-0.06-0.77,3.52-2.72,2.68c-0.8-0.35-1.53-0.79-2.44-0.86
				c-0.73-0.06-1.14-0.67-1.38-1.22c-0.82-1.49,1.98-1.94,3.25-3.23c1.42-1.46,0.05-3.73,0.9-5.61
				C66.38,69.78,67.2,69.35,68.35,69.46z"/>
			<path fill="#14120F" d="M68.35,69.46c0.14,0.02,0.28,0.03,0.45,0.06c0.51,0.11,1.13,0.3,1.67,0.53c0,0.01,0.02,0.01,0.02,0.01
				c0.96,0.41,1.64,0.92,0.99,1.21c-4.27,1.9,0.16,4.31,3.44,6.73c0.61,1,1.05,2.06,0.4,3.13c-0.8,1.3-5.35-2.07-6.98-2.11
				c-2.15-0.06-0.77,3.52-2.72,2.68c-0.8-0.35-1.53-0.79-2.44-0.86c-0.73-0.06-1.14-0.67-1.38-1.22c-0.82-1.49,1.98-1.94,3.25-3.23
				c1.42-1.46,0.05-3.73,0.9-5.61C66.38,69.78,67.2,69.35,68.35,69.46z"/>
			<path fill="#4E4D4C" d="M72.6,62.98c0.25,0,0.58,0.12,0.47,0.36c-0.52,1.25,0.6,1.35,1.21,1.82c0.04-0.02,0.09-0.05,0.13-0.06
				c-0.41,0.29-0.85,0.61-1.32,0.93c-0.09,0.05-0.16,0.1-0.25,0.17l-0.03,0.02l-0.62-0.57c-1.05-0.55-0.4-1.37-0.89-2.3
				C71.67,63.05,72.12,62.97,72.6,62.98z"/>
			<path fill="#323031" d="M65.49,62.21c0.01,0.24,0.02,0.47,0.04,0.7c0.02,0.4-0.19,0.96,0.3,1.14c0.43,0.16,0.39-0.5,0.67-0.67
				c0.83-0.53,1.69-1.02,2.53-1.52c0.46-0.28,0.92-0.45,1.18-0.89c0.21-0.35,0.41-0.66,0.57-0.84c0.27-0.33,0.43-0.28,0.33,0.52
				c0.04,1.01-0.53,1.77-1.06,2.55c-0.6,0.35-1.12,0.77-1.4,1.61l2.01-1.14c0.2-0.1,0.41-0.21,0.62-0.33
				c0.49,0.93-0.16,1.75,0.89,2.3l0.62,0.57l0.25,0.44c-0.27,0.06-0.54,0.1-0.81,0.09c-0.08,0.01-0.16,0.01-0.24,0
				c-0.12,0-0.23-0.02-0.34-0.04c-0.11-0.02-0.23-0.03-0.33-0.06c-0.1-0.02-0.21-0.05-0.34-0.09c-0.21-0.07-0.43-0.16-0.65-0.25
				c-2.25-1.02-4.41-0.42-6.58,0.21c-0.42,0.13-0.57,0.46-0.89,0.76c-1.46,1.37-0.98,3.22-4.2,6.87c-0.55,0.41-0.75,0.83-0.79,1.22
				c0.13,0.28,0.08,0.63,0.12,0.94c0.01,0.05,0.02,0.09,0.03,0.13c0.78,3.69,1.89,7.19,5.21,9.49c0.11,0.07,0.22,0.14,0.3,0.23
				c0,0,0,0,0,0.01c0.3,0.09,0.56,0.19,0.69,0.28c2.31,1.72,3.13-3.99,7.54,0.59c0.63,0.65,1.27-0.98,1.97-1.38l0.03-0.01
				c1.84-0.93,3.2-2.23,4.1-4.13c0.48-1.02,1.3-1.88,2.03-2.79l0.11,0.19c0.23-0.11,0.44-0.22,0.66-0.32l0.01,0
				c0.28-0.14,0.56-0.26,0.83-0.39c0.26-0.13,0.52-0.25,0.77-0.37c-0.09,0.97-0.45,1.86-1,2.67c-0.45,0.24-0.89,0.53-1.35,0.7
				c-0.34,0.13-0.75,0.13-0.76,0.59c-0.01,0.43,0.38,0.53,0.72,0.64c0.05,0.06,0.1,0.12,0.15,0.18c-0.68,0.93-0.75,2.06-1.04,3.12
				c-0.42-0.05-0.51,0.23-0.4,0.5c0.44,1.14,0.24,2.28,0.12,3.44l-0.01,0c-1.29-1.41-4.07-4.14-2.65-1.38
				c-0.01,0-0.02-0.01-0.03-0.02c-0.02-0.02-0.05-0.04-0.07-0.05c-0.01,0-0.02-0.02-0.04-0.02c-0.03-0.03-0.06-0.05-0.09-0.06
				c-0.02-0.01-0.04-0.02-0.04-0.03c-0.01,0-0.02-0.01-0.02-0.01c-0.11-0.11-0.22-0.21-0.34-0.3c-0.12-0.08-0.24-0.16-0.37-0.23
				c-4.44-0.21-8.69-0.41-13.5-0.61c-0.13-0.01-0.26-0.01-0.39-0.02c-0.01,0.22-0.03,0.43-0.04,0.66l0,0.01c0,0-0.01,0.02-0.02,0.02
				c-0.01,0.02-0.02,0.04-0.05,0.06c-0.02,0.02-0.04,0.06-0.05,0.09c-0.07,0.1-0.14,0.23-0.24,0.39c-0.19,0.3-0.4,0.65-0.56,0.92
				c-0.03,0.06-0.06,0.12-0.09,0.15c-0.08,0.14-0.14,0.23-0.14,0.23s-0.01-0.97,0.05-1.86c0.04-0.58,0.12-1.13,0.23-1.35
				c0.11-0.19,0.31-0.32,0.46-0.54c-1.26,0.78-2.23-0.65-3.41-0.39c-0.15-0.01-0.39,0.02-0.42-0.03c-0.1-0.3,0.17-0.39,0.36-0.49
				c0.91-0.44,1.44-1.05,1.06-2.13c0.07-0.12,0.15-0.25,0.21-0.37c-0.15,0-0.29-0.01-0.44,0c-0.19-0.34-0.49-0.5-0.85-0.59
				c-0.29-0.07-0.54-0.24-0.43-0.58c0.51-1.65-0.33-2.42-1.78-2.85c-0.52-0.14-0.55-0.41-0.09-0.7c0.14-0.09,0.3-0.17,0.45-0.26
				c0.08,0.04,0.17,0.09,0.25,0.14c0.08-0.13,0.15-0.26,0.23-0.38c2.23-3.7,4.35-7.21,6.78-11.25c-0.13-0.58-0.25-1.58-0.38-2.27
				c-0.02-0.09-0.04-0.17-0.06-0.27C63.83,66.72,64.77,65.25,65.49,62.21z"/>
		</g>
	</g>
	<line fill="none" x1="74.54" y1="120.25" x2="58.82" y2="118.95"/>
</g>
</svg>
