<?xml version="1.0" encoding="utf-8"?>
<!-- Generator: Adobe Illustrator 26.1.0, SVG Export Plug-In . SVG Version: 6.00 Build 0)  -->
<svg version="1.1" baseProfile="tiny" xmlns="http://www.w3.org/2000/svg" xmlns:xlink="http://www.w3.org/1999/xlink" x="0px"
	 y="0px" viewBox="0 0 135.24 137.6" overflow="visible" xml:space="preserve">
<g id="Hintergrund">
	<polygon points="62.1,90.97 55.81,89.27 44.47,83.38 55.92,60.53 65.64,59.93 69.43,57.96 74.53,56.81 78.61,62.08 80.49,72.8 
		84.4,78.21 84.4,85.83 77.84,92.98 	"/>
</g>
<g id="Hauptfarben">
	<path fill="#D29441" d="M83.29,110.64c5.1,2.56,10.05,3.09,15.35,1.28c3.03-1.04,6.52-2.13,9.47-3.34
		c1.03-0.42,3.57-1.96,4.23-2.87c0.82-1.12,1.54-2.48,2.09-3.94l0-0.01c1.12-2.91,1.55-6.23,0.8-9.06
		c-0.27-1.03-0.54-2.04-0.82-3.04l-0.01-0.03c-0.76-2.62-1.62-5.18-2.84-7.7c-3.14-6.55-11.68-11.1-20.83-9.3
		c-4.15,0.82-8.01,2.39-11.7,4.41c0.05,0.04,0.12,0.07,0.19,0.09c0.05,0.02,0.1,0.02,0.16,0.04l0-0.01
		c7.19-3.73,14.21-6.04,20.63-3.9c2.9,0.96,5.68,2.84,8.3,5.89c3.06,3.56,4.25,8.85,5.82,13.51c1.65,4.91,0.18,9.4-3.71,13.85
		c-3.12,1.28-6.88,3.07-10.81,4.39c-8.29,2.76-16.03,0.59-20.85-4.83c-2.93-3.28-4.78-7.74-5.04-13.03
		c-0.07-1.52-0.12-3.04-0.16-4.9c-0.09-0.05-0.2-0.08-0.33-0.09c0.1,2.15,0.06,4.31,0.32,6.45c0.5,4,1.58,7.76,3.66,10.82l0.01,0.02
		c1.06,1.56,2.38,2.95,4.02,4.08l0.01,0C81.88,109.86,82.57,110.27,83.29,110.64z M109.56,100.63c0,0,0.96-2.03,1.42-3.54
		c0.42-1.36,0.49-2.82,0.49-3c-0.03-4.74-2.05-8.76-4.82-12.4c-1.68-2.23-3.99-3.84-6.34-5.34c-0.5-0.32-0.68-0.47-1.5-0.81
		c-0.29-0.11-0.71-0.16-1.02-0.18c-1.33-0.1-1.92-0.12-3.52,0.18c-1.64,0.31-3.27,0.58-4.88,0.99c-2.18,0.57-4.21,1.63-6.43,2.04
		c-0.5,0.09-1.19,0.61-1.14,0.7c0.47,1.1-0.8,1-1.03,1.58c-0.06,0.15-0.31,0.24-0.28,0.64c2.16-1.4,4.38-2.47,7.04-1.97
		c-0.63,2.04-0.84,4.98-0.29,5.99c1.73,3.27,3.82,6.21,7.13,8.14c2.4,1.38,5.04,2.17,7.45,3.51c1.79,1,3.36,2.28,3.85,4.38
		c0.52,1.24,0.84,1.54,1.36,1.68C108.45,103.45,109.36,101.07,109.56,100.63z M79.42,77.18c0.08,0.02,0.16,0.03,0.25,0.05
		c0.01,0,0.03,0.01,0.05,0.02c0.07,0.02,0.14,0.04,0.19,0.07c0.07,0.04,0.12,0.09,0.15,0.16c0,0.01,0.02,0.03,0.02,0.06
		c0.01,0.02,0.01,0.04,0.01,0.06c0.01,0.05,0.01,0.11,0,0.17c-0.02,0.14-0.07,0.25-0.13,0.34c0.79-0.41,1.62-0.92,1.62-0.92
		S79.73,77.2,79.42,77.18z"/>
	<path fill="#9E3E34" d="M23.64,104.77c-0.17-0.28,0.07-0.49,0.26-0.58c2.23-0.96,3.09-3.45,5.15-4.6c0.54-0.31,0.96-1.08,1.75-0.45
		c0.19-0.31,0.37-0.62,0.55-0.92c1.21,0.04,2.44-0.27,3.6,0.36c0.44,0.06,0.86,0.13,1.29,0.19c-0.44-0.06-0.86-0.3-1.26-0.43
		c-1.41-0.67-2.38-0.32-3.59-0.35c-0.83,0.01-1.84,0.38-2.68-0.14c0.35-0.57,0.82-0.39,1.22-0.33c1.75,0.21,3.27-0.51,4.85-1.04
		c1.04-0.34,1.16-1.11,1.16-2.07c0-2.33,0.73-4.42,2.71-5.77c1.26-0.86,2.71-1.54,4.29-1.73c1.5-0.19,3.01-0.31,4.52-0.41
		c1.97-0.14,3.9-0.75,5.69-1.67c0.57-0.29,1.04-0.5,1.28,0.33c0.63,0.51,0.23,1-0.06,1.46c-1.12,1.78-1.53,2.9-0.57,3.46
		c0.47,0.28-1.16,1.03-1.1,1.81c0.05,0.58,1.04,0.05,0.95,0.48c-0.22,1.13,0.31,1.22,1.04,1.47c0.03-0.01,0.06-0.02,0.08-0.04
		c0.19-0.27,0.34-0.48,0.45-0.6c0.16-0.17,0.42,0.09,0.26,0.25c-0.02,0.02-0.03,0.04-0.05,0.06c0.16-0.04,0.32,0,0.49,0.16
		c0.19-0.15,0.36-0.31,0.55-0.46c0.13-0.11,0.29-0.16,0.43-0.06c0.15,0.1,0.13,0.24,0.08,0.41c-1.04,3.75-2.2,7.44-4.96,10.38
		c-0.43,0.46-2.14,2.19-4.32,3.3c-2.19,1.11-4.86,1.58-6.1,1.72c-3.44,0.4-6.55-0.76-9.56-2.28c-0.21-0.12-0.34-0.18-0.57-0.27
		c-0.18-0.08-0.5-0.25-0.58-0.25c-1.33-0.67-3.53-1.58-3.94-1.57c-1.04-0.08-1.75-0.13-2.66,0.24
		C24.07,104.91,23.81,105.03,23.64,104.77z"/>
	<path fill="#9E3E34" d="M26.37,109.98c-3.02-1.79-5.39-4.21-7.43-7.08c-0.27-0.38-0.01-1.41,0.06-1.97
		c0.63-4.5,0.97-9.03,2.07-13.45c2.72-10.88,14.74-17.37,25.33-13.63c1.38,0.48,3.05,0.8,4.2,1.77c0.84,0.71,1.67,1.2,2.6,1.76
		c-0.93-0.39-1.73-0.76-2.45-1.26c-10.2-7.24-26.64-1.53-29.63,12.02c-1.03,4.66-1.42,9.47-2,13.49c2.97,4.76,8.28,8.58,13.8,10.46
		c3.54,1.21,7.17,1.62,10.32,0.96c13.64-2.86,17.49-12.78,16.68-25.97c0.38,0.63,0.64,1.8,0.65,2.45c0.04,4.52-0.35,9.35-2.28,13.53
		c-0.34,0.75-0.73,1.48-1.18,2.18c-0.83,1.31-1.88,2.5-3.07,3.55l-0.02,0.02c-2.25,2-5.01,3.52-7.71,4.47
		c-4.9,1.72-10.03,1.05-14.73-0.76l-0.63-0.25C29.39,111.64,27.84,110.84,26.37,109.98z"/>
	<path fill="#4A7189" d="M68.41,59.65c-0.03,0.09-0.06,0.19-0.1,0.28C68.31,59.92,68.29,59.96,68.41,59.65z"/>
	<path fill="#4A7189" d="M55.04,58.73L54,57.84c-0.58-0.25-0.71-0.22-1.01-0.57c-0.03-0.04-0.08-0.09-0.11-0.14
		c-0.54-0.68-2.41-3.22-2.78-4.11c-0.77-1.84-0.95-7.72-0.61-9.52c0.11-0.54,0.18-1.48,0.32-1.99c1.34-5,4.28-10.39,8.98-12.08
		c4.46-1.6,8.65-0.86,12.8,0.93c0.98,0.42,3.25,2.88,3.82,3.6c0.82,1.05,2.43,5.68,2.45,9.12c0,2.53-2.49,6.79-4.84,7.68
		c-2.44,0.92-3.84,0.53-5.61-1.43c-0.71-0.79-1.55-1.47-1.85-2.57c-0.33-1.19,0.3-3.18,1.3-3.84c0.29-0.18,0.53-0.45,0.92-0.04
		c0.7,0.74,1.19,0.05,1.51-0.42c0.42-0.62,0.06-1.17-0.56-1.45c-0.96-0.44-1.99-0.29-2.9,0.07c-1.87,0.74-2.83,3.06-2.27,4.99
		c0.7,2.46,1.88,4.58,3.94,6.19c0.76,0.6,3.22,2.6,4.29,2.88c0.31,0.08,0.75,0.11,0.74,0.62c-0.05,1.25-0.91,0.65-1.53,0.7
		c-1.68,0.16-3.39,0.31-4.7,1.6c0.14,0.4,0,0.62-0.43,0.56c-0.72-0.09-1.68-1.15-1.67-1.2c-0.01,0.05-0.02,0.12-0.04,0.17
		c-0.28,0.51-0.63,0.96-1.28,0.66c-0.71-0.33-1.17-0.02-1.62,0.47c0.02,0.4-0.22,0.19-0.36,0.14c-0.11-0.03-0.22-0.09-0.33-0.06
		c-0.04,0-0.07,0.02-0.11,0.05c0,0.01,0,0.04,0,0.06c-0.01,0.05-0.01,0.12,0.01,0.16c0.16,0.32,0.96,0.36,0.65,0.81
		c-0.39,0.56-0.79-0.07-1.01-0.35c-0.98-1.22-2.51-0.79-3.7-1.35c-0.18,0.12-0.35,0.24-0.52,0.36c0,0.28,0.42,0.37,0.29,0.82
		C55.69,59.18,55.28,59.03,55.04,58.73z"/>
	<path fill="#4A7189" d="M58.18,62.86c-3.22-1.84-6.21-3.96-8.34-7.12c-5.41-8.02-4.31-19.02,3.06-25.28
		c3.03-2.58,6.18-4.83,9.34-7.21l0.02-0.01c0.23-0.17,0.47-0.34,0.69-0.52c0.46-0.35,0.96-1.36,1.48-1.36
		c0.53-0.01,1.07,0.02,1.62,0.08c2.62,0.27,5.32,1.28,7.69,2.62l0.05,0.03c1.29,0.73,2.47,1.57,3.5,2.44
		c0.69,0.58,1.44,1.24,2.18,1.95l0.05,0.05c2.31,2.2,4.67,4.86,6.09,7.3c3.44,5.89,2.47,12.45-0.38,18.55
		c-1.8,3.83-4.73,6.72-8.38,8.83c-1.19,0.69-3.49,1.37-4.69,2.06c2.16-1.31,3.71-2.25,5.24-3.19c9.6-5.92,12.67-19.34,5.75-28.28
		c-4.59-5.93-9.98-11.64-18.94-11.08c-3.49,2.62-7.24,5.14-10.63,8.06c-10.09,8.66-8.62,24.18,2.8,30.95
		C56.98,62.09,57.58,62.46,58.18,62.86z"/>
</g>
<g id="Zentrum">
	<path fill="#272625" d="M62.1,65.69c-0.12-0.02-0.22-0.03-0.34-0.04l-6.69,11.91c0.09,0.07,0.17,0.14,0.24,0.22L62.1,65.69z"/>
	<path fill="#323031" d="M60.08,64.12c0.01,0,0.01,0,0.03-0.01c0.23,0.15,0.47,0.31,0.71,0.47C60.54,64.46,60.26,64.34,60.08,64.12z
		"/>
	<path fill="#323031" d="M61.75,65.64c0-0.24-0.06-0.42-0.16-0.55c0.2,0.14,0.4,0.26,0.61,0.4l-0.11,0.19
		C61.98,65.67,61.87,65.65,61.75,65.64z"/>
	<path fill="#323031" d="M54.75,78.06c0.11-0.17,0.2-0.34,0.31-0.51c0.09,0.07,0.17,0.14,0.24,0.22l-0.25,0.44l-0.03-0.02
		C54.92,78.15,54.84,78.11,54.75,78.06z"/>
	<path fill="#323031" d="M78.8,77.48c-0.06-0.11-0.12-0.23-0.18-0.34c0.13,0,0.27-0.05,0.42-0.09c0.05,0.04,0.12,0.07,0.19,0.09
		c0.05,0.02,0.11,0.03,0.16,0.03l0,0.01C79.18,77.29,79,77.38,78.8,77.48z"/>
	<path fill="#323031" d="M73.54,87.39c-0.09-0.05-0.18-0.1-0.27-0.16c-0.06-0.05-0.13-0.1-0.19-0.13c0.15,0,0.3,0,0.45,0
		C73.53,87.2,73.54,87.29,73.54,87.39z"/>
	<path fill="#4E4D4C" d="M58.78,63.24c-0.01-0.02-0.03-0.05-0.04-0.07c0-0.51-0.51-0.87-0.4-1.72c1.66,1.62,3.41,1.4,5.26,0.68
		c0.54-0.21,1.25,0.06,1.83,0.36c0.22-0.41,0.65-0.56,1.01-0.53c1.34,0.13,1.52-0.84,1.8-1.75c0.01-0.03,0.02-0.06,0.03-0.09
		c0.03-0.09,0.04-0.14,0.05-0.17c0.01-0.03,0.01-0.03,0.01-0.03c-0.01,0-0.03,0.03,0.1-0.28c0.11-0.27,1.02-1.69,1.02-1.69
		s-0.15,2.28-0.25,2.66c0,0.01,0,0.01,0,0.02c-0.03,0.09-0.05,0.17-0.07,0.24c-0.04,0.13-0.07,0.24-0.09,0.33
		c-0.01,0.02-0.02,0.03-0.02,0.05c-0.02,0.08-0.05,0.15-0.06,0.21c-0.03,0.12-0.05,0.2-0.08,0.28c-0.02,0.06-0.04,0.11-0.05,0.17
		c-0.05,0.18-0.12,0.42-0.27,0.93c-1.05,0.3-2.06,0.83-3.2,0.72c-0.03,0.07-0.05,0.15-0.08,0.22c0.08,0.34,0.2,0.73-0.18,0.95
		c-0.4,0.24-0.61-0.11-0.9-0.34c-0.39-0.31-0.86-0.54-1.3-0.8c-0.98-0.06-1.93,0.1-2.81,0.52c-0.01,0-0.01,0-0.03,0.01
		C59.63,63.84,59.08,63.73,58.78,63.24z"/>
	<path fill="#4E4D4C" d="M74.46,89.3c-0.33-0.36-0.42-0.94-0.9-1.16c-0.09-0.05-0.2-0.08-0.33-0.09c-0.15-0.28-0.1-0.55,0.04-0.83
		c0.08,0.06,0.18,0.11,0.27,0.16c0.15,0.08,0.3,0.18,0.45,0.25c0.48,0.25,0.7,0.08,0.55-0.43c-0.38-1.46-0.15-2.59,1.52-3
		c0.35-0.09,0.36-0.38,0.27-0.67c-0.11-0.35-0.13-0.69,0.06-1.03c0.73,0.54,0.75,1.43,1.05,2.17c0.17,0.38-0.1,0.51-0.54,0.43
		c-1.96-0.35-2.19-0.06-1.72,1.91c0.15,0.65,0.5,1.28,0.34,1.97c-0.06,0.29,0.03,0.7-0.36,0.81C74.82,89.89,74.66,89.53,74.46,89.3z
		"/>
	<path fill="#4E4D4C" d="M76.62,82.12c0.73-0.89,1.52-0.75,2.37-0.19c0.19,0.12,0.41,0.3,0.61,0.06c0.02-0.04-0.12-0.24-0.19-0.37
		c1.38,0.09,1.82,1.33,2.87,2.16C80.11,83.56,78.61,82.03,76.62,82.12z"/>
	<path fill="#4E4D4C" d="M57.45,87.36c-0.07-0.33-0.24-0.4-0.48-0.35c-0.08-0.07-0.18-0.03-0.49,0.05
		c-1.24,0.33-1.28,0.52-1.84,0.86c0.62-0.66,0.01-0.52,0.74-1.37c2.69-0.89,5.28-1.62,2.62,2.24c-0.04,0.06-0.1,0.12-0.16,0.18
		c-0.08,0.07-0.13,0.13-0.18,0.17c-0.24,0.23-0.26,0.15-0.39,0.17c-0.27,0.05-0.67,0.5-0.95,0.84c0.33-0.49,0.85-1.22,0.89-1.28
		c0.03-0.03,0.21-0.43,0.24-0.49l0.19-0.36C57.79,87.32,57.51,87.62,57.45,87.36z"/>
	<path fill="#4E4D4C" d="M51.16,82.53c-0.14,0.22-0.24,0.4-0.28,0.56C50.46,83.02,50.42,82.86,51.16,82.53z"/>
	<path fill="#4E4D4C" d="M53.9,82.12c0.03-0.26,0.06-0.51,0.09-0.77L56,82.48C55.13,82.67,54.51,82.45,53.9,82.12z"/>
</g>
<g id="Symbole">
	<g>
		<path fill="#CE5113" d="M37.79,96.73c-0.01,0-0.01,0,0-0.01c0.11-0.24,0.87-0.63,1.24-1.1c0.5-0.66,0.38-1.38,0.46-1.71
			c0.02-0.12-0.03-0.15-0.13-0.13c0,0-0.01,0-0.01,0c-0.08,0.02-0.19,0.08-0.32,0.14c-0.02,0.01-0.04,0.03-0.06,0.03
			c-0.28,0.12-0.56,0.24-0.76,0.34c-0.03-0.01-0.04-0.05-0.04-0.1c0.04-0.3,0.44-1.75,1.29-2.51c0.25-0.23,0.55-0.4,0.84-0.54
			c0.97-0.45,1.9-0.5,1.26-0.85c-0.25-0.13-0.73-0.1-1.12-0.08c-0.37,0.03-0.69,0.06-0.66-0.06c0.05-0.23,1-0.8,1.76-1.18
			c0.24-0.12,0.46-0.21,0.64-0.27c0.01,0,0.04-0.01,0.05-0.02c0.01,0,0.03-0.01,0.05-0.01c0.3,0,1.27,0.31,1.96,0.22
			c0.3-0.05-0.41-0.23-0.75-0.41c-0.16-0.07-0.23-0.14-0.11-0.19c0.5-0.2,2.82-0.25,3.58-0.36c0.05-0.01,0.09-0.02,0.13-0.02
			c0.01,0,0.01,0,0.01,0c0.43-0.1,0.81-0.21,1.06-0.34c0.08-0.05,0.15-0.09,0.21-0.13c0.71-0.37,1.49-0.55,2.28-0.66
			c-0.19,0.36-0.38,0.72-0.58,1.09c-0.13,0-0.25,0.01-0.36,0.03c-0.77,0.18-1.11,0.92-1.82,1.33c-1.91,1.06-4.23,1.81-6.38,2.49
			c-0.25,0.07-0.85-0.29-0.93,0.06c0,0.02-0.01,0.06-0.01,0.1c0,0.37,0.3,0.65,0.69,0.72c0.28,0.05,0.85-0.33,1.14-0.33
			c1.22-0.12,1.14,0.72,0.89,1.09c-0.22,0.3-0.93,0.92-1.21,1.14c-0.28,0.21-0.92,0.15-1.29,0.23c-0.27,0.05-0.47,0.1-0.5,0.38
			c0,0.02,0,0.04,0,0.06c0.06,0.24,0.76,0.26,0.98,0.28c1.07,0.06,1.29-0.44,1.57-0.84c0.46-0.66,1.23-1.06,2-1.33
			c0.83-0.29,1.6-0.42,2.43-0.7c0.51-0.18,1.18-0.13,0.91-0.6c-0.03-0.05-0.06-0.1-0.1-0.16c0.93-0.41,1.59-1.18,2.43-1.72
			c0,0.01,0,0.01-0.01,0.02c-0.21,0.37,0.1,0.45-0.28,0.95c-0.17,0.22-0.49,1.02-1.04,1.3c-0.05,0.03-0.1,0.05-0.15,0.06
			c-0.28,0.09-0.1,0.21,0.26,0.11c0.2-0.05,0.47-0.16,0.75-0.4c0.28-0.23-0.12,0.63-0.33,0.88c-0.04,0.05-0.08,0.09-0.11,0.14
			c-0.33,0.41-0.79,1.01-1.21,1.54c-0.07,0.09-0.14,0.17-0.2,0.25c-0.07,0.08-0.13,0.15-0.2,0.23c-0.08,0.1-0.16,0.18-0.23,0.27
			c-0.01,0-0.04,0-0.06,0c-0.39,0-1.83-0.09-3.13,0.19c-0.35,0.07-0.69,0.21-0.99,0.35l-0.01,0c-0.57,0.25-1,0.52-1.13,0.43
			c-0.07-0.04,0.04-0.16,0.22-0.3c0.58-0.46,1.96-1.25,1.36-1.16c-0.52,0.07-1.53,0.89-2.39,1.31c-0.25,0.12-0.48,0.21-0.69,0.23
			C38.5,96.79,37.85,96.81,37.79,96.73z"/>
		<path fill="#D96828" d="M49.27,92.53c-0.36,0.09-0.54-0.03-0.26-0.11c0.05-0.02,0.1-0.04,0.15-0.06
			C49.19,92.41,49.23,92.47,49.27,92.53z"/>
		<path fill="#D96828" d="M47.97,95.17c0.5-0.59,1.16-1.47,1.61-2.02c-0.05,0.17-0.16,0.35-0.28,0.47
			C48.86,94.14,48.43,94.67,47.97,95.17z"/>
		<path fill="#D96828" d="M38.19,94.28c0.21-0.1,0.48-0.22,0.76-0.34C38.66,94.11,38.31,94.32,38.19,94.28z"/>
		<path fill="#891A25" d="M34.7,97.3c1.33-0.61,2.08-1.44,2.12-2.83c0-0.34-0.11-0.64-0.11-0.95c0.02-1.83,2.3-4.83,4.13-5.28
			c0.56-0.14,1.58-0.35,2.25-0.51c0.37-0.07,0.65-0.13,0.66-0.13c0.21-0.09,0.91-0.02,1.05-0.07c0.07-0.02,0.15-0.04,0.22-0.05
			c0.08-0.01,0.15-0.02,0.22-0.01c0.01,0,0.04,0,0.06,0.01c0.15-0.01,0.49-0.02,0.6-0.04c0.11-0.03,0.23-0.06,0.35-0.07
			c0.18-0.03,0.35-0.03,0.53-0.03c0.17-0.01,0.35,0,0.53,0.02c0.35,0.03,0.71,0.07,1.07,0.08c-0.06,0.05-0.13,0.09-0.21,0.13
			c-0.26,0.13-0.63,0.24-1.06,0.34c0,0,0,0.01-0.01,0c-0.04,0-0.08,0.01-0.13,0.02c-0.75,0.12-3.07,0.16-3.58,0.36
			c-0.12,0.05-0.05,0.12,0.11,0.19c0.34,0.18,1.05,0.36,0.75,0.41c-0.69,0.09-1.66-0.22-1.96-0.22c-0.02,0-0.04,0-0.05,0.01
			c-0.01,0-0.04,0.01-0.05,0.02c-0.17,0.06-0.4,0.16-0.64,0.27c-0.76,0.38-1.72,0.95-1.76,1.18c-0.03,0.12,0.28,0.09,0.66,0.06
			c0.39-0.02,0.87-0.05,1.12,0.08c0.64,0.35-0.29,0.4-1.26,0.85c-0.29,0.13-0.59,0.31-0.84,0.54c-0.84,0.77-1.24,2.21-1.29,2.51
			c-0.01,0.05,0.01,0.09,0.04,0.1c0.11,0.04,0.47-0.17,0.76-0.34c0.03-0.01,0.05-0.02,0.06-0.03c0.12-0.05,0.22-0.09,0.32-0.14
			c0-0.01,0.01,0,0.01,0c0.1-0.02,0.16,0.01,0.13,0.13c-0.07,0.34,0.04,1.05-0.46,1.71c-0.37,0.47-1.13,0.87-1.24,1.1
			c0,0.01,0,0.01,0,0.01c0.06,0.08,0.71,0.06,3.15-0.23c0.21-0.02,0.44-0.11,0.69-0.23c0.85-0.42,1.86-1.24,2.39-1.31
			c0.6-0.09-0.78,0.7-1.36,1.16c-0.18,0.14-0.29,0.26-0.22,0.3c0.13,0.08,0.56-0.18,1.13-0.43l0.01,0c0.3-0.14,0.64-0.28,0.99-0.35
			c1.29-0.28,2.74-0.19,3.13-0.19c0.02,0,0.04,0,0.06,0c-0.06,0.06-0.12,0.13-0.17,0.19c-0.05,0.05-0.09,0.11-0.15,0.16
			c-0.53,0.57-1.16,0.88-2.01,0.82c-0.78-0.04-1.6,0.11-2.36,0.32c-1.71,0.46-3.42,0.59-5.16,0.35c0.12,0.72,0.73,0.6,1.21,0.66
			c0.08,0.01,0.19,0.01,0.33,0c0.07-0.01,0.15-0.01,0.26-0.01c0.33-0.03,0.78-0.08,1.22-0.13c0.57-0.06,1.13-0.12,1.45-0.13
			c0.03-0.01,1.07-0.12,1.27,0.22c-0.19,0.52-0.23,0.4-0.66,0.49c-0.18,0.04-1.58,0.17-2.19,0.22c-0.14,0.01-0.25,0.02-0.29,0.02
			c-0.15,0.04-0.84,0-1.74-0.14c-1.1-0.18-2.52-0.5-3.65-0.98C34.97,97.43,34.83,97.36,34.7,97.3z"/>
		<path fill="#A42B33" d="M47.56,95.63c0.06-0.06,0.12-0.13,0.17-0.19c0.16-0.01,0.25-0.01,0.26,0.01
			C48.02,95.47,47.88,95.54,47.56,95.63z"/>
		<path fill="#A42B33" d="M40.83,88.23c0.74-0.19,1.47-0.53,2.25-0.51C42.41,87.88,41.4,88.09,40.83,88.23z"/>
		<path fill="#A42B33" d="M39.02,93.91c0.13-0.07,0.24-0.12,0.32-0.14C39.24,93.82,39.14,93.86,39.02,93.91z"/>
		<path fill="#A42B33" d="M39.43,97.93c0.26-0.03,0.47-0.12,0.77-0.09c0.21-0.09,0.46-0.1,0.7-0.04c-0.44,0.05-0.89,0.1-1.22,0.13
			C39.59,97.92,39.51,97.92,39.43,97.93z"/>
		<path fill="#A42B33" d="M35.1,97.49c1.13,0.48,2.54,0.8,3.65,0.98C37.55,98.46,36.36,98.09,35.1,97.49z"/>
		<polygon fill="#D96828" points="48.56,100.8 48.55,100.79 48.56,100.79 		"/>
		<path fill="#CE5113" d="M29.82,102.84c-0.02-0.32,1.02-0.34,1.29-0.54c0.26-0.19,0.5-0.42,0.79-0.53c1.5-0.61,2.46-1.72,3.04-3.19
			c0.44,0.06,0.86,0.13,1.29,0.19c-0.03,0.04-0.05,0.07-0.08,0.12c-0.02,0.04-0.04,0.09-0.05,0.13c-0.02,0.05-0.02,0.09-0.02,0.14
			c0,0.09,0.01,0.18,0.05,0.27c0.04,0.1,0.09,0.19,0.13,0.28c0.02,0.05,0.05,0.09,0.07,0.13c0.02,0.05,0.04,0.09,0.06,0.14
			c0.02,0.05,0.04,0.09,0.05,0.13c0.01,0.05,0.02,0.09,0.02,0.14c0.01,0.06,0,0.13-0.01,0.19c-0.01,0.03-0.02,0.05-0.03,0.07
			c-0.01,0.03-0.02,0.06-0.04,0.08c0.18-0.06,0.39-0.2,0.54-0.16c0.07,0.03,0.1,0.06,0.14,0.1c0.01,0.02,0.02,0.05,0.02,0.07
			c0.05,0.12-0.03,0.29-0.04,0.45c-0.03,0.37-0.56,0.45-0.51,0.92c0.88,0.47,1.82,0.15,2.73,0.12c0.19-0.18,0.4-0.29,0.62-0.35
			c0.45-0.13,0.92-0.09,1.38-0.19c0.11-0.03,0.22-0.05,0.33-0.08c0.75-0.06,1.49-0.25,2.01-0.46l0-0.01
			c0.41-0.09,0.82-0.19,1.23-0.29c0.07-0.13,0.36-0.51,0.37-0.7c-0.3-0.01-0.56,0.19-0.91,0.12c-0.04-0.01-0.08-0.02-0.12-0.03
			c-0.03-0.01-0.07-0.03-0.1-0.05c0.1-0.12,0.21-0.23,0.33-0.31c0.01,0,0.02-0.02,0.03-0.03c0-0.01,0.02-0.01,0.02-0.02
			c0.39-0.26,0.82-0.39,1.24-0.54c0.09-0.03,0.18-0.07,0.28-0.11c0.09-0.04,0.19-0.08,0.28-0.12c0.06-0.03,0.15-0.06,0.23-0.1
			c0.27-0.12,0.55-0.26,0.83-0.41c0.09-0.04,0.17-0.09,0.25-0.14c0.39-0.24,0.78-0.59,1.14-0.93c0.58-0.29,1.15-0.49,1.52-0.41
			c-0.11,0.35-0.22,0.7-0.02,0.67c0.06,0,0.11-0.02,0.15-0.04c-0.4,0.95-1.65,2.47-1.49,2.91c-0.12,0.11-0.22,0.21-0.32,0.3l0.01,0
			c0.31,0.19,0.53,0.05,0.75-0.11c0.51-0.01,1.16-0.59,1.83-1.42c0.01-0.02,0.03-0.03,0.04-0.05c0.7-0.79,1.25-1.72,1.91-2.54
			c0.31-0.39,0.65-0.76,0.93-1.16c0-0.01,0-0.01,0.01-0.02c0.16-0.22,0.29-0.44,0.4-0.68c0.12-0.27,0.2-0.55,0.23-0.87
			c0.01-0.04,0.01-0.08,0.01-0.12c0.03-0.01,0.06-0.02,0.08-0.04c0.22-0.09,0.45-0.26,0.67-0.29c0.16-0.04,0.32,0,0.49,0.16
			c0.04,1.27-0.46,2.41-0.89,3.57c-0.87,1.61-1.97,3.06-3.17,4.44c-2.29,2.67-5.4,3.48-8.67,4.03c-0.04,0-0.07,0.01-0.11,0.01
			c-0.72-0.02,3.75-2.67,2.65-2.7c-0.84-0.01-3.56,1.92-6,2.53c-1.25,0.31-2.4,0.15-3.28-0.09c-0.12-0.03-0.24-0.07-0.35-0.11
			c-0.08-0.04-0.16-0.06-0.24-0.09c-0.12-0.05-0.25-0.09-0.36-0.15c-0.14-0.06-0.26-0.11-0.35-0.15l-0.03-0.02
			c-0.47-0.26,1.96-0.25,1.34-0.5c-0.63-0.25-4.41-0.76-5.06-0.96C31.1,103.42,29.84,103.28,29.82,102.84z"/>
		<path fill="#D96828" d="M50.23,96.94c0.04,0,0.06,0.01,0.09,0.02c0.08,0.02,0.14,0.09,0.14,0.17c-0.01,0.12-0.05,0.27-0.11,0.44
			c-0.04,0.03-0.09,0.04-0.15,0.04C50.01,97.64,50.12,97.29,50.23,96.94z"/>
		<path fill="#D96828" d="M36.33,99.83c-0.02-0.05-0.05-0.09-0.07-0.13c0.01,0,0.02,0.01,0.02,0.02
			C36.3,99.77,36.32,99.8,36.33,99.83z"/>
		<path fill="#D96828" d="M36.44,100.1c-0.01-0.04-0.03-0.09-0.05-0.13c0.01,0.02,0.02,0.05,0.03,0.06L36.44,100.1z"/>
		<path fill="#891A25" d="M26.34,103.72l-0.01-0.03c0.12-0.7,0.58-1.16,1.07-1.64c1.05-1.06,2.18-2.02,3.39-2.9
			c0.19-0.31,0.37-0.62,0.55-0.92c1.21,0.04,2.44-0.27,3.6,0.36c-0.59,1.47-1.54,2.58-3.04,3.19c-0.29,0.11-0.54,0.34-0.79,0.53
			c-0.27,0.19-1.3,0.22-1.29,0.54c0.02,0.45,1.29,0.59,1.56,0.66c0.64,0.2,4.43,0.71,5.06,0.96c0.62,0.24-1.81,0.23-1.34,0.5
			l0.03,0.02c0.09,0.04,0.21,0.1,0.35,0.15c0.12,0.05,0.24,0.1,0.36,0.15c0.07,0.03,0.15,0.05,0.24,0.09
			c0.11,0.04,0.23,0.07,0.35,0.11c0.87,0.24,2.03,0.39,3.28,0.09c2.44-0.61,5.16-2.55,6-2.53c1.1,0.02-3.38,2.68-2.65,2.7
			c0.04,0,0.07-0.01,0.11-0.01c3.28-0.54,6.38-1.36,8.67-4.03c1.2-1.39,2.3-2.83,3.17-4.44c-1.44,4.22-4.09,7.34-8.26,9.14
			c-0.11,0.05-0.47,0.17-0.97,0.34c-1.65,0.53-4.94,1.42-6.88,1.24c-4.23-0.4-7.14-2.49-9.19-3.26
			C28.23,104.12,27.46,104.05,26.34,103.72z"/>
		<path fill="#C62B33" d="M26.34,103.72c1.12,0.33,1.89,0.41,3.39,0.97C28.58,104.49,27.46,104.05,26.34,103.72z"/>
		<path fill="#D1A730" d="M36.23,98.77c0.72-0.01,1.25,0.18,1.86,0.3C37.49,98.94,36.97,99,36.23,98.77z"/>
		<path fill="#D1A730" d="M36.33,99.83c-0.02-0.05-0.05-0.09-0.07-0.13c0.01,0,0.02,0.01,0.02,0.02
			C36.3,99.77,36.32,99.8,36.33,99.83z"/>
		<path fill="#D1A730" d="M36.44,100.1c-0.01-0.04-0.03-0.09-0.05-0.13c0.01,0.02,0.02,0.05,0.03,0.06L36.44,100.1z"/>
		<path d="M24.28,104.82c0.9-0.36,1.62-0.32,2.66-0.24c0.42-0.01,2.61,0.91,3.94,1.57c0.08,0,0.41,0.17,0.58,0.25
			c0.22,0.09,0.36,0.16,0.57,0.27c3.01,1.53,6.12,2.68,9.56,2.28c1.24-0.14,3.9-0.62,6.1-1.72c2.18-1.1,3.89-2.84,4.32-3.3
			c2.77-2.94,3.92-6.63,4.96-10.38c0.05-0.17,0.07-0.31-0.08-0.41c-0.15-0.11-0.3-0.05-0.43,0.06c-0.19,0.15-0.36,0.31-0.55,0.46
			c0.04,1.27-0.46,2.41-0.89,3.57c-1.44,4.22-4.09,7.34-8.26,9.14c-0.11,0.05-0.47,0.17-0.97,0.34c-1.65,0.53-4.94,1.42-6.88,1.24
			c-4.23-0.4-7.14-2.49-9.19-3.26c-1.49-0.56-2.27-0.64-3.39-0.97c-0.05,0.01-0.09,0-0.14,0.02c0.04-0.01,0.08-0.02,0.13-0.04
			c0.12-0.7,0.58-1.16,1.07-1.64c1.05-1.06,2.18-2.02,3.39-2.9c-0.78-0.62-1.21,0.15-1.75,0.45c-2.06,1.15-2.92,3.63-5.15,4.6
			c-0.19,0.09-0.43,0.3-0.26,0.58C23.81,105.03,24.07,104.91,24.28,104.82z"/>
		<path fill="#D1A730" d="M36.53,101.96c-0.05-0.46,0.49-0.54,0.51-0.92c0.02-0.15,0.09-0.33,0.04-0.45c0-0.02-0.01-0.05-0.02-0.07
			c-0.03-0.04-0.07-0.08-0.14-0.1c-0.15-0.05-0.35,0.1-0.54,0.16c0.01-0.03,0.03-0.05,0.04-0.08c0.01-0.03,0.02-0.04,0.03-0.07
			c0.01-0.06,0.02-0.12,0.01-0.19c-0.01-0.05-0.02-0.09-0.02-0.14l-0.02-0.07c-0.01-0.02-0.02-0.05-0.03-0.06
			c-0.02-0.05-0.04-0.09-0.06-0.14c-0.02-0.03-0.03-0.06-0.05-0.11c0-0.01-0.01-0.02-0.02-0.02c-0.04-0.09-0.09-0.18-0.13-0.28
			c-0.03-0.09-0.05-0.18-0.05-0.27c0-0.04,0-0.09,0.02-0.14c0.01-0.04,0.03-0.09,0.05-0.13c0.02-0.04,0.04-0.08,0.08-0.12
			c0.74,0.23,1.25,0.18,1.86,0.3c2.81,0.57,5.41-0.32,8-1.14c1.56-0.49,2.29-2.04,3.36-3.12c0.97-0.98,1.53-2.21,1.97-3.51
			c0.21-0.6,0.16-1.4,1.13-1.59c0.38-0.07,0.34-0.75,0.45-1.17c0.04-0.17,0.02-0.48-0.09-0.55c-0.22-0.14-0.41,0.04-0.58,0.22
			c-0.61,0.63-1.23,1.25-1.84,1.87c-0.83,0.54-1.5,1.32-2.43,1.72c-1.44,0.95-3.3,0.87-4.67,1.98c0.03-0.04,0.06-0.07,0.09-0.12
			c0.27-0.39,0.53-1.13,0.26-1.42c-0.24-0.27-1.17-0.03-0.95-0.31c0.58-0.77,3.26-1.52,4.28-1.87c0.88-0.31,1.66-0.91,2.48-1.38
			c0.31-0.18,0.66-0.35,0.51-0.82c0.19-0.36,0.38-0.72,0.58-1.09c1.27-0.52,2.61-0.86,3.77-1.62c0.63,0.51,0.23,1-0.06,1.46
			c-1.12,1.78-1.53,2.9-0.57,3.46c0.47,0.28-1.16,1.03-1.1,1.81c0.05,0.58,1.04,0.05,0.95,0.48c-0.22,1.13,0.31,1.22,1.04,1.47
			c0,0.04,0,0.08-0.01,0.12c-0.84,1.28-2.22,3.71-3.49,5.27c-0.01,0.02-0.03,0.03-0.04,0.05c-0.68,0.84-1.32,1.41-1.83,1.42
			c-0.13,0.01-0.27-0.04-0.38-0.12c-0.03-0.01-0.04-0.05-0.06-0.08c-0.16-0.45,1.09-1.97,1.49-2.91c0.06-0.17,0.1-0.32,0.11-0.44
			c0-0.08-0.06-0.15-0.14-0.17c-0.03-0.01-0.06-0.02-0.09-0.02c-0.37-0.08-0.94,0.12-1.52,0.41c-1.03,0.49-2.15,1.27-2.6,1.5
			c-0.48,0.25-1.18,0.44-1.59,0.79c-0.02,0.02-0.04,0.03-0.06,0.05c0,0.01-0.02,0.01-0.02,0.02c-0.27,0.05-0.54,0.15-0.77,0.28
			c-0.1,0.06-0.11,0.2-0.03,0.28c0,0.01,0.01,0.02,0.02,0.02c0.04,0.05,0.12,0.07,0.17,0.05c0.09-0.03,0.21-0.09,0.37-0.17
			c0.09,0.28,0.95,0.16-0.59,0.83l0,0.01c-0.52,0.21-1.27,0.4-2.01,0.46c-0.63,0.07-1.25,0.04-1.72-0.1
			c-0.22-0.06-0.3,0.28-0.08,0.35c0.03,0.01,0.06,0.02,0.09,0.02c-0.22,0.06-0.43,0.17-0.62,0.35
			C38.34,102.11,37.41,102.43,36.53,101.96z"/>
		<path fill="#D1A730" d="M50.23,96.94c0.04,0,0.06,0.01,0.09,0.02c0.08,0.02,0.14,0.09,0.14,0.17c-0.01,0.12-0.05,0.27-0.11,0.44
			c-0.04,0.03-0.09,0.04-0.15,0.04C50.01,97.64,50.12,97.29,50.23,96.94z"/>
		<path fill="#D1A730" d="M51.18,99.22c1.27-1.56,2.65-3.98,3.49-5.27c-0.04,0.31-0.12,0.6-0.23,0.87c-0.11,0.24-0.25,0.46-0.4,0.68
			c0,0.01,0,0.01-0.01,0.02c-0.28,0.4-0.62,0.78-0.93,1.16C52.43,97.5,51.87,98.43,51.18,99.22z"/>
		<path fill="#D1A730" d="M48.56,100.79l-0.01,0c0.1-0.09,0.2-0.2,0.32-0.3c0.02,0.03,0.03,0.06,0.06,0.08
			c0.11,0.09,0.25,0.13,0.38,0.12C49.09,100.84,48.87,100.98,48.56,100.79L48.56,100.79z"/>
		<path fill="#D1A730" d="M44.47,99.69c0.02-0.01,0.04-0.03,0.06-0.05c0.42-0.35,1.11-0.55,1.59-0.79c0.45-0.23,1.57-1.01,2.6-1.5
			c-0.36,0.34-0.75,0.69-1.14,0.93c-0.07,0.05-0.16,0.1-0.25,0.14c-0.28,0.15-0.55,0.29-0.83,0.41c-0.08,0.04-0.16,0.07-0.23,0.1
			c-0.09,0.04-0.19,0.08-0.28,0.12c-0.1,0.04-0.19,0.08-0.28,0.11C45.29,99.3,44.85,99.43,44.47,99.69z"/>
		<path fill="#D1A730" d="M43.83,100.34c-0.05,0.02-0.13,0-0.17-0.05c-0.01,0-0.02-0.01-0.02-0.02c-0.08-0.08-0.07-0.22,0.03-0.28
			c0.23-0.12,0.51-0.23,0.77-0.28c0,0.01-0.01,0.03-0.03,0.03c-0.12,0.08-0.23,0.18-0.33,0.31c0.03,0.02,0.07,0.03,0.1,0.05
			c0.04,0.01,0.08,0.02,0.12,0.03c0.34,0.07,0.61-0.13,0.91-0.12c-0.01,0.19-0.3,0.57-0.37,0.7c-0.41,0.1-0.82,0.2-1.23,0.29
			c1.55-0.67,0.68-0.54,0.59-0.83C44.04,100.25,43.91,100.31,43.83,100.34z"/>
		<path fill="#D1A730" d="M39.78,101.72c-0.22-0.07-0.14-0.41,0.08-0.35c0.47,0.14,1.09,0.16,1.72,0.1
			c-0.11,0.03-0.22,0.05-0.33,0.08c-0.46,0.1-0.93,0.06-1.38,0.19C39.84,101.74,39.81,101.72,39.78,101.72z"/>
		<polygon fill="#D1A730" points="48.56,100.8 48.55,100.79 48.56,100.79 		"/>
		<path d="M51.1,50.86c-0.01,0-0.01,0-0.02,0l0,0.01l0,0.01C51.08,50.87,51.1,50.87,51.1,50.86z"/>
		<path fill="#2B4F74" d="M64.42,57.53c0.02-0.08,0.05-0.15,0.07-0.23c0.04-0.06,0.09-0.11,0.14-0.15c0.05-0.05,0.1-0.09,0.14-0.15
			c0-0.01,0.01-0.03,0-0.04c-0.01-0.04-0.03-0.06-0.03-0.06c-1.45-1.25-2.56-2.75-3.52-4.43c-0.95-1.66-1.39-3.45-1.88-5.22
			c-0.48-1.72-0.97-3.54-0.03-5.33c0.16-0.3,0.34-0.74-0.12-1.04l-0.02-0.01c0.35-0.66,1.08-0.67,1.69-0.91
			c-0.16-0.17-0.3-0.31-0.43-0.45c0.77-0.47,1.5-1.04,2.32-1.41c3.25-1.46,5.66-0.72,7.61,2.44c-1.99-1.62-4-1.02-6.01-0.05
			c-0.64,0.3-1.15,0.76-1.36,1.44c-0.77,2.54-1.43,5.06,0.62,7.4c1.79,2.05,3.74,3.89,6.02,5.38c0.88,0.56,1.8,1.01,2.86,1.05
			c-0.05,1.25-0.91,0.65-1.53,0.7c-1.68,0.16-3.39,0.31-4.7,1.6C65.53,58.28,64.99,57.84,64.42,57.53z"/>
		<path fill="#5492A3" d="M56.07,52.63c-0.06-0.22-0.11-0.42-0.16-0.61c-0.04-0.16-0.07-0.32-0.12-0.47
			c-0.32-1.26-0.55-2.5-0.6-3.78c-0.07-1.41,0.2-2.84,0.89-4.14c0.33-0.62,0.75-1.21,1.28-1.76c-0.22,0.64-0.39,1.16-0.57,1.66
			c-0.09,0.27-0.22,0.56,0.24,0.59c0.32,0.02,0.6-0.19,0.52-0.49c-0.31-1.18,0.58-1.75,1.19-2.48c0.24-0.2,0.37-0.29,0.44-0.31
			l0-0.01l0.01,0c0.03,0.02-0.06,0.17-0.24,0.41c-0.83,1.33-0.95,2.92-1.55,4.34c-0.61,2.16-1.1,4.31,0.03,6.45
			c-0.04-0.23-0.09-0.46-0.11-0.7c-0.04-0.23-0.06-0.46-0.08-0.69c-0.01-0.1-0.02-0.21-0.03-0.3c-0.03-0.42-0.04-0.83-0.02-1.23
			c0-0.18,0.01-0.36,0.03-0.54c0.01-0.22,0.04-0.45,0.06-0.69c0.05-0.45,0.13-0.91,0.24-1.36c0.07-0.26,0.13-0.52,0.21-0.78
			c0.14-0.37,0.28-0.74,0.42-1.12c0.75,4.91,2.84,9.07,6.01,12.73c-0.01,0.05-0.02,0.12-0.04,0.17c-0.28,0.51-0.63,0.96-1.28,0.66
			c-0.71-0.33-1.17-0.02-1.62,0.47C58.5,57.54,56.86,55.48,56.07,52.63z"/>
		<path d="M51.16,51.72L51.16,51.72L51.16,51.72L51.16,51.72z M52.4,54.89L52.4,54.89l-0.01,0L52.4,54.89L52.4,54.89z"/>
		<path d="M51.5,53.56c-0.01,0-0.01,0-0.02-0.01l0,0.01L51.5,53.56L51.5,53.56z"/>
		<path d="M55.06,43.59c0.05-0.12,0.11-0.22,0.17-0.33c-0.03,0.03-0.05,0.06-0.07,0.1c-0.18,0.31-0.35,0.69-0.5,1.11
			c-0.26,0.69-0.48,1.5-0.6,2.29C54.28,45.59,54.66,44.43,55.06,43.59z M55.38,43.02c-0.02,0.02-0.03,0.04-0.05,0.07l-0.1,0.17
			C55.28,43.18,55.34,43.1,55.38,43.02z"/>
		<path fill="#4A7189" d="M51.1,50.86c-0.01,0-0.01,0-0.02,0l0,0.01l0,0.01C51.08,50.87,51.1,50.87,51.1,50.86z M51.16,51.72
			L51.16,51.72L51.16,51.72L51.16,51.72z"/>
		<path fill="#4A7189" d="M51.78,39.06c-0.43,1.36-0.58,3-0.74,3.93C51.26,41.83,51.58,40.27,51.78,39.06z"/>
		<path fill="#5492A3" d="M55.84,58.52c-0.28-0.18-0.55-0.34-0.83-0.52c0-0.04-0.12-0.17-0.13-0.19c-0.01-0.03-0.09-0.05-0.09-0.08
			c0-0.01-0.01-0.03-0.03-0.04c-0.02-0.03-0.04-0.07-0.07-0.1c-0.1-0.1-0.25-0.16-0.38-0.25c-0.1-0.11-0.35-0.29-0.55-0.56
			c-0.12-0.17-0.25-0.35-0.37-0.53c1.4-0.03,2.04,1.17,2.98,1.89C56.19,58.28,56.01,58.4,55.84,58.52z"/>
		<path d="M64.16,57.4c-3.17-3.66-5.26-7.82-6.01-12.73c-0.14,0.38-0.28,0.75-0.43,1.11l-0.31-0.18c0.6-1.42,0.72-3,1.55-4.34
			c0.18-0.24,0.28-0.39,0.24-0.41c0.45,0.3,0.27,0.74,0.12,1.04c-0.94,1.79-0.44,3.61,0.03,5.33c0.5,1.77,0.93,3.56,1.88,5.22
			c0.96,1.69,2.07,3.18,3.52,4.43c0,0,0.02,0.02,0.03,0.06c0.17,0.25,0.84,1.31,1.48,1.1c0.14,0.4,0,0.62-0.43,0.56
			C65.12,58.52,64.15,57.46,64.16,57.4z"/>
		<path d="M56.13,59.34c0.13-0.44-0.28-0.54-0.29-0.82c-0.28-0.18-0.55-0.34-0.83-0.52c0-0.04-0.12-0.17-0.13-0.19
			c-0.01-0.03-0.09-0.05-0.09-0.08c0-0.01-0.01-0.03-0.03-0.04c-0.02-0.03-0.04-0.07-0.07-0.1c-0.1-0.1-0.25-0.16-0.38-0.25
			c-0.1-0.11-0.35-0.29-0.55-0.56c-0.12-0.17-0.25-0.35-0.37-0.53c1.4-0.03,2.04,1.17,2.98,1.89c1.19,0.55,2.72,0.13,3.7,1.35
			c0.22,0.28,0.61,0.91,1.01,0.35c0.31-0.45-0.48-0.49-0.65-0.81c-0.03-0.04-0.02-0.1-0.01-0.16c0-0.02,0-0.04,0-0.06
			c0.04-0.03,0.07-0.05,0.11-0.05c0.11-0.03,0.22,0.03,0.33,0.06c0.15,0.05,0.38,0.26,0.36-0.14c-2.73-1.17-4.36-3.22-5.15-6.07
			c-0.06-0.22-0.11-0.42-0.16-0.61c-0.04-0.16-0.07-0.32-0.12-0.47c-0.32-1.26-0.55-2.5-0.6-3.78c-0.07-1.41,0.2-2.84,0.89-4.14
			c0.39-1.02,0.88-1.9,1.36-2.47c0.34-0.4,0.56-0.61,1.19-0.99c0.71-0.41,1.93-0.28,2.24-0.22c-0.16-0.17-0.3-0.31-0.43-0.45
			c-1.47-0.42-2.53,0.47-3.58,1.21c-0.9,0.62-1.68,1.42-2.29,2.35c0.57-2,1.81-3.33,3.83-3.97c-1.05-0.1-1.89,0.26-2.59,0.88
			c0,0,0,0,0,0.01c-0.11,0.09-0.21,0.18-0.3,0.28c-1.43,1.48-2.06,3.27-1.97,5.32c0.02,0.68,0.04,1.36-0.08,2.02
			c-0.34,1.92,0.02,3.56,1.32,5.11c0.92,1.09,1.47,2.51,2.11,3.87c-1.04-0.55-2.19-0.94-2.84-2.07c-0.51-0.88-0.91-1.89-1.52-2.69
			c-0.01-0.04-0.02-0.08-0.04-0.11c-0.1-0.24-0.22-0.31-0.39-0.75c-0.22-0.55-0.22-0.58-0.31-0.86c0-0.01-0.01-0.02-0.01-0.03
			c-0.04-0.1-0.08-0.23-0.14-0.42c-0.28-0.56-0.63-3.52-0.36-4.93c0.24-1.26,0.09-1.77,0.26-2.59c0.53-1.66,0.22-3.37,1.75-4.33
			c0.13-0.09,0.28-0.17,0.45-0.24c0.16-0.07,0.35-0.24,0.24-0.34c-1.03-0.91,0.28-1.23,0.54-1.49c0.13-0.12,0.25-0.24,0.38-0.36
			c0.09-0.09,0.18-0.16,0.28-0.24c1.56-1.38,3.37-2.44,5.15-3.54c0.81-0.5,3.13-0.66,4.92-0.42c1.14,0.16,1.97,0.65,2.34,0.75
			c2.02,0.55,3.01,1.65,3.93,3.3c0.26,0.46,0.26,1.04,0.17,1.61c-0.02,0.16-0.05,0.34-0.09,0.51c0.96-0.78,0.69-1.91-0.76-4
			c-0.94-1.34-2.57-1.4-3.84-2.15c2.92-0.24,5.47,0.39,7.25,2.95c0.81,1.17,1.82,2.23,1.08,3.79c-0.05,0.12-0.1,0.24-0.18,0.37
			c0.5-0.15,0.73-0.46,0.96,0.27c0.95,3.08,0.34,5.84-1.35,8.46c-0.1,0.15-0.12,0.37-0.17,0.56c-0.05,0.12-0.11,0.23-0.17,0.34
			c-0.51,1.01-1.3,1.9-2.15,2.51c-0.85,0.61-3.41,0.01-2.73-0.28c0.16-0.06,0.86-0.01,1.27-0.05c0.14-0.01,0.25-0.03,0.3-0.07
			c0.56-0.43-0.42-0.32-1.6-0.58c-0.53-0.12-0.59-0.14-1.23-0.31c-1.21-0.34-2.59-2.27-1.76-1.91c0.35,0.15,0.74,0.73,0.98,0.92
			c0.02,0.02,0.04,0.03,0.06,0.05c0.38,0.22,0.96-0.07,0.69-0.16c-0.14-0.06-0.28-0.11-0.41-0.17l-0.03-0.01
			c-1.1-0.59-1.7-1.65-1.09-3.61c1.35,0.39,2.56-0.05,3.35-1.21c0.25-0.36,0.51-0.71,0.77-1.06c-0.16-0.48-0.32-0.96-0.49-1.43
			c-1.99-1.62-4-1.02-6.01-0.05c-0.64,0.3-1.15,0.76-1.36,1.44c-0.77,2.54-1.43,5.06,0.62,7.4c1.79,2.05,3.74,3.89,6.02,5.38
			c0.88,0.56,1.8,1.01,2.86,1.05c0.01-0.51-0.43-0.54-0.74-0.62c-1.07-0.28-3.53-2.28-4.29-2.88c-2.06-1.62-3.24-3.73-3.94-6.19
			c-0.56-1.93,0.4-4.25,2.27-4.99c0.91-0.36,1.95-0.5,2.9-0.07c0.62,0.28,0.98,0.83,0.56,1.45c-0.32,0.47-0.81,1.16-1.51,0.42
			c-0.39-0.4-0.63-0.14-0.92,0.04c-1,0.65-1.62,2.64-1.3,3.84c0.3,1.1,1.14,1.77,1.85,2.57c1.77,1.96,3.16,2.35,5.61,1.43
			c2.36-0.89,4.85-5.16,4.84-7.68c-0.02-3.44-1.62-8.07-2.45-9.12c-0.56-0.72-2.84-3.18-3.82-3.6c-4.14-1.79-8.34-2.53-12.8-0.93
			c-4.7,1.69-7.64,7.08-8.98,12.08c-0.14,0.51-0.21,1.45-0.32,1.99c-0.34,1.81-0.15,7.68,0.61,9.52c0.37,0.89,2.25,3.43,2.78,4.11
			c0.04,0.06,0.08,0.1,0.11,0.14c0.3,0.35,0.43,0.32,1.01,0.57l1.04,0.89C55.28,59.03,55.69,59.18,56.13,59.34z M54.51,51.26
			c-0.12-0.22-0.36-0.88-0.44-1.09c-0.29-0.75-0.26-1.97-0.03-3.23c0.01-0.05,0.02-0.12,0.03-0.18c0.12-0.79,0.34-1.6,0.6-2.29
			c0.15-0.42,0.32-0.79,0.5-1.11c0.02-0.03,0.04-0.07,0.07-0.1l0.1-0.17c0.02-0.03,0.03-0.05,0.05-0.07
			c0.01-0.03,0.04-0.05,0.05-0.07c0.07-0.1,0.14-0.19,0.21-0.26c0.01,0,0.01,0,0.02-0.01c0.05-0.05,0.1-0.09,0.15-0.12
			c-0.08,1.53-0.96,3.96-0.95,5.64c0.01,0.13,0.01,0.26,0.03,0.38c0,0.01,0,0.02,0,0.04c0.01,0.05,0.01,0.14,0.04,0.28
			c0.01,0.05,0.02,0.11,0.03,0.19c0.16,1.04,0.58,3.37,0.55,3.43L54.51,51.26z M74.91,48.6c1.02-1.62,1.63-3.39,2.13-5.2
			C77.25,45.52,75.99,47.02,74.91,48.6z M54.84,33.86c0.04-0.08,0.3-0.16,0.37-0.23c0.07-0.06,0.14-0.11,0.18-0.15
			c0.02-0.04,0.03-0.09,0.02-0.13c0-0.01-0.02-0.03-0.04-0.06c-0.32-0.35-0.72,0.18-1.05,0.42c-0.13,0.11-0.28,0.2-0.45,0.23
			c1.39-2.42,3.44-3.48,5.73-4.09c0.26-0.07,0.52-0.13,0.78-0.19c0.79-0.18,1.61-0.31,2.43-0.43l0.02,0
			c0.05-0.02,0.18-0.04,0.33-0.04c0.02,0,0.05-0.01,0.09,0c0.21-0.02,0.62-0.09,0.9-0.08c0.12,0.01,0.76,0.07,0.91,0.08
			c1.86,0.01,4.56,0.79,6.26,1.94c-0.06,0-0.39-0.1-0.44-0.11c-0.17,0-0.46-0.05-0.74-0.11c-0.11-0.01-0.21-0.04-0.31-0.05
			c-0.11-0.03-0.22-0.04-0.29-0.05c-0.96-0.08-0.77-0.06-1.73-0.08c-0.15,0-0.89,0.16-1.55,0.15c-0.46-0.02-0.88-0.23-0.98-0.26
			c-0.15-0.05-0.69-0.14-1.16-0.2c-0.06-0.01-0.13-0.02-0.19-0.03c-0.08-0.01-0.15-0.02-0.23-0.04c-0.01,0-1.29,0.02-1.29,0.03
			c-0.06,0.01-0.12,0.03-0.19,0.04c-0.15,0.04-0.31,0.08-0.46,0.12c-0.94,0.26-1.91,0.65-2.75,1.22c-1.17,0.8-2.42,1.6-3.71,2.25
			c-0.09,0.05-0.19,0.1-0.29,0.15c-0.26,0.37-0.56,0.71-1.01,0.91c0.01-0.08,0.03-0.17,0.06-0.24
			C54.18,34.37,54.44,34.06,54.84,33.86z M52.66,55.06c-0.04-0.03-0.08-0.07-0.13-0.08c-0.05-0.04-0.09-0.06-0.13-0.09l0,0.01
			l-0.01,0l-0.07-0.12c-0.03-0.03-0.06-0.06-0.09-0.08c-0.09-0.08-0.18-0.17-0.26-0.26c-0.11-0.12-0.23-0.23-0.32-0.33
			c-0.09-0.1-0.17-0.19-0.23-0.24c-0.02-0.02-0.04-0.03-0.05-0.05c-0.27-0.3-0.51-0.75-0.7-1.29c-0.45-1.18-0.69-2.81-0.71-4.17
			c0-0.01,0-0.04,0-0.04c-0.14-1.64-0.17-3.11-0.16-3.52c0.01-0.11,0.02-0.23,0.03-0.35c0.01-0.17,0.03-0.35,0.06-0.54
			c-0.01,0-0.01,0,0-0.01c0.01-0.12,0.03-0.24,0.05-0.37c0.06-0.45,0.15-0.94,0.26-1.44c0.1-0.5,0.21-1.01,0.35-1.49l0-0.01
			c0.12-0.45,0.24-0.89,0.38-1.28c0.07-0.23,0.19-0.55,0.33-0.9c0.03-0.07,0.07-0.16,0.1-0.24l0.02-0.04
			c0.45-1.09,1.04-2.35,1.28-2.47c1.24-1.64,1.48-0.69-0.3,2.11c-0.24,0.37-0.43,0.83-0.59,1.31c-0.2,1.21-0.51,2.77-0.74,3.93
			c-0.01,0.08-0.02,0.16-0.04,0.23c-0.02,0.16-0.04,0.32-0.08,0.47c-0.05,0.34-0.1,0.6-0.11,0.76c-0.1,0.81,0.03,1.13-0.04,1.94
			c0.03,0.7,0.06,1.19,0.11,1.68c0.06,0.4,0.12,0.83,0.18,1.24c0,0,0,0,0,0.01c0.16,1.03,0.35,2.02,0.7,2.72
			c-0.02,0.04,2.72,3.89,2.7,3.94c0,0-1.39-0.73-1.77-0.91C52.67,55.07,52.67,55.07,52.66,55.06z M57.21,57.15
			c0.38,0.05,0.65,0.38,0.57,0.64c-0.14,0.46-0.62,0.32-0.89,0.14c-0.4-0.24-0.74-0.59-1.26-1.03C56.3,57,56.76,57.08,57.21,57.15z"
			/>
		<path fill="#2B4F74" d="M55.5,52.52l-0.99-1.26c-0.12-0.22-0.36-0.88-0.44-1.09c-0.29-0.75-0.26-1.97-0.03-3.23
			c0.01-0.05,0.02-0.12,0.03-0.18c0.21-1.18,0.59-2.34,0.99-3.17c0.05-0.12,0.11-0.22,0.17-0.33c0.05-0.09,0.11-0.17,0.15-0.25
			c0.01-0.03,0.04-0.05,0.05-0.07c0.07-0.1,0.14-0.19,0.21-0.26c0.01,0,0.01,0,0.02-0.01c0.05-0.05,0.1-0.09,0.15-0.12
			c-0.08,1.53-0.96,3.96-0.95,5.64c0.01,0.13,0.01,0.26,0.03,0.38c0,0.01,0,0.02,0,0.04c0.01,0.05,0.01,0.14,0.04,0.28
			c0.01,0.05,0.02,0.11,0.03,0.19C55.11,50.13,55.54,52.46,55.5,52.52z"/>
		<polygon points="51.49,53.57 51.48,53.56 51.5,53.56 		"/>
		<path d="M51.48,53.56l0-0.01c0.01,0,0.01,0,0.02,0.01L51.48,53.56z"/>
		<path d="M40.28,95.16c0-0.01,0-0.04,0-0.06c0.03-0.28,0.24-0.34,0.5-0.38c0.37-0.08,1.01-0.02,1.29-0.23
			c0.28-0.22,1-0.84,1.21-1.14c0.25-0.36,0.33-1.2-0.89-1.09c-0.28-0.01-0.86,0.38-1.14,0.33c-0.39-0.07-0.69-0.35-0.69-0.72
			c0-0.04,0.01-0.08,0.01-0.1c0.08-0.35,0.68,0.01,0.93-0.06c2.15-0.68,4.48-1.43,6.38-2.49c0.71-0.4,1.06-1.15,1.82-1.33
			c0.11-0.02,0.23-0.03,0.36-0.03c0.15,0.46-0.2,0.64-0.51,0.82c-0.82,0.47-1.6,1.07-2.48,1.38c-1.02,0.36-3.69,1.1-4.28,1.87
			c-0.22,0.28,0.71,0.03,0.95,0.31c0.27,0.3,0,1.03-0.26,1.42c-0.03,0.05-0.06,0.08-0.09,0.12c1.37-1.11,3.23-1.03,4.67-1.98
			c0.05,0.06,0.08,0.11,0.1,0.16c0.27,0.47-0.4,0.42-0.91,0.6c-0.83,0.28-1.6,0.41-2.43,0.7c-0.77,0.27-1.54,0.67-2,1.33
			c-0.28,0.39-0.5,0.9-1.57,0.84C41.04,95.42,40.34,95.4,40.28,95.16z"/>
		<path fill="#C62B33" d="M26.2,103.73c0.04-0.01,0.08-0.02,0.13-0.04l0.01,0.03C26.29,103.72,26.25,103.72,26.2,103.73z"/>
		<path fill="#5492A3" d="M54.04,54.51c-0.51-0.88-0.91-1.89-1.52-2.69c-0.01-0.04-0.02-0.08-0.04-0.11
			c-0.1-0.24-0.22-0.31-0.39-0.75c-0.22-0.55-0.22-0.58-0.31-0.86c0-0.01-0.01-0.02-0.01-0.03c-0.04-0.1-0.08-0.23-0.14-0.42
			c-0.28-0.56-0.63-3.52-0.36-4.93c0.24-1.26,0.09-1.77,0.26-2.59c0.53-1.66,0.22-3.37,1.75-4.33c0.13-0.09,0.28-0.17,0.45-0.24
			c0.16-0.07,0.35-0.24,0.24-0.34c-1.03-0.91,0.28-1.23,0.54-1.49c0.13-0.12,0.25-0.24,0.38-0.36c0.09-0.09,0.18-0.16,0.28-0.24
			c0.14-0.12,0.28-0.22,0.42-0.32c0.1-0.08,0.21-0.15,0.31-0.21c0-0.01,0.02-0.01,0.03-0.02c1.46-0.96,3.19-1.51,4.68-2.47
			c0.88-0.56,5.5-0.31,6.71,0.03c2.03,0.57,3.15,1.66,4.07,3.31c0.24,0.45,0.32,0.89,0.29,1.39c-0.02,0.16-0.05,0.34-0.09,0.51
			c0.96-0.78,0.69-1.91-0.76-4c-0.94-1.34-2.57-1.4-3.84-2.15c2.76,0.11,5.1,1.02,6.89,3.4c0.88,1.18,2,2.04,1.45,3.34
			c-0.05,0.12-0.1,0.24-0.18,0.37c0.5-0.15,0.73-0.46,0.96,0.27c0.95,3.08,0.34,5.84-1.35,8.46c-0.1,0.15-0.12,0.37-0.17,0.56
			c-0.54-0.14-0.7,0.64-1.46,0.48c1.89-1.4,2.18-3.42,2.61-5.38c0.37-1.68-0.97-4.79-2.35-5.58c-0.19-0.11-0.37-0.2-0.53,0
			c-0.11,0.13-0.03,0.28,0.06,0.43c0.77,1.33,1.36,2.73,1.74,4.21c0.38,1.55-0.06,3.37-1.12,4.13c1.21-2.21-0.08-3.96-0.89-5.82
			c0.29,1.48-0.58,2.62-0.98,3.89c-0.08,0.24-0.21,0.6-0.57,0.5c-0.4-0.12-0.15-0.44-0.11-0.7c0.12-0.61,0.45-1.24-0.15-1.78
			c-0.16-0.48-0.32-0.96-0.49-1.43c-1.95-3.16-4.36-3.9-7.61-2.44c-0.81,0.37-1.55,0.93-2.32,1.41c-1.47-0.42-2.53,0.47-3.58,1.21
			c-0.9,0.62-1.68,1.42-2.29,2.35c0.57-2,1.81-3.33,3.83-3.97c-0.69-0.47-1.82,0.17-2.59,0.88c0,0,0,0,0,0.01
			c-0.11,0.09-0.21,0.18-0.3,0.28c-1.43,1.48-2.06,3.27-1.97,5.32c0.02,0.68,0.04,1.36-0.08,2.02c-0.34,1.92,0.02,3.56,1.32,5.11
			c0.92,1.09,1.47,2.51,2.11,3.87C55.84,56.02,54.69,55.63,54.04,54.51z"/>
		<path fill="#5492A3" d="M55.94,34.57c1.43-1.01,3.04-1.75,4.52-2.71c0.88-0.56,5.66-0.07,6.87,0.27
			c-1.21-0.34-5.83-0.59-6.71-0.03C59.13,33.06,57.4,33.61,55.94,34.57z"/>
		<path fill="#5492A3" d="M55.79,39.96c0.78-0.71,1.91-1.35,2.59-0.88C57.34,38.98,56.5,39.33,55.79,39.96z"/>
		<path fill="#B2BCC8" d="M69.54,50.15c0.16-0.06,0.86-0.01,1.27-0.05c0.14-0.01,0.25-0.03,0.3-0.07c0.56-0.43-0.42-0.32-1.6-0.58
			c-0.53-0.12-0.59-0.14-1.23-0.31c-1.21-0.34-2.59-2.27-1.76-1.91c0.35,0.15,0.74,0.73,0.98,0.92c0.02,0.02,0.04,0.03,0.06,0.05
			c0.38,0.22,0.96-0.07,0.69-0.16c-0.14-0.06-0.28-0.11-0.41-0.17l-0.03-0.01c-1.1-0.59-1.7-1.65-1.09-3.61
			c1.35,0.39,2.56-0.05,3.35-1.21c0.25-0.36,0.51-0.71,0.77-1.06c0.6,0.54,0.27,1.17,0.15,1.78c-0.04,0.26-0.29,0.58,0.11,0.7
			c0.35,0.11,0.49-0.25,0.57-0.5c0.4-1.27,1.27-2.41,0.98-3.89c0.81,1.87,2.1,3.61,0.89,5.82c1.06-0.76,1.5-2.59,1.12-4.13
			c-0.38-1.49-0.97-2.89-1.74-4.21c-0.09-0.15-0.16-0.3-0.06-0.43c0.16-0.2,0.34-0.11,0.53,0c1.38,0.79,2.72,3.89,2.35,5.58
			c-0.43,1.96-0.73,3.99-2.61,5.38c0.76,0.16,0.92-0.62,1.46-0.48c-0.05,0.12-0.11,0.23-0.17,0.34c-0.51,1.01-1.3,1.9-2.15,2.51
			C71.42,51.05,68.86,50.45,69.54,50.15z"/>
		<path fill="#B8B8B7" d="M74.91,48.6c1.02-1.62,1.63-3.39,2.13-5.2C77.25,45.52,75.99,47.02,74.91,48.6z"/>
		<path fill="#4A7189" d="M51.08,50.88l0-0.01l0-0.01c0.01,0,0.01,0,0.02,0C51.1,50.87,51.08,50.87,51.08,50.88z"/>
		<polygon points="59.19,40.85 59.19,40.86 59.18,40.85 		"/>
		<path d="M58.95,41.28l0.24-0.42l0.01,0C59.23,40.88,59.13,41.03,58.95,41.28z"/>
		<path d="M57.43,52.06c-1.14-2.14-0.65-4.3-0.03-6.45l0.31,0.18c-0.08,0.26-0.14,0.52-0.2,0.78c-0.1,0.45-0.19,0.9-0.24,1.36
			c-0.03,0.22-0.05,0.45-0.06,0.69c-0.02,0.17-0.03,0.35-0.03,0.54c-0.02,0.4-0.01,0.81,0.02,1.23c0,0.09,0.01,0.2,0.03,0.3
			c0.02,0.23,0.04,0.46,0.08,0.69C57.35,51.6,57.39,51.83,57.43,52.06z"/>
		<path fill="#2B4F74" d="M55.23,43.27l0.1-0.17c0.02-0.03,0.03-0.05,0.05-0.07C55.34,43.1,55.28,43.18,55.23,43.27z"/>
		<path fill="#2B4F74" d="M54.07,46.77c0.12-0.79,0.34-1.6,0.6-2.29c0.15-0.42,0.32-0.79,0.5-1.11c0.02-0.03,0.04-0.07,0.07-0.1
			c-0.06,0.1-0.12,0.21-0.17,0.33C54.66,44.43,54.28,45.59,54.07,46.77z"/>
		<path d="M55.61,50.71c-0.14-0.72-0.22-1.42-0.32-2.33c-0.16-1.53,0.22-3.28,0.8-4.75c-0.7,1.3-0.96,2.73-0.89,4.14
			c0.05,1.28,0.28,2.52,0.6,3.78C55.72,51.27,55.67,50.99,55.61,50.71z M55.06,43.59c-0.13,0.26-0.27,0.56-0.39,0.88
			c-0.26,0.69-0.48,1.5-0.6,2.29C54.28,45.59,54.66,44.43,55.06,43.59z M55.38,43.02c-0.02,0.02-0.03,0.04-0.05,0.07l-0.1,0.17
			C55.28,43.18,55.34,43.1,55.38,43.02z M51.78,39.06c-0.43,1.36-0.58,3-0.74,3.93C51.26,41.83,51.58,40.27,51.78,39.06z
			 M58.39,39.08c-0.69-0.47-1.82,0.17-2.59,0.88C56.5,39.33,57.34,38.98,58.39,39.08z M54.96,33.97c0.04-0.08,0.11-0.13,0.18-0.2
			c0.08-0.08,0.22-0.19,0.25-0.3c-0.04,0.05-0.11,0.09-0.18,0.15c-0.07,0.06-0.33,0.15-0.37,0.23c-0.4,0.2-0.66,0.51-0.77,0.98
			C54.22,34.41,54.56,34.16,54.96,33.97z M62.8,29.24L62.8,29.24c-0.82,0.11-1.64,0.25-2.43,0.42
			C61.17,29.49,61.98,29.36,62.8,29.24z M64.63,29.25c0.12,0.01,0.24,0.02,0.36,0.04c2.03-0.17,3.71,0.75,5.44,1.47
			c-0.06,0-0.13,0-0.18-0.01c0.22,0.09,0.43,0.18,0.64,0.27c0.05,0.01,0.38,0.11,0.44,0.11c-1.71-1.14-4.4-1.92-6.26-1.94
			c-0.15,0-0.79-0.07-0.91-0.08c-0.28-0.01-0.7,0.06-0.9,0.08C63.53,29.2,64.34,29.23,64.63,29.25z"/>
		<path fill="#2B4F74" d="M54.45,55.98c0.02-0.04-2.72-3.89-2.7-3.94c-0.35-0.7-0.54-1.69-0.7-2.72c0-0.01,0-0.01,0-0.01
			c-0.06-0.41-0.12-0.83-0.18-1.24c-0.05-0.49-0.08-0.98-0.11-1.68c0.07-0.81-0.05-1.13,0.04-1.94c0.01-0.17,0.06-0.43,0.11-0.76
			c0.04-0.15,0.06-0.31,0.08-0.47c0.02-0.07,0.03-0.15,0.04-0.23c0.16-0.93,0.31-2.57,0.74-3.93c0.16-0.48,0.35-0.94,0.59-1.31
			c1.78-2.81,1.55-3.75,0.3-2.11c-0.24,0.12-0.83,1.38-1.28,2.47l-0.02,0.04c-0.04,0.08-0.07,0.17-0.1,0.24
			c-0.14,0.36-0.26,0.67-0.33,0.9c-0.14,0.39-0.26,0.83-0.38,1.28l0,0.01c-0.13,0.49-0.24,1-0.35,1.49
			c-0.1,0.51-0.19,0.99-0.26,1.44c-0.02,0.13-0.04,0.25-0.05,0.37c-0.01,0-0.01,0,0,0.01c-0.03,0.19-0.05,0.37-0.06,0.54
			c-0.01,0.12-0.02,0.24-0.03,0.35c-0.01,0.41,0.01,1.88,0.16,3.52c0,0.01-0.01,0.03,0,0.04c0.01,1.36,0.26,2.99,0.71,4.17
			c0.19,0.54,0.43,0.99,0.7,1.29c0.01,0.02,0.03,0.03,0.05,0.05c0.06,0.06,0.14,0.15,0.23,0.24c0.09,0.1,0.21,0.21,0.32,0.33
			c0.08,0.09,0.17,0.18,0.26,0.26c0.03,0.03,0.06,0.06,0.09,0.08l0.07,0.12l0-0.01l0.01,0c0.04,0.02,0.09,0.05,0.13,0.09
			c0.05,0.02,0.09,0.05,0.13,0.08c0.01,0,0.01,0,0.02,0.01C53.06,55.25,54.45,55.98,54.45,55.98z M51.07,50.87L51.07,50.87
			c0.01,0,0.02-0.01,0.03-0.01c0,0.01-0.02,0.01-0.02,0.02L51.07,50.87z M51.15,51.71L51.15,51.71l0,0.01L51.15,51.71z M51.48,53.56
			l0-0.01c0.01,0,0.01,0,0.02,0.01L51.48,53.56L51.48,53.56z"/>
		<path fill="#5492A3" d="M54.01,35.08c0.01-0.08,0.03-0.17,0.06-0.24c0.15-0.43,0.49-0.67,0.89-0.87c0.04-0.08,0.11-0.13,0.18-0.2
			c0.08-0.08,0.22-0.19,0.25-0.3c0.02-0.04,0.03-0.09,0.02-0.13c0-0.01-0.02-0.03-0.04-0.06c-0.32-0.35-0.72,0.18-1.05,0.42
			c1.77-2.48,4.36-3.27,7.12-3.77c0.01,0,0.04,0,0.07-0.01c0.54-0.06,3.31-0.31,3.52-0.34c0.12,0,0.23-0.01,0.34,0.01
			c0.26-0.01,0.51,0.01,0.75,0.05l0.01,0c1.13,0.15,2.16,0.59,3.19,1.04l0.23,0.13c-0.96-0.08-0.77-0.06-1.73-0.08
			c-0.15,0-0.89,0.16-1.55,0.15c-0.46-0.02-0.88-0.23-0.98-0.26c-0.15-0.05-0.69-0.14-1.16-0.2c-0.06-0.01-0.13-0.02-0.19-0.03
			c-0.08-0.01-0.15-0.02-0.23-0.04c-0.01,0-1.29,0.02-1.29,0.03c-0.06,0.01-0.12,0.03-0.19,0.04c-0.15,0.04-0.31,0.08-0.46,0.12
			c-0.94,0.26-1.91,0.65-2.75,1.22c-1.17,0.8-2.42,1.6-3.71,2.25c-0.09,0.05-0.19,0.1-0.29,0.15
			C54.76,34.54,54.46,34.88,54.01,35.08z"/>
		<path fill="#5492A3" d="M54.07,34.84c0.11-0.46,0.37-0.78,0.77-0.98c0.04-0.08,0.3-0.16,0.37-0.23c0.07-0.06,0.14-0.11,0.18-0.15
			c-0.03,0.11-0.17,0.22-0.25,0.3c-0.07,0.06-0.14,0.12-0.18,0.2C54.56,34.16,54.22,34.41,54.07,34.84z"/>
		<path fill="#B2BCC8" d="M53.86,33.94c1.39-2.42,3.44-3.48,5.73-4.09c0.26-0.07,0.52-0.13,0.78-0.19c0.8-0.17,1.6-0.3,2.43-0.42
			l0-0.01l0.02,0c0.05-0.02,0.18-0.04,0.33-0.04c0.02,0,0.05-0.01,0.09,0c0.21-0.02,0.62-0.09,0.9-0.08
			c0.12,0.01,0.76,0.07,0.91,0.08c1.86,0.01,4.56,0.79,6.26,1.94c-0.06,0-0.39-0.1-0.44-0.11c-0.17,0-0.46-0.05-0.74-0.11
			c-0.11-0.01-0.21-0.04-0.31-0.05c-0.11-0.03-0.22-0.04-0.29-0.05l-0.23-0.13c-1.04-0.44-2.06-0.88-3.19-1.04l-0.01,0
			c-0.24-0.03-0.49-0.06-0.75-0.05c-0.11-0.01-0.22-0.01-0.34-0.01c-0.21,0.03-2.98,0.28-3.52,0.34c-0.04,0-0.06,0-0.07,0.01
			c-2.76,0.49-5.35,1.29-7.12,3.77C54.18,33.82,54.03,33.91,53.86,33.94z"/>
		<path fill="#B2BCC8" d="M60.37,29.66c0.79-0.18,1.61-0.31,2.43-0.43l0,0.01C61.98,29.36,61.17,29.49,60.37,29.66z"/>
		<path fill="#2B4F74" d="M56.89,57.93c-0.4-0.24-0.74-0.59-1.26-1.03c0.67,0.1,1.13,0.18,1.58,0.25c0.38,0.05,0.65,0.38,0.57,0.64
			C57.64,58.25,57.17,58.11,56.89,57.93z"/>
		<g id="XMLID_00000059276531750577524670000008954198242883923133_">
			<path fill="#6F7734" d="M98.89,76.22c0.37,0.14,0.72,0.33,1.06,0.54c0.88,0.16,1.37,0.63,1.7,1.23c0.12,0.08,1.5,0.85,1.61,0.93
				c0.77,0.54,0.2,0.37-0.92,0.48c-1.14-0.6-2.03-1.63-3.37-1.93c-0.39-0.08-0.75-0.26-1.15-0.15c-0.56-0.39-0.83-0.59-1.51-0.83
				c-0.18-0.07-0.43-0.11-0.46-0.32c-0.01-0.03-0.01-0.06,0-0.1c0.05-0.29,0.33-0.31,0.57-0.28c0.05,0.01,0.11,0.01,0.15,0.02
				c0,0,0.01,0,0.01,0c0.01,0,0.02,0,0.03,0.01c0.01,0,0.03,0.01,0.04,0c0.02,0,0.05,0.01,0.08,0.01c0.31,0.04,0.63,0.07,0.94,0.1
				c0.04,0,0.08,0.01,0.11,0.01C98.15,76,98.52,76.09,98.89,76.22z"/>
			<path fill="#6F7734" d="M88.04,79.83c0.1-0.55,0.66-0.17,1.01-0.18c0,0.17-0.02,0.34-0.03,0.5c-0.3,0.38-0.28,0.8-0.17,1.25
				c0.23,0.98,1.08,1.87,0.42,2.98c-0.01,0.02-0.02,0.05,0,0.08c0.02,0.08,0.09,0.2,0.15,0.28c0.01,0.02,0.03,0.04,0.04,0.06
				c1.46,2.55,5.24,8.02,8.32,9.7c-0.48-0.11-1.2-0.47-2.01-0.96c-0.06-0.04-0.12-0.08-0.19-0.12c-1.75-1.1-3.81-2.71-4.52-3.47
				c-1.85-1.99-3.34-4.2-3.52-7.08C87.47,81.78,87.87,80.84,88.04,79.83z"/>
			<path fill="#BEC43F" d="M106.72,101.93l-0.01-0.02c-0.04-0.08-0.08-0.17-0.11-0.25c0.02-0.04,0.01-0.08-0.03-0.11
				c-0.01-0.09-0.03-0.18-0.04-0.26c-0.84-2.7-2.96-4.19-5.15-5.68c-2.51-1.72-5.3-3.1-7.26-5.51c-2.3-2.8-4.09-5.9-4.68-9.57
				c-0.04-0.24-0.23-0.3-0.42-0.38c0.01-0.17,0.02-0.33,0.03-0.5c4.88,0.78,8.84,2.94,10.33,10.48c0.13-2.37-0.78-4.45-2.03-6.63
				c2.92,1.73,5.12,3.92,6.76,6.68c0.34,0.59,0.72,0.82,0.04,1.87c-0.27,0.41-0.26,1-0.08,1.56c0.56-0.25,0.48-0.85,0.8-1.3
				c0.78,1.36,1.46,2.71,1.72,4.25c0.44-1.53-0.41-2.73-0.98-4.14c1.59,0.29,2.41,1.64,3.78,2.1c-0.74-1.39-2.29-1.95-3.49-3.02
				c1.07-0.48,1.89,0.99,2.9,0.13c-0.8-0.29-1.81-0.51-2.57-0.67c-0.2-0.33-0.94-1.53-1.07-1.71c-0.65-1.01-1.3-2-1.95-3
				c1.59,0.24,3.05,0.99,4.88,1.18c-0.26-0.26-0.33-0.38-0.41-0.41c-1.89-0.59-3.79-1.16-5.68-1.73c-0.33-0.09-0.33-0.01-0.68,0.18
				c-0.9-0.95-1.78-1.25-2.93-2.36c-0.92-0.89-0.81-1.09,0.45-1.48c1.2-0.37,2.48-0.43,3.55,0.65c-0.04-1.27-1.93-1.77-3.71-1.04
				c-1.7,1.09-2.89,0.37-4.19-0.9c-0.97-0.95-2.28-1.58-3.62-2.01c-0.22-0.08-0.51-0.13-0.54-0.39c-0.02-0.24,0.25-0.36,0.45-0.51
				c1.77-1.29,4.67-1.18,6.82,0.27c0.17,0.12,0.36,0.47,0.56,0.23c0.28-0.32-0.18-0.43-0.32-0.63c0.4-0.11,0.76,0.07,1.15,0.15
				c1.33,0.3,2.22,1.33,3.37,1.93c2.08,0.08,2.61,1.52,2.95,3.21c0.09,0.44,0.16,0.96,0.61,1.27c0.45,0.33,0.89,0.67,1.34,1.02
				c0.27-0.58,0.04-1.09-0.26-1.57c0.21,0.29,0.88,1.19,1.59,2.44c-0.22-0.19-0.55-0.38-0.98-0.58c0.06,0.67,1.05,1.71,1.08,1.79
				c0.31-0.29,0.27-0.3,0.28-0.54c0.26,0.51,0.53,1.07,0.77,1.66c0.03,0.06,0.07,0.13,0.09,0.21c0.18,0.44,0.34,0.9,0.48,1.37
				c0.88,2.98,0.56,6.41,0.07,7.71c-0.1,0.21-0.19,0.42-0.29,0.64c-0.27,0.57-0.32,0.74-0.77,1.76c-0.63,1.15-0.7,2.11-1.94,2.48
				C107,102.31,106.82,102.16,106.72,101.93z"/>
			<path d="M97.78,94.49c-3.08-1.68-6.87-7.15-8.32-9.7C91.25,87.25,95.12,92.69,97.78,94.49z"/>
			<path fill="#6F7734" d="M106.21,90.97c-0.33-0.06-0.61-0.11-0.82-0.16c-0.52-0.35-2.38-3.33-3.78-4.69l-0.01,0
				c0.58-0.46,1.06,0.12,1.58,0.14c0.65,1,1.3,1.99,1.95,3C105.27,89.45,106.01,90.64,106.21,90.97z"/>
			<path fill="#6F7734" d="M85.67,78.48c2.13-0.83,3.75,0.01,5.39,0.64C89.4,78.71,87.68,78.57,85.67,78.48z"/>
			<path fill="#6F7734" d="M110.46,90.34c-0.25-0.19-1.19-2.13-2.34-3.84c-0.88-1.31-2.03-2.48-2.23-2.63
				c0.04-0.15-0.17-0.49-0.13-0.64c0.1-0.4-1.01-1.86-0.3-2.02c0.5-0.12,1.21,1.67,1.46,2.04c0.02,0.02,0.19,0.08,0.21,0.1
				C107.93,83.62,111.11,89.6,110.46,90.34z"/>
			<path d="M107.06,103.22c1.39,0.23,2.3-2.15,2.5-2.59c0,0,0.96-2.03,1.42-3.54c0.42-1.36,0.49-2.82,0.49-3
				c-0.03-4.74-2.05-8.76-4.82-12.4c-1.68-2.23-3.99-3.84-6.34-5.34c-0.5-0.32-0.68-0.47-1.5-0.81c-0.29-0.11-0.71-0.16-1.02-0.18
				c-1.33-0.1-1.92-0.12-3.52,0.18c-1.64,0.31-3.27,0.58-4.88,0.99c-2.18,0.57-4.21,1.63-6.43,2.04c-0.5,0.09-1.19,0.61-1.14,0.7
				c0.47,1.1-0.8,1-1.03,1.58c-0.06,0.15-0.31,0.24-0.28,0.64c2.16-1.4,4.38-2.47,7.04-1.97c-0.63,2.04-0.84,4.98-0.29,5.99
				c1.73,3.27,3.82,6.21,7.13,8.14c2.4,1.38,5.04,2.17,7.45,3.51c1.79,1,3.36,2.28,3.85,4.38
				C106.22,102.78,106.55,103.08,107.06,103.22z M85.67,78.48c2.13-0.83,3.75,0.01,5.39,0.64C89.4,78.71,87.68,78.57,85.67,78.48z
				 M106.72,101.93l-0.01-0.02c-0.04-0.08-0.08-0.17-0.11-0.25c0.02-0.04,0.01-0.08-0.03-0.11c-0.01-0.09-0.03-0.18-0.04-0.26
				c-0.84-2.7-2.96-4.19-5.15-5.68c-2.51-1.72-5.3-3.1-7.26-5.51c-2.3-2.8-4.09-5.9-4.68-9.57c-0.04-0.24-0.23-0.3-0.42-0.38
				c-0.3,0.38-0.28,0.8-0.17,1.25c0.23,0.98,1.08,1.87,0.42,2.98c-0.01,0.02-0.02,0.05,0,0.08c0.01,0.04,0.03,0.09,0.06,0.14
				c0.03,0.04,0.06,0.09,0.09,0.14c0.01,0.02,0.03,0.04,0.04,0.06c1.8,2.46,5.67,7.9,8.32,9.7c-0.48-0.11-1.2-0.47-2.01-0.96
				c-0.06-0.03-0.12-0.08-0.19-0.12c-1.75-1.1-3.81-2.71-4.52-3.47c-1.85-1.99-3.34-4.2-3.52-7.08c-0.07-1.08,0.33-2.03,0.5-3.03
				c0.1-0.55,0.66-0.17,1.01-0.18c4.88,0.78,8.84,2.94,10.33,10.48c0.13-2.37-0.78-4.45-2.03-6.63c2.92,1.73,5.12,3.92,6.76,6.68
				c0.34,0.59,0.72,0.82,0.04,1.87c-0.27,0.41-0.26,1-0.08,1.56c0.56-0.25,0.48-0.85,0.8-1.3c0.78,1.36,1.46,2.71,1.72,4.25
				c0.44-1.53-0.41-2.73-0.98-4.14c1.59,0.29,2.41,1.64,3.78,2.1c-0.74-1.39-2.29-1.95-3.49-3.02c1.07-0.48,1.89,0.99,2.9,0.13
				c-0.8-0.29-1.81-0.51-2.57-0.67c-0.33-0.06-0.61-0.11-0.82-0.16c-0.52-0.35-2.38-3.33-3.78-4.69l-0.01,0
				c0.58-0.46,1.06,0.12,1.58,0.14c1.59,0.24,3.05,0.99,4.88,1.18c-0.26-0.26-0.33-0.38-0.41-0.41c-1.89-0.59-3.79-1.16-5.68-1.73
				c-0.33-0.09-0.33-0.01-0.68,0.18c-0.9-0.95-1.78-1.25-2.93-2.36c-0.92-0.89-0.81-1.09,0.45-1.48c1.2-0.37,2.48-0.43,3.55,0.65
				c-0.04-1.27-1.93-1.77-3.71-1.04c-1.7,1.09-2.89,0.37-4.19-0.9c-0.97-0.95-2.28-1.58-3.62-2.01c-0.22-0.08-0.51-0.13-0.54-0.39
				c-0.02-0.24,0.25-0.36,0.45-0.51c1.77-1.29,4.67-1.18,6.82,0.27c0.17,0.12,0.36,0.47,0.56,0.23c0.28-0.32-0.18-0.43-0.32-0.63
				c-0.56-0.39-0.83-0.59-1.51-0.83c-0.18-0.07-0.43-0.11-0.46-0.32c-0.01-0.03-0.01-0.06,0-0.1c0.05-0.29,0.33-0.31,0.57-0.28
				c0.05,0.01,0.11,0.01,0.15,0.02c0.01,0,0.01,0,0.01,0c0.01,0,0.02,0,0.03,0.01c0.02,0,0.03,0.01,0.04,0
				c0.03,0.01,0.05,0.01,0.08,0.01c0.32,0.03,0.63,0.06,0.94,0.1c0.04,0,0.08,0.01,0.11,0.01c0.37,0.06,0.75,0.14,1.11,0.28
				c0.37,0.14,0.72,0.33,1.06,0.54c0.59,0.36,1.14,0.8,1.7,1.23c0.12,0.08,0.22,0.16,0.33,0.24c1.03,0.81,1.68,0.91,0.36,1.16
				c2.08,0.08,2.61,1.52,2.95,3.21c0.09,0.44,0.16,0.96,0.61,1.27c0-0.02,0.01-0.04,0.01-0.08c0.01-0.2-0.07-0.63-0.07-0.89
				c-0.01-0.41-0.61-1.85-0.08-1.34c0.6,0.59,0.86,1.15,1.09,1.52c0.03,0.06,0.07,0.12,0.1,0.17c0.02,0.02,0.03,0.05,0.05,0.07
				c0.21,0.29,0.88,1.19,1.59,2.44c0.12,0.23,0.22,0.38,0.38,0.67c0.26,0.51,0.53,1.07,0.77,1.66c0.03,0.06,0.07,0.13,0.09,0.21
				c0.18,0.44,0.34,0.9,0.48,1.37c0.06,0.22,0.12,0.44,0.17,0.66c0.67,2.82,0.36,5.85-0.1,7.06c-0.1,0.21-0.19,0.42-0.29,0.64
				c-0.27,0.57-0.32,0.74-0.77,1.76c-0.63,1.15-0.7,2.11-1.94,2.48C107,102.31,106.82,102.16,106.72,101.93z"/>
		</g>
		<path d="M28.7,97.84c0.35-0.57,0.82-0.39,1.22-0.33c1.75,0.21,3.27-0.51,4.85-1.04c1.04-0.34,1.16-1.11,1.16-2.07
			c0-2.33,0.73-4.42,2.71-5.77c1.26-0.86,2.71-1.54,4.29-1.73c1.5-0.19,3.01-0.31,4.52-0.41c1.97-0.14,3.9-0.75,5.69-1.67
			c0.57-0.29,1.04-0.5,1.28,0.33c-1.16,0.76-2.5,1.11-3.77,1.62c-0.78,0.11-1.56,0.29-2.28,0.66c-0.36-0.02-0.71-0.06-1.07-0.08
			c-0.17-0.02-0.35-0.03-0.53-0.02c-0.18,0-0.36,0.01-0.53,0.03c-0.12,0.01-0.24,0.04-0.35,0.07c-0.1,0.02-0.45,0.04-0.6,0.04
			c-0.03-0.01-0.05-0.02-0.06-0.01c-0.08-0.01-0.15,0-0.22,0.01c-0.07,0.01-0.15,0.03-0.22,0.05c-0.14,0.05-0.84-0.02-1.05,0.07
			c-0.01,0-0.29,0.07-0.66,0.13c-0.67,0.16-1.69,0.37-2.25,0.51c-1.83,0.45-4.11,3.46-4.13,5.28c0,0.31,0.11,0.6,0.11,0.95
			c-0.04,1.39-0.79,2.23-2.12,2.83c0.14,0.06,0.27,0.13,0.41,0.19c1.13,0.48,2.54,0.8,3.65,0.98c0.9,0.14,1.59,0.18,1.74,0.14
			c0.04,0,0.14-0.01,0.29-0.02c0.61-0.05,2.01-0.18,2.19-0.22c0.44-0.09,0.47,0.04,0.66-0.49c-0.2-0.34-1.24-0.23-1.27-0.22
			c-0.31,0.01-0.88,0.07-1.45,0.13c-0.44,0.05-0.89,0.1-1.22,0.13c-0.1,0-0.18,0-0.26,0.01c-0.14,0.01-0.26,0.01-0.33,0
			c-0.49-0.05-1.09,0.06-1.21-0.66c1.74,0.25,3.46,0.12,5.16-0.35c0.76-0.21,1.58-0.35,2.36-0.32c0.85,0.05,1.48-0.25,2.01-0.82
			c0.05-0.05,0.09-0.11,0.15-0.16c0.06-0.06,0.12-0.13,0.17-0.19c0.07-0.09,0.15-0.17,0.23-0.27c0.07-0.08,0.13-0.15,0.2-0.23
			c0.07-0.08,0.13-0.17,0.2-0.25c0.21-0.26,0.43-0.54,0.64-0.81c0.1-0.13,0.21-0.26,0.3-0.38c0-0.01,0-0.01,0-0.01
			c0.01-0.02,0.03-0.03,0.03-0.04c0.02-0.02,0.04-0.05,0.05-0.07c0.02-0.01,0.03-0.04,0.05-0.05c0.04-0.06,0.09-0.11,0.13-0.17
			c0.04-0.05,0.08-0.09,0.11-0.14c0.22-0.24,0.61-1.11,0.33-0.88c-0.28,0.24-0.55,0.35-0.75,0.4c-0.36,0.09-0.54-0.03-0.26-0.11
			c0.05-0.02,0.1-0.04,0.15-0.06c0.55-0.28,0.87-1.07,1.04-1.3c0.39-0.51,0.08-0.59,0.28-0.95c0-0.01,0-0.01,0.01-0.02
			c0.61-0.62,1.23-1.23,1.84-1.87c0.17-0.18,0.37-0.37,0.58-0.22c0.11,0.06,0.13,0.37,0.09,0.55c-0.11,0.42-0.07,1.1-0.45,1.17
			c-0.98,0.19-0.92,0.99-1.13,1.59c-0.44,1.3-1.01,2.53-1.97,3.51c-1.07,1.09-1.8,2.64-3.36,3.12c-2.59,0.81-5.19,1.71-8,1.14
			c-0.61-0.12-1.12-0.07-1.86-0.3c-0.44-0.06-0.86-0.3-1.26-0.43c-1.41-0.67-2.38-0.32-3.59-0.35C30.55,98,29.54,98.36,28.7,97.84z"
			/>
	</g>
	<path d="M31.59,106.36L31.59,106.36z"/>
	<g>
		<path d="M39.78,101.72c-0.22-0.07-0.14-0.41,0.08-0.35c0.47,0.14,1.09,0.16,1.72,0.1c0.75-0.06,1.49-0.25,2.01-0.46l0-0.01
			c1.55-0.67,0.68-0.54,0.59-0.83c-0.16,0.08-0.28,0.14-0.37,0.17c-0.05,0.02-0.13,0-0.17-0.05c-0.01,0-0.02-0.01-0.02-0.02
			c-0.08-0.08-0.07-0.22,0.03-0.28c0.23-0.12,0.51-0.23,0.77-0.28l0.01,0l0.01-0.03c0.02-0.01,0.04-0.03,0.06-0.05
			c0.42-0.35,1.11-0.55,1.59-0.79c0.45-0.23,1.57-1.01,2.6-1.5c0.58-0.29,1.15-0.49,1.52-0.41c0.04,0,0.06,0.01,0.09,0.02
			c0.08,0.02,0.14,0.09,0.14,0.17c-0.01,0.12-0.05,0.27-0.11,0.44c-0.4,0.95-1.65,2.47-1.49,2.91c0.02,0.03,0.03,0.06,0.06,0.08
			c0.11,0.09,0.25,0.13,0.38,0.12c0.51-0.01,1.16-0.59,1.83-1.42c0.01-0.02,0.03-0.03,0.04-0.05c1.27-1.56,2.65-3.98,3.49-5.27
			l0.09-0.16c0.19-0.27,0.34-0.48,0.45-0.6c0.16-0.17,0.42,0.09,0.26,0.25c-0.02,0.02-0.03,0.04-0.05,0.06
			c-0.38,0.41-0.7,0.84-0.99,1.31c-0.14,0.22-0.28,0.45-0.4,0.68c0,0.01,0,0.01-0.01,0.02c-0.85,1.52-1.54,3.14-2.92,4.26
			c-0.53,0.43-2.13,1.82-2.87,1.58c-0.07-0.02-0.13-0.09-0.14-0.17c0.04-0.97,2.14-2.86,1.82-3.6c-0.1-0.24-3.07,1.3-4.88,2.19
			c0.09,0.05,0.15,0.13,0.18,0.24c0.04,0.14,0.02,0.32-0.08,0.57c-0.46,1.16-4.12,1.45-5.25,1.16
			C39.84,101.74,39.81,101.72,39.78,101.72z"/>
	</g>
	<path d="M63.62,31.12L63.62,31.12z"/>
	<path d="M50.47,44.53L50.47,44.53z"/>
	<path d="M50.63,44.48L50.63,44.48z"/>
	<path d="M50.63,44.48L50.63,44.48z"/>
	<path d="M50.76,46.39L50.76,46.39z"/>
	<path fill="#B2BCC8" d="M55.17,35.12c1.56-1.38,3.37-2.44,5.15-3.54c0.81-0.5,3.13-0.66,4.92-0.42c1.14,0.16,1.97,0.65,2.34,0.75
		c2.02,0.55,3.01,1.65,3.93,3.3c0.26,0.46,0.26,1.04,0.17,1.61c0.04-0.5-0.04-0.94-0.29-1.39c-0.92-1.65-2.04-2.74-4.07-3.31
		c-1.21-0.34-5.83-0.59-6.71-0.03c-1.49,0.96-3.23,1.51-4.68,2.47c-0.01,0-0.03,0.01-0.03,0.02c-0.11,0.07-0.21,0.13-0.31,0.21
		C55.45,34.9,55.31,35.01,55.17,35.12z"/>
	<path fill="#B2BCC8" d="M73.89,34.58c-1.79-2.38-4.13-3.29-6.89-3.4c2.92-0.24,5.47,0.39,7.25,2.95c0.81,1.17,1.82,2.23,1.08,3.79
		C75.88,36.62,74.77,35.77,73.89,34.58z"/>
	<path fill="#B2BCC8" d="M57.37,41.88c-0.54,0.55-0.96,1.14-1.28,1.76c0.39-1.02,0.88-1.9,1.36-2.47c0.34-0.4,0.56-0.61,1.19-0.99
		c0.71-0.41,1.93-0.28,2.24-0.22c-0.62,0.24-1.34,0.24-1.69,0.91l0.01,0l0,0.01c-0.07,0.02-0.2,0.11-0.44,0.31
		c-0.6,0.73-1.5,1.29-1.19,2.48c0.08,0.3-0.19,0.51-0.52,0.49c-0.46-0.03-0.33-0.33-0.24-0.59C56.99,43.04,57.15,42.52,57.37,41.88z
		"/>
</g>
<g id="Farben_Mawerk">
	<path fill="#727272" d="M12.81,109.92l5.76-4.83l-6.9,5.17l-1.69,0.96L12.81,109.92z M126.27,111.26l0.12-0.07l-3.43-3.2l-5.58-1.5
		l4.61,2.11L126.27,111.26z"/>
	<path fill="#595959" d="M12.81,109.92l5.76-4.83l-6.9,5.17l-1.69,0.96L12.81,109.92z M21.73,47.11l-0.46,0.61l-0.18,0.43
		C21.29,47.8,21.51,47.46,21.73,47.11z M67.22,11.87l0.05-1.9l-0.51,1.99l0.84,3.47L67.22,11.87z"/>
	<path fill="#9B9B9B" d="M67.22,11.87l0.05-1.9l-0.51,1.99l0.84,3.47L67.22,11.87z M121.98,108.6l4.29,2.66l0.12-0.07l-3.43-3.2
		l-5.58-1.5L121.98,108.6z"/>
	<path fill="#4A7189" d="M132.44,112.83c3.98-40.35-18.18-86.33-58.48-107.45c-0.31-0.17-0.62-0.34-0.95-0.49l-0.03-0.01
		c-1.6-0.83-3.24-1.61-4.9-2.35C21.72,22.82-3.08,74.69,3.8,115.62c1.79,1.23,3.58,2.39,5.4,3.48l0.06,0.03
		c0.38,0.25,0.76,0.48,1.15,0.7l0.01,0C52.65,144.83,101.7,137.03,132.44,112.83z M5.96,113.77C3.58,92.68,8.55,69,21.08,48.17
		c0-0.01,0-0.01,0.01-0.02c0.2-0.34,0.42-0.69,0.64-1.04l0.02-0.04C32.08,30.33,47.35,15.48,67.67,5.43
		c6.59,3.44,14.36,7.99,21.2,13.33l0.59,0.5c0.73,0.56,7.88,6.92,8.97,8.06c22.02,22.81,32.16,50.34,31.85,81.9
		c-0.01,0.82-0.14,1.63-0.2,2.33C96.69,136.19,47.94,141.24,5.96,113.77z"/>
	<path fill="#515151" d="M24.87,121.58l24.85,8.06l16.33,1.61l21.99-3.05l14.71-4.2l23.52-12.74l-4.29-2.66l-4.61-2.11l-3.18-0.85
		l-5.64,2.93l-7.74,3.37l-6.2,1.5l-6.53-0.56l-6.24-2.88l-5.23-5.31l-3.05-6.97l-2.72-6.53l1.47-2.62l-10.78-0.3l-0.42,2.97
		l5.44,5.27l-0.49,0.62l-4.96-5.89l-0.31,7.42l-3.83,6.82l-4.53,5.18l-8.01,3.84l-8.84-0.38L27,110.7l-8.42-5.61l-5.76,4.83
		l-2.82,1.31l-3.2,1.82L24.87,121.58z M67.03,112.08l7.5,6.72l-6.36,0.23l-8.2,0.31L67.03,112.08z"/>
	<path fill="#777777" d="M96.12,71.11l6.72,1.5l7.2,5.19l3.9,7.94l1.1,9.19l-0.9,10.08l3.23,1.47l5.58,1.5l3.43,3.2l-0.12,0.07
		l0.5,0.3l-1.15-19.95l-4.81-25.68l-6.4-15.1L101.2,32.97L90.47,22.05L67.92,7.43l-0.65,2.55l-0.05,1.9l0.37,3.56l1.29,5.36
		l5.27,3.55l6.66,5.19l4.29,4.73l2.63,6l0.46,6.86l-2.16,7.13l-4.66,6.01l-4.5,5.6l7.58,1.25l-0.31,0.55l-9.47-1.42l0.4,3.09
		l4.63,6.11l8.61-4.43L96.12,71.11z M99.63,48.38l4.03,7.13l4.56,7.09l-13.49-1.76L99.63,48.38z"/>
	<path fill="#9B9B9B" d="M9.99,111.23l1.69-0.96l6.9-5.17l0.29-9.27l1.09-8.37l1.9-6.09l4.49-4.61l5.08-3.18l6.81-1.47l7.65,0.68
		l7.37,2.4l-3.52-8.48l5.17,10.1l5.96-10.6l-1.79,0.08l-7.17-6.33l-3.87-6.79l-2.11-6.55l0.82-8.84l4.87-7.38l7.36-5.6l9.14-4.35
		l-0.52-5.02l-0.84-3.47l0.51-1.99l0.09-3.73L50.73,17.37L31.04,34.54l-9.29,12.53l-0.02,0.04c-0.22,0.35-0.44,0.7-0.64,1.04
		c0,0.01,0,0.01-0.01,0.02l-8.5,19.99L8.61,82.92l-0.54,29.2L9.99,111.23z M33.48,51.31l3.32-2.05l3.14,13.21L27.4,64.35
		L33.48,51.31z"/>
</g>
<g id="Mawerk">
	<g>
		<g id="XMLID_00000022527924822687112940000011567597222614145159_">
			<path d="M46.9,125.42c0.06,0.01,0.12,0.02,0.18,0.02c0.03,0.01,0.07,0.02,0.1,0.02c-0.04,0-0.07,0.02-0.1,0.03
				C47.02,125.47,46.97,125.45,46.9,125.42z"/>
			<path d="M98.57,34.04c-0.03-0.04-0.05-0.06-0.08-0.09c-0.04-0.05-0.09-0.1-0.14-0.15c0.06,0.05,0.13,0.09,0.2,0.13
				C98.56,33.97,98.57,34,98.57,34.04z"/>
			<path d="M134.74,114.45C139.24,67.29,112.88,20.76,68.31,0c-0.77,0.3-1.53,0.62-2.29,0.95c-0.1,0.04-0.19,0.07-0.27,0.12l0,0.01
				c-1.36,0.58-2.7,1.2-4.03,1.86c-0.77,0.38-1.53,0.77-2.28,1.18c0,0,0,0,0,0.01c-0.39,0.2-0.76,0.39-1.13,0.59
				C22.68,24.32-4.5,69.5,0.62,113.88c0,0.12,0.02,0.24,0.03,0.35c0.1,0.87,0.22,1.73,0.34,2.59
				C47.06,146.63,96.36,143.06,134.74,114.45z M10.42,119.84L10.42,119.84c-0.4-0.23-0.78-0.46-1.16-0.71l-0.06-0.03
				c-1.82-1.09-3.61-2.25-5.4-3.48C-3.08,74.69,21.72,22.82,68.09,2.52c1.66,0.74,3.3,1.52,4.9,2.35l0.03,0.01
				c0.33,0.15,0.65,0.32,0.95,0.49c40.3,21.12,62.46,67.09,58.48,107.45C101.7,137.03,52.65,144.83,10.42,119.84z"/>
			<path d="M130.09,111.55c0.06-0.7,0.19-1.51,0.2-2.33c0.31-31.55-9.83-59.08-31.85-81.9c-1.09-1.14-8.24-7.5-8.97-8.06l-0.59-0.5
				c-6.84-5.34-14.61-9.89-21.2-13.33c-20.32,10.05-35.59,24.9-45.92,41.63l-0.02,0.04c-0.22,0.35-0.44,0.7-0.64,1.04
				c0,0.01,0,0.01-0.01,0.02C8.55,69,3.58,92.68,5.96,113.77C47.94,141.24,96.69,136.19,130.09,111.55z M19.23,73.58
				c4.91-5.47,11.23-8.16,18.35-9.11c3.19-0.42,6.17,0.3,8.8,2.09c2.26,1.53,4.24,3.85,5.83,6.89c-2.43-0.69-4.51-1.32-6.61-1.87
				C33.74,68.5,22.25,74.8,19.26,86.6c-1.54,6.07-1.95,12.44-2.97,19.32c-1.74,1.03-3.56,2.11-6.02,3.56
				c-1.44-10.34,0.85-19.66,2.5-28.84C15.03,78.17,17.15,75.9,19.23,73.58z M98.56,33.94c0,0.04,0.01,0.06,0.01,0.1
				c9.77,10.79,16.94,23.05,21.32,37.09c-5.05-2.63-10.5-8.78-13.51-12.65c-5.67-7.32-6.59-15.86-7.81-24.44
				c-0.03-0.04-0.05-0.06-0.08-0.09c-0.04-0.05-0.09-0.1-0.14-0.15c-1.78-1.2-3.56-2.4-5.34-3.6c-0.26,0.16-0.52,0.34-0.78,0.5
				c0.63,1.79,1.29,3.58,1.91,5.38c2.95,8.6,1.75,16.75-2.92,24.38c-2.87,4.68-7.94,6.4-12.38,4.26c0.71-0.76,1.28-1.52,1.98-2.11
				c11.56-9.81,11.09-26.1-1.03-35.04c-2.27-1.68-4.58-3.28-6.91-4.88c-4.06-2.78-5.07-5.59-3.57-11.32
				c11.53,5.31,20.59,13.44,29.03,22.42C98.42,33.85,98.49,33.89,98.56,33.94z M47.09,125.49c-0.07-0.03-0.12-0.05-0.19-0.07
				c-8.53-0.78-28.01-7.4-34.98-13.9c1.46-1.08,2.86-2.12,4.96-3.68c4.48,1.75,9.19,3.61,13.91,5.43c0.53,0.2,1.04,0.39,1.57,0.56
				c15.14,5.11,26.84-1.91,29.83-18.09c0.09-0.48,0.25-0.95,0.38-1.45c3.9,4.16,4.35,10.79,0.88,15.53
				c-4.72,6.44-11,10.47-18.97,11.75c-0.8,0.12-1.61,0.32-2.38,0.59c-0.25,0.09-0.4,0.5-0.94,1.19c2.01,0.72,3.88,1.39,5.75,2.06
				c0.06,0.01,0.12,0.02,0.18,0.02c0.03,0.01,0.07,0.02,0.1,0.02c2.63-0.82,5.44-1.31,7.87-2.55c8.25-4.23,16.47-3.58,24.85-0.57
				c3.22,1.15,6.57,1.93,9.81,2.85c-14.04,2.55-28.25,3.83-42.53,0.27C47.15,125.47,47.12,125.49,47.09,125.49z M36.84,59.58
				c-2.31,0.57-4.27,1.06-7.1,1.77l4.93-8.77C35.57,55.48,36.14,57.33,36.84,59.58z M54.77,73.84c-1.23-2.4-2.08-4.07-3.37-6.56
				c2.81,0.16,4.84,0.27,7.71,0.44C57.33,70.25,56.31,71.68,54.77,73.84z M55.02,78.19l0.03,0.02l7.15-12.72
				c-0.21-0.14-0.41-0.27-0.61-0.4l-0.01,0c-0.26-0.17-0.52-0.35-0.77-0.51c-0.24-0.16-0.48-0.31-0.71-0.47
				c-0.44-0.29-0.88-0.59-1.32-0.87c-0.2-0.14-0.4-0.27-0.6-0.38c-0.6-0.4-1.2-0.77-1.81-1.13c-11.42-6.77-12.88-22.29-2.8-30.95
				c3.4-2.92,7.14-5.44,10.63-8.06c8.96-0.56,14.35,5.15,18.94,11.08c6.92,8.94,3.85,22.36-5.75,28.28
				c-1.53,0.94-3.08,1.88-5.24,3.19c2.12,3.91,4.14,7.65,6.45,11.87c0.06,0.11,0.12,0.23,0.18,0.34c0.2-0.11,0.39-0.2,0.58-0.3
				l0-0.01c7.19-3.73,14.21-6.04,20.63-3.9c2.9,0.96,5.68,2.84,8.3,5.89c3.06,3.56,4.25,8.85,5.82,13.51
				c1.65,4.91,0.18,9.4-3.71,13.85c-3.12,1.28-6.88,3.07-10.81,4.39c-8.29,2.76-16.03,0.59-20.85-4.83
				c-2.93-3.28-4.78-7.74-5.04-13.03c-0.07-1.52-0.12-3.04-0.16-4.9c-0.01-0.25-0.02-0.5-0.02-0.76c0-0.09-0.01-0.19-0.01-0.29
				c-0.15,0-0.3,0-0.45,0c-4.33,0-8.42,0-13.14,0c0.81,13.19-3.04,23.1-16.68,25.97c-3.16,0.66-6.78,0.25-10.32-0.96
				c-5.52-1.89-10.83-5.71-13.8-10.46c0.58-4.02,0.97-8.83,2-13.49c2.99-13.55,19.43-19.26,29.63-12.02
				c0.71,0.5,1.52,0.87,2.45,1.26l0.05,0.03c0.46,0.2,0.96,0.41,1.48,0.65C54.84,78.11,54.92,78.15,55.02,78.19z M75.87,67.89
				c2.14,0.02,3.55,0.05,5.6,0.07c-0.69,1.76-1.19,3.02-2.19,5.53C77.86,71.15,77.05,69.81,75.87,67.89z M63.75,89.41
				c1.91,0.01,3.82,0.02,6.31,0.05l-3.31,5.88c-1.41-1.94-2.46-3.38-3.5-4.83C63.41,90.15,63.59,89.78,63.75,89.41z M67.42,113.21
				c1.66,1.5,3.07,2.77,5.4,4.87c-3.56,0.03-6.13,0.05-8.7,0.08c-0.19-0.44-0.37-0.89-0.55-1.33
				C64.79,115.67,66.02,114.5,67.42,113.21z M91.29,120.85c-8.57-0.82-15.45-4.63-20.9-11.23c-2.78-3.36-3.18-7.29-2.52-11.31
				c0.26-1.54,1.53-2.91,2.56-4.74c1.66,4.1,2.57,7.53,4.33,10.44c0.77,1.27,1.63,2.43,2.59,3.48c5.93,6.57,15.21,8.84,23.85,5.6
				c3.58-1.34,7.02-3,10.53-4.52c2.88-1.24,5.67-1.6,8.62-0.57c1.21,0.43,2.47,1.1,3.75,2.04c-1.72,1.14-2.86,2.12-4.16,2.75
				c-7.47,3.56-14.98,7.04-22.48,10.55c-0.09-0.42-0.17-0.83-0.26-1.25C95.22,121.68,93.28,121.05,91.29,120.85z M120.96,106.23
				c-0.65-0.23-1.35-0.47-2.11-0.74c-0.54-2.47-1.16-5.3-1.79-8.13c-0.99-4.51-1.3-9.31-3.08-13.49
				c-2.62-6.18-7.57-10.47-13.39-12.4c-5.05-1.68-10.77-1.58-16.18,0.61c-0.84,0.34-1.66,0.74-2.87,1.3
				c3.66-9.99,16.52-11.27,24.49-6.82c4.84,2.71,9.09,6.07,12.1,10.84c0.65,1.04,1.54,1.94,3.06,3.84c-0.13-2.67-0.2-4.14-0.28-5.61
				c3,10.35,4.91,20.82,4.77,32.24C123.97,107.28,122.57,106.8,120.96,106.23z M97.43,59.63c0.77-2.82,1.44-5.24,2.38-8.62
				c2.19,3.66,3.84,6.43,6.16,10.31C102.52,60.64,100.32,60.2,97.43,59.63z M63.03,21.06c-2.58,1.83-5.23,3.55-7.86,5.3
				c-14,9.29-14.36,29.29,1.26,39.07c-1.6,0.01-3.18,0.01-4.74,0.02c-1.56,0-3.09,0.01-4.55,0.01c-5.33-4.7-8.26-10.37-8.45-16.85
				c-0.16-5.85,1-11.72,1.71-18.87c7.81-5.85,16.13-12.1,25-18.75C67.03,15.81,66.23,18.8,63.03,21.06z M33.94,37.7
				c2.38,9.66-3.69,16.73-7.26,24.62c-3.2,2.17-6.47,4.38-9.8,6.63C16.79,64,25.3,48.48,33.94,37.7z"/>
			<path fill="#4E4D4C" d="M72.09,61.05L72.09,61.05c0.1-0.54,0.57-0.81,0.89-1.17c0.22-0.86,0.41-1.12,0.58-1.14
				c0.36-0.04,0.67,0.85,1.06-0.25c0.33-0.94,1.77-1.87,2.65-2.37c-0.77,1.74-0.22,0.88-0.64,1.94c-0.07,0.14-0.15,0.34-0.26,0.58
				c-0.15,0.32-0.31,0.69-0.79,0.49c-0.59,0.48-0.3,1.53-1.16,1.84c-0.06,0.09-0.13,0.17-0.19,0.26c-0.47,0.61-1.1,1.33-1.54,2.11
				l-0.01,0.03c-0.18,0.32-0.34,0.66-0.42,0.99c0-0.01,0.01-0.03,0.01-0.05c0-0.04-0.01-0.07,0.01-0.11c0-0.01,0.01-0.03,0-0.04
				c0-0.02,0.01-0.06,0.01-0.08c0.01-0.04,0.02-0.07,0-0.04C70.65,66.67,71.55,62.88,72.09,61.05z"/>
			<path fill="#4E4D4C" d="M47.34,83.84c0,0,1.79-0.27,2.1-0.3c0.91-0.11,0.67-1.01,1.35-1.05c0.13,0,0.25,0.01,0.37,0.05
				c-0.74,0.33-0.7,0.49-0.28,0.56c0.24,0.04,0.6,0.05,1.01,0.05c0.51,0,0.89,0.29,1.37,0.55c-0.7,0.09-1.4,0.24-2.09,0.37
				c-0.63,0.12-1.27,0.22-2.12,0.22C48.64,84.28,47.34,83.84,47.34,83.84z"/>
			<path fill="#9E3E34" d="M32.94,112.11c3.54,1.21,7.17,1.62,10.32,0.96c13.64-2.86,17.49-12.78,16.68-25.97
				c-0.43,0.41-1.22,1.03-1.75,1.5c-0.07,0.06-0.13,0.12-0.2,0.19c-0.04,0.06-0.1,0.12-0.16,0.18c-0.08,0.07-0.13,0.13-0.18,0.17
				c-0.24,0.23-0.26,0.15-0.39,0.17c-0.27,0.05-0.67,0.5-0.95,0.84c0.33-0.49,0.85-1.22,0.89-1.28c0.03-0.03,0.21-0.43,0.24-0.49
				l0.19-0.36c0.15-0.69-0.14-0.39-0.2-0.65c-0.07-0.33-0.24-0.4-0.48-0.35c-0.08-0.07-0.18-0.03-0.49,0.05
				c-1.24,0.33-1.28,0.52-1.84,0.86c0.62-0.66,0.01-0.52,0.74-1.37c0.2-0.13,0.39-0.26,0.58-0.4c0.33-0.23,0.92-0.33,0.82-0.85
				c-0.09-0.45-0.63-0.08-0.92-0.23c-0.88-0.44-1.74-0.92-2.61-1.38c-0.7,0.09-1.4,0.24-2.09,0.37c-0.63,0.12-1.27,0.22-2.12,0.22
				c-0.41,0-1.71-0.45-1.71-0.45s1.79-0.27,2.1-0.3c0.91-0.11,0.67-1.01,1.35-1.05c0.13,0,0.25,0.01,0.37,0.05
				c0.85-0.55,1.8-0.46,2.73-0.41c0.03-0.26,0.06-0.51,0.09-0.77c-0.2-0.12-0.39-0.24-0.6-0.36c-0.47-0.17-0.77-0.51-1-0.93
				c-0.13-0.21-0.19-0.56,0.07-0.59c1.34-0.2,0.84-1.21,0.94-1.97c-0.04-0.02-0.09-0.05-0.12-0.08l-0.05-0.03
				c-0.93-0.39-1.73-0.76-2.45-1.26c-10.2-7.24-26.64-1.53-29.63,12.02c-1.03,4.66-1.42,9.47-2,13.49
				C22.11,106.4,27.42,110.22,32.94,112.11z M23.64,104.77c-0.17-0.28,0.07-0.49,0.26-0.58c2.23-0.96,3.09-3.45,5.15-4.6
				c0.54-0.31,0.96-1.08,1.75-0.45c0.19-0.31,0.37-0.62,0.55-0.92c1.21,0.04,2.44-0.27,3.6,0.36c0.44,0.06,0.86,0.13,1.29,0.19
				c-0.44-0.06-0.86-0.3-1.26-0.43c-1.41-0.67-2.38-0.32-3.59-0.35c-0.83,0.01-1.84,0.38-2.68-0.14c0.35-0.57,0.82-0.39,1.22-0.33
				c1.75,0.21,3.27-0.51,4.85-1.04c1.04-0.34,1.16-1.11,1.16-2.07c0-2.33,0.73-4.42,2.71-5.77c1.26-0.86,2.71-1.54,4.29-1.73
				c1.5-0.19,3.01-0.31,4.52-0.41c1.97-0.14,3.9-0.75,5.69-1.67c0.57-0.29,1.04-0.5,1.28,0.33c0.63,0.51,0.23,1-0.06,1.46
				c-1.12,1.78-1.53,2.9-0.57,3.46c0.47,0.28-1.16,1.03-1.1,1.81c0.05,0.58,1.04,0.05,0.95,0.48c-0.22,1.13,0.31,1.22,1.04,1.47
				c0.03-0.01,0.06-0.02,0.08-0.04c0.19-0.27,0.34-0.48,0.45-0.6c0.16-0.17,0.42,0.09,0.26,0.25c-0.02,0.02-0.03,0.04-0.05,0.06
				c0.16-0.04,0.32,0,0.49,0.16c0.19-0.15,0.36-0.31,0.55-0.46c0.13-0.11,0.29-0.16,0.43-0.06c0.15,0.1,0.13,0.24,0.08,0.41
				c-1.04,3.75-2.2,7.44-4.96,10.38c-0.43,0.46-2.14,2.19-4.32,3.3c-2.19,1.11-4.86,1.58-6.1,1.72c-3.44,0.4-6.55-0.76-9.56-2.28
				c-0.21-0.12-0.34-0.18-0.57-0.27c-0.18-0.08-0.5-0.25-0.58-0.25c-1.33-0.67-3.53-1.58-3.94-1.57c-1.04-0.08-1.75-0.13-2.66,0.24
				C24.07,104.91,23.81,105.03,23.64,104.77z"/>
			<path fill="#D29441" d="M99.61,110.91c3.93-1.31,7.69-3.11,10.81-4.39c3.89-4.45,5.36-8.94,3.71-13.85
				c-1.57-4.67-2.76-9.96-5.82-13.51c-2.62-3.05-5.4-4.93-8.3-5.89c-6.42-2.14-13.44,0.18-20.63,3.9c0,0,0.02,0,0.03,0.01
				c0.31,0.02,2.15,0.01,2.15,0.01s-0.83,0.51-1.62,0.92c-0.52,0.27-1.03,0.49-1.28,0.5c-0.22,0-0.43-0.11-0.7-0.12
				c1.32,0.67,0.59,2.25,1.43,3.12c1.38,0.09,1.82,1.33,2.87,2.16c-2.17-0.21-3.67-1.74-5.66-1.65c-0.14,0-0.29,0-0.43,0.01
				c0.08,0.12,0.14,0.25,0.22,0.38c0.73,0.54,0.75,1.43,1.05,2.17c0.17,0.38-0.1,0.51-0.54,0.43c-1.96-0.35-2.19-0.06-1.72,1.91
				c0.15,0.65,0.5,1.28,0.34,1.97c-0.06,0.29,0.03,0.7-0.36,0.81c-0.36,0.09-0.52-0.27-0.72-0.5c-0.33-0.36-0.42-0.94-0.9-1.16
				c0.04,1.86,0.09,3.38,0.16,4.9c0.26,5.29,2.11,9.76,5.04,13.03C83.59,111.5,91.33,113.67,99.61,110.91z M105.7,101.54
				c-0.49-2.1-2.06-3.37-3.85-4.38c-2.41-1.34-5.05-2.13-7.45-3.51c-3.31-1.93-5.4-4.87-7.13-8.14c-0.54-1.02-0.34-3.95,0.29-5.99
				c-2.65-0.5-4.87,0.57-7.04,1.97c-0.03-0.4,0.22-0.49,0.28-0.64c0.23-0.58,1.5-0.48,1.03-1.58c-0.05-0.1,0.64-0.61,1.14-0.7
				c2.23-0.41,4.26-1.47,6.43-2.04c1.6-0.41,3.24-0.68,4.88-0.99c1.6-0.29,2.19-0.28,3.52-0.18c0.31,0.02,0.73,0.08,1.02,0.18
				c0.82,0.34,1,0.49,1.5,0.81c2.35,1.5,4.65,3.11,6.34,5.34c2.77,3.64,4.79,7.66,4.82,12.4c0,0.18-0.08,1.64-0.49,3
				c-0.47,1.5-1.42,3.54-1.42,3.54c-0.2,0.44-1.11,2.82-2.5,2.59C106.55,103.08,106.22,102.78,105.7,101.54z"/>
			<path fill="#4A7189" d="M58.34,61.45c1.66,1.62,3.41,1.4,5.26,0.68c0.54-0.21,1.25,0.06,1.83,0.36c0.22-0.41,0.65-0.56,1.01-0.53
				c1.34,0.13,1.52-0.84,1.8-1.75c0.01-0.03,0.02-0.06,0.03-0.09c0.03-0.09,0.04-0.14,0.05-0.17c0.01-0.03,0.01-0.03,0.01-0.03
				c-0.01,0-0.02,0.02,0.06-0.19c0.01-0.03,0.02-0.06,0.04-0.08c0.11-0.27,1.02-1.69,1.02-1.69s-0.15,2.28-0.25,2.66
				c0,0.01,0,0.01,0,0.02c-0.03,0.09-0.05,0.17-0.07,0.24c-0.04,0.13-0.07,0.24-0.09,0.33c-0.01,0.02-0.02,0.03-0.02,0.05
				c-0.02,0.08-0.05,0.15-0.06,0.21c-0.03,0.12-0.05,0.2-0.08,0.28c-0.02,0.06-0.04,0.11-0.05,0.17c-0.05,0.18-0.12,0.42-0.27,0.93
				c0.17,0.38,0.46,0.32,0.64,0.08c0.75-0.97,1.83-1.38,2.88-1.88c0.11-0.54,0.58-0.8,0.9-1.17c0.22-0.86,0.41-1.12,0.58-1.14
				c0.36-0.04,0.67,0.85,1.06-0.25c0.33-0.94,1.77-1.87,2.65-2.37c-0.77,1.74-0.22,0.88-0.64,1.94c-0.07,0.14-0.15,0.34-0.26,0.58
				c-0.15,0.32-0.31,0.69-0.79,0.49c-0.59,0.48-0.3,1.53-1.16,1.84c-0.06,0.09-0.13,0.17-0.19,0.26c-0.47,0.61-1.1,1.33-1.54,2.11
				l-0.01,0.03c-0.18,0.32-0.34,0.66-0.42,0.99c0,0.01,0,0.02,0,0.02c-0.04,0.15-0.06,0.3-0.08,0.45c-0.01,0.14-0.01,0.29,0,0.43
				c2.16-1.31,3.71-2.25,5.24-3.19c9.6-5.92,12.67-19.34,5.75-28.28c-4.59-5.93-9.98-11.64-18.94-11.08
				c-3.49,2.62-7.24,5.14-10.63,8.06c-10.09,8.66-8.62,24.18,2.8,30.95c0.61,0.37,1.2,0.73,1.81,1.13l0.56,0.31
				C58.74,62.66,58.23,62.3,58.34,61.45z M55.04,58.73L54,57.84c-0.58-0.25-0.71-0.22-1.01-0.57c-0.03-0.04-0.08-0.09-0.11-0.14
				c-0.54-0.68-2.41-3.22-2.78-4.11c-0.77-1.84-0.95-7.72-0.61-9.52c0.11-0.54,0.18-1.48,0.32-1.99c1.34-5,4.28-10.39,8.98-12.08
				c4.46-1.6,8.65-0.86,12.8,0.93c0.98,0.42,3.25,2.88,3.82,3.6c0.82,1.05,2.43,5.68,2.45,9.12c0,2.53-2.49,6.79-4.84,7.68
				c-2.44,0.92-3.84,0.53-5.61-1.43c-0.71-0.79-1.55-1.47-1.85-2.57c-0.33-1.19,0.3-3.18,1.3-3.84c0.29-0.18,0.53-0.45,0.92-0.04
				c0.7,0.74,1.19,0.05,1.51-0.42c0.42-0.62,0.06-1.17-0.56-1.45c-0.96-0.44-1.99-0.29-2.9,0.07c-1.87,0.74-2.83,3.06-2.27,4.99
				c0.7,2.46,1.88,4.58,3.94,6.19c0.76,0.6,3.22,2.6,4.29,2.88c0.31,0.08,0.75,0.11,0.74,0.62c-0.05,1.25-0.91,0.65-1.53,0.7
				c-1.68,0.16-3.39,0.31-4.7,1.6c0.14,0.4,0,0.62-0.43,0.56c-0.72-0.09-1.68-1.15-1.67-1.2c-0.01,0.05-0.02,0.12-0.04,0.17
				c-0.28,0.51-0.63,0.96-1.28,0.66c-0.71-0.33-1.17-0.02-1.62,0.47c0.02,0.4-0.22,0.19-0.36,0.14c-0.11-0.03-0.22-0.09-0.33-0.06
				c-0.04,0-0.07,0.02-0.11,0.05c0,0.01,0,0.04,0,0.06c-0.01,0.05-0.01,0.12,0.01,0.16c0.16,0.32,0.96,0.36,0.65,0.81
				c-0.39,0.56-0.79-0.07-1.01-0.35c-0.98-1.22-2.51-0.79-3.7-1.35c-0.18,0.12-0.35,0.24-0.52,0.36c0,0.28,0.42,0.37,0.29,0.82
				C55.69,59.18,55.28,59.03,55.04,58.73z"/>
			<path fill="#272625" d="M61.1,86.17c1.93,0.55,3.26-0.83,8.05,0.05c0.63,0.26,1.1,0.21,1.45,0.05c0.18-0.26,0.5-0.4,0.74-0.59
				c0.04-0.03,0.07-0.06,0.1-0.09c2.75-2.57,5.18-5.34,5.43-9.36c0.01-0.13,0.01-0.26,0.04-0.38c0,0,0,0,0-0.01
				c-0.08-0.31-0.13-0.58-0.12-0.73c0.28-2.87-5.03-0.62-3.39-6.76c0.23-0.88-1.5-0.58-2.2-0.98l-0.03-0.01
				c-1.75-1.1-3.56-1.59-5.65-1.37c-1.12,0.12-2.28-0.15-3.44-0.29l-6.79,12.08c0.2,0.2,0.37,0.41,0.5,0.65
				c0.05,0.06,0.09,0.13,0.12,0.21c0.06,0.1,0.1,0.21,0.15,0.31c0.04,0.11,0.09,0.21,0.12,0.32c0.04,0.1,0.07,0.21,0.1,0.33
				c0.06,0.23,0.09,0.45,0.12,0.69c0.28,2.45,1.92,3.99,3.58,5.52C60.32,86.09,60.68,86.04,61.1,86.17z M59.79,81.99
				c-1.14-1.49-1.85-3.91-0.62-5.92c0.4-0.85,1.2-0.64,1.62-1.46c0.58-1.11,1.28-2.73,1.75-4.02c0.07-0.17,0.13-0.34,0.19-0.49
				c0.04-0.11,0.07-0.21,0.13-0.31c0.04-0.11,0.1-0.21,0.15-0.31c0.05-0.09,0.1-0.17,0.16-0.27c0.4-0.59,0.95-1.08,1.58-1.44
				c2.05-1.2,4.85-1.06,5.31,0.79c0.94,3.76,3.05,5.03,4.36,6.86c0.7,0.97,0.42,2.47-0.23,3.96l0,0.01
				c-0.69,1.55-1.81,3.07-2.69,3.9c-2.78,2.62-3.78,1.38-4.56,0.04c-0.79-1.34-2.99-0.67-4.56-0.25
				C61.31,83.37,60.4,82.77,59.79,81.99z"/>
			<path fill="#1E1C1A" d="M62.37,83.09c1.58-0.42,3.77-1.09,4.56,0.25c0.79,1.34,1.78,2.58,4.56-0.04c0.88-0.83,2-2.35,2.69-3.9
				l0-0.01c0.65-1.49,0.93-3,0.23-3.96c-1.31-1.83-3.42-3.09-4.36-6.86c-0.46-1.85-3.26-1.99-5.31-0.79
				c-0.63,0.36-1.18,0.85-1.58,1.44c-0.06,0.09-0.11,0.18-0.16,0.27c-0.05,0.1-0.11,0.19-0.15,0.31c-0.05,0.1-0.09,0.2-0.13,0.31
				c-0.05,0.15-0.11,0.33-0.19,0.49c-0.47,1.28-1.17,2.91-1.75,4.02c-0.42,0.82-1.22,0.61-1.62,1.46c-1.23,2.01-0.52,4.43,0.62,5.92
				C60.4,82.77,61.31,83.37,62.37,83.09z M60.12,80.35c-0.06-0.12-0.12-0.26-0.18-0.41c-0.17-0.5-0.32-1.12-0.41-1.7
				c0-0.01,0-0.02,0-0.02c-0.14-1.03-0.06-1.88,0.53-1.47c3.83,2.67,3.61-2.36,3.99-6.42c0.54-1.04,1.22-1.96,2.48-1.96
				c1.53,0.01,0.99,5.65,1.8,7.07c1.06,1.87,3.41-1.16,3.7,0.94c0.11,0.87,0.11,1.72,0.53,2.53c0.33,0.66,0.02,1.32-0.33,1.81
				c-0.85,1.47-2.68-0.69-4.45-1.11c-1.99-0.46-3.22,1.89-5.27,2.13C61.41,81.87,60.62,81.4,60.12,80.35z"/>
			<path fill="#14120F" d="M60.12,80.35c-0.06-0.12-0.12-0.26-0.18-0.41c-0.17-0.5-0.32-1.12-0.41-1.7c0-0.01,0-0.02,0-0.02
				c-0.14-1.03-0.06-1.88,0.53-1.47c3.83,2.67,3.61-2.36,3.99-6.42c0.54-1.04,1.22-1.96,2.48-1.96c1.53,0.01,0.99,5.65,1.8,7.07
				c1.06,1.87,3.41-1.16,3.7,0.94c0.11,0.87,0.11,1.72,0.53,2.53c0.33,0.66,0.02,1.32-0.33,1.81c-0.85,1.47-2.68-0.69-4.45-1.11
				c-1.99-0.46-3.22,1.89-5.27,2.13C61.41,81.87,60.62,81.4,60.12,80.35z"/>
			<path fill="#4E4D4C" d="M52.38,80.06c-0.13-0.21-0.19-0.56,0.07-0.59c1.34-0.2,0.84-1.21,0.94-1.97
				c-0.04-0.02-0.09-0.05-0.12-0.08c0.46,0.2,0.96,0.41,1.48,0.65c0.09,0.05,0.17,0.08,0.27,0.13l0.03,0.02l-0.17,0.82
				c0.07,1.19-0.97,1.05-1.51,1.95C52.91,80.82,52.61,80.48,52.38,80.06z"/>
			<path fill="#323031" d="M55.39,86.54c0.2-0.13,0.39-0.26,0.58-0.4c0.33-0.23,0.92-0.33,0.82-0.85c-0.09-0.45-0.63-0.08-0.92-0.23
				c-0.88-0.44-1.74-0.92-2.61-1.38c-0.48-0.26-0.86-0.55-1.37-0.55c-0.41,0-0.77-0.01-1.01-0.05c-0.42-0.07-0.46-0.22,0.28-0.56
				c0.85-0.55,1.8-0.46,2.73-0.41c0.62,0.33,1.24,0.56,2.1,0.37l-2.01-1.13c-0.2-0.12-0.39-0.24-0.6-0.36
				c0.54-0.9,1.58-0.77,1.51-1.95l0.17-0.82l0.25-0.44c0.2,0.2,0.37,0.41,0.5,0.65c0.05,0.06,0.09,0.13,0.12,0.21
				c0.06,0.1,0.1,0.21,0.15,0.31c0.04,0.11,0.09,0.21,0.12,0.32c0.04,0.1,0.07,0.21,0.1,0.33c0.05,0.22,0.09,0.45,0.12,0.69
				c0.28,2.45,1.92,3.99,3.58,5.52c0.33,0.3,0.69,0.25,1.11,0.37c1.93,0.55,3.26-0.83,8.05,0.05c0.63,0.26,1.1,0.21,1.45,0.05
				c0.18-0.26,0.5-0.4,0.74-0.59c0.04-0.03,0.07-0.06,0.1-0.09c2.75-2.57,5.18-5.34,5.43-9.36c0.01-0.13,0.01-0.26,0.04-0.38
				c0,0,0,0,0-0.01c-0.08-0.31-0.13-0.58-0.12-0.73c0.28-2.87-5.03-0.62-3.39-6.76c0.23-0.88-1.5-0.58-2.2-0.98l-0.03-0.01
				c-1.75-1.1-3.56-1.59-5.65-1.37c-1.12,0.12-2.28-0.15-3.44-0.29l0.11-0.19c-0.21-0.14-0.41-0.27-0.61-0.4l-0.01,0
				c-0.26-0.17-0.52-0.35-0.77-0.51c-0.24-0.16-0.48-0.31-0.71-0.47c0.88-0.42,1.83-0.58,2.81-0.52c0.44,0.26,0.91,0.49,1.3,0.8
				c0.28,0.23,0.5,0.58,0.9,0.34c0.37-0.21,0.26-0.6,0.18-0.95c0.03-0.07,0.05-0.15,0.08-0.22c1.15,0.1,2.15-0.42,3.2-0.72
				c0.17,0.38,0.46,0.32,0.64,0.08c0.75-0.97,1.83-1.38,2.88-1.88l0.01,0c-0.54,1.83-1.44,5.63,0.18,2.98c0,0.01,0,0.02,0,0.04
				c-0.01,0.03-0.01,0.06-0.01,0.08c0,0.01-0.01,0.03,0,0.04c-0.01,0.04-0.01,0.08-0.01,0.11c0,0.02,0,0.04-0.01,0.05
				c0,0.01,0,0.02,0,0.02c-0.04,0.15-0.06,0.3-0.08,0.45c-0.01,0.14-0.01,0.29,0,0.43c2.12,3.91,4.14,7.65,6.45,11.87
				c0.06,0.11,0.12,0.23,0.18,0.34c0.2-0.11,0.39-0.2,0.58-0.3l0-0.01c0,0,0.02,0,0.03,0.01c0.02,0,0.04,0,0.08,0.01
				c0.03,0.01,0.07,0,0.1,0c0.12,0.01,0.27,0,0.46,0c0.35,0,0.77,0.01,1.07,0.01c0.07-0.01,0.13-0.01,0.17,0c0.16,0,0.26,0,0.26,0
				s-0.83,0.51-1.62,0.92c-0.52,0.27-1.03,0.49-1.28,0.5c-0.22,0-0.43-0.11-0.7-0.12c1.32,0.67,0.59,2.25,1.43,3.12
				c0.07,0.13,0.22,0.33,0.19,0.37c-0.2,0.24-0.42,0.06-0.61-0.06c-0.85-0.56-1.64-0.69-2.37,0.19c-0.14,0-0.29,0-0.43,0.01
				c0.08,0.12,0.14,0.25,0.22,0.38c-0.19,0.34-0.18,0.68-0.06,1.03c0.09,0.29,0.07,0.58-0.27,0.67c-1.68,0.41-1.91,1.53-1.52,3
				c0.15,0.52-0.07,0.68-0.55,0.43c-0.15-0.07-0.31-0.17-0.45-0.25c0-0.09-0.01-0.19-0.01-0.29c-0.15,0-0.3,0-0.45,0
				c-4.33,0-8.42,0-13.14,0c-0.43,0.41-1.22,1.03-1.75,1.5c-0.07,0.06-0.13,0.12-0.2,0.19C60.1,85.64,58.37,85.59,55.39,86.54z"/>
		</g>
	</g>
	<line fill="none" x1="100.41" y1="48.82" x2="107.42" y2="62.94"/>
</g>
</svg>
